{
.appVersion = "1356";
DisplayStrings = (
"/apostrophemod/doubleprimemod/primemod/dieresiscomb/dotaccentcomb/gravecomb/acutecomb/hungarumlautcomb/caroncomb.alt/circumflexcomb/caroncomb/brevecomb/ringcomb/tildecomb/macroncomb/hookabovecomb/dblgravecomb/breveinvertedcomb/commaturnedabovecomb/horncomb/dotbelowcomb/dieresisbelowcomb A/commaaccentcomb/cedillacomb/ogonekcomb/brevebelowcomb/macronbelowcomb/strokeshortcomb/brevecomb_acutecomb/brevecomb_gravecomb/brevecomb_hookabovecomb/brevecomb_tildecomb/circumflexcomb_acutecomb/circumflexcomb_gravecomb/circumflexcomb_hookabovecomb/circumflexcomb_tildecomb"
);
copyright = "\\2512003-2014 by Robert E. Leuschke. All rights reserved.";
customParameters = (
{
name = description;
value = "©2003-2014 by Robert E. Leuschke. All rights reserved.";
},
{
name = trademark;
value = "LoveLight is a trademark of Robert E. Leuschke.";
},
{
name = licenseURL;
value = "http://www.typesetit.com/license.html";
},
{
name = license;

glyphs = (
{
glyphname = .notdef;
lastChange = "2021-11-17 05:33:51 +0000";
layers = (
{
hints = (
{
horizontal = 1;
place = "{0, 63}";
type = Stem;
},
{
horizontal = 1;
place = "{738, 62}";
type = Stem;
},
{
place = "{63, 62}";
type = Stem;
},
{
place = "{375, 63}";
type = Stem;
}
);
layerId = "47CF47DF-B93A-4126-8606-39E7B9FB561A";
paths = (
{
closed = 1;
nodes = (
"438 0 LINE",
"438 800 LINE",
"63 800 LINE",
"63 0 LINE"
);
},
{
closed = 1;
nodes = (
"138 738 LINE",
"365 738 LINE",
"252 441 LINE"
);
},
{
closed = 1;
nodes = (
"125 112 LINE",
"125 698 LINE",
"238 405 LINE"
);
},
{
closed = 1;
nodes = (
"375 120 LINE",
"266 405 LINE",
"375 690 LINE"
);
},
{
closed = 1;
nodes = (
"369 63 LINE",
"134 63 LINE",
"252 368 LINE"
);
}
);
width = 500;
}
);
note = .notdef;
},
{
glyphname = exclam;
layers = (
{
hints = (
{
horizontal = 1;
place = "{-15, 654}";
type = Stem;
},
{
place = "{42, 274}";
type = Stem;
}
);
layerId = "47CF47DF-B93A-4126-8606-39E7B9FB561A";
paths = (
{
closed = 1;
nodes = (
"116 153 OFFCURVE",
"118 155 OFFCURVE",
"119 160 CURVE SMOOTH",
"122 173 OFFCURVE",
"123 183 OFFCURVE",
"124 190 CURVE SMOOTH",
"137 244 OFFCURVE",
"163 315 OFFCURVE",
"204 403 CURVE SMOOTH",
"240 482 OFFCURVE",
"275 550 OFFCURVE",
"310 608 CURVE SMOOTH",
"314 614 OFFCURVE",
"316 619 OFFCURVE",
"316 624 CURVE SMOOTH",
"316 634 OFFCURVE",
"310 639 OFFCURVE",
"297 639 CURVE SMOOTH",
"284 639 OFFCURVE",
"273 633 OFFCURVE",
"264 620 CURVE SMOOTH",
"240 588 OFFCURVE",
"207 513 OFFCURVE",
"166 395 CURVE SMOOTH",
"125 277 OFFCURVE",
"104 199 OFFCURVE",
"104 161 CURVE SMOOTH",
"104 156 OFFCURVE",
"107 153 OFFCURVE",
"112 153 CURVE SMOOTH"
);
},
{
closed = 1;
nodes = (
"121 71 LINE",
"120 72 OFFCURVE",
"119 72 OFFCURVE",
"118 72 CURVE SMOOTH",
"105 72 OFFCURVE",
"90 66 OFFCURVE",
"72 54 CURVE SMOOTH",
"52 41 OFFCURVE",
"42 29 OFFCURVE",
"42 17 CURVE SMOOTH",
"42 6 OFFCURVE",
"52 -15 OFFCURVE",
"63 -15 CURVE SMOOTH",
"76 -15 OFFCURVE",
"96 7 OFFCURVE",
"100 20 CURVE",
"112 45 LINE SMOOTH",
"118 57 OFFCURVE",
"121 65 OFFCURVE",
"121 69 CURVE SMOOTH"
);
}
);
width = 219;
}
);
note = exclam;
unicode = 0021;
},
{
glyphname = quotedbl;
layers = (
{
hints = (
{
horizontal = 1;
place = "{482, 21}";
type = Stem;
},
{
place = "{60, 169}";
type = Stem;
}
);
layerId = "47CF47DF-B93A-4126-8606-39E7B9FB561A";
paths = (
{
closed = 1;
nodes = (
"92 300 LINE SMOOTH",
"94 300 OFFCURVE",
"97 311 OFFCURVE",
"101 332 CURVE SMOOTH",
"117 435 OFFCURVE",
"123 486 OFFCURVE",
"123 482 CURVE SMOOTH",
"123 496 OFFCURVE",
"116 503 OFFCURVE",
"101 503 CURVE SMOOTH",
"94 503 LINE SMOOTH",
"81 502 OFFCURVE",
"60 480 OFFCURVE",
"60 467 CURVE SMOOTH",
"60 465 OFFCURVE",
"61 463 OFFCURVE",
"62 462 CURVE SMOOTH",
"79 444 OFFCURVE",
"88 408 OFFCURVE",
"88 355 CURVE SMOOTH",
"88 319 OFFCURVE",
"89 301 OFFCURVE",
"91 300 CURVE"
);
},
{
closed = 1;
nodes = (
"198 300 LINE SMOOTH",
"200 300 OFFCURVE",
"203 311 OFFCURVE",
"207 332 CURVE SMOOTH",
"223 435 OFFCURVE",
"229 486 OFFCURVE",
"229 482 CURVE SMOOTH",
"229 496 OFFCURVE",
"222 503 OFFCURVE",
"208 503 CURVE SMOOTH",
"200 503 LINE SMOOTH",
"187 502 OFFCURVE",
"166 480 OFFCURVE",
"166 467 CURVE SMOOTH",
"166 465 OFFCURVE",
"167 463 OFFCURVE",
"168 462 CURVE SMOOTH",
"185 444 OFFCURVE",
"194 408 OFFCURVE",
"194 355 CURVE SMOOTH",
"194 319 OFFCURVE",
"195 301 OFFCURVE",
"197 300 CURVE"
);
}
);
width = 198;
}
);
note = quotedbl;
unicode = 0022;
},
{
glyphname = numbersign;
layers = (
{
hints = (
{
horizontal = 1;
place = "{182, 24}";
type = Stem;
},
{
horizontal = 1;
place = "{372, 24}";
type = Stem;
},
{
place = "{-1, 445}";
type = Stem;
},
{
horizontal = 1;
place = "{376, 9}";
type = Stem;
},
{
horizontal = 1;
place = "{187, 8}";
type = Stem;
}
);
layerId = "47CF47DF-B93A-4126-8606-39E7B9FB561A";
paths = (
{
closed = 1;
nodes = (
"444 382 OFFCURVE",
"442 384 OFFCURVE",
"438 385 CURVE SMOOTH",
"395 390 OFFCURVE",
"363 393 OFFCURVE",
"341 394 CURVE",
"366 465 OFFCURVE",
"378 514 OFFCURVE",
"378 541 CURVE SMOOTH",
"378 556 OFFCURVE",
"376 563 OFFCURVE",
"372 563 CURVE SMOOTH",
"369 563 OFFCURVE",
"366 557 OFFCURVE",
"365 544 CURVE SMOOTH",
"362 523 OFFCURVE",
"356 497 OFFCURVE",
"346 468 CURVE SMOOTH",
"342 456 OFFCURVE",
"332 432 OFFCURVE",
"317 395 CURVE",
"290 396 OFFCURVE",
"266 396 OFFCURVE",
"244 396 CURVE SMOOTH",
"216 396 LINE",
"240 461 OFFCURVE",
"252 506 OFFCURVE",
"252 529 CURVE SMOOTH",
"252 540 OFFCURVE",
"250 545 OFFCURVE",
"247 545 CURVE SMOOTH",
"243 545 OFFCURVE",
"240 539 OFFCURVE",
"239 526 CURVE SMOOTH",
"236 495 OFFCURVE",
"221 451 OFFCURVE",
"196 395 CURVE",
"129 394 OFFCURVE",
"85 392 OFFCURVE",
"65 389 CURVE SMOOTH",
"64 389 OFFCURVE",
"63 389 OFFCURVE",
"62 388 CURVE",
"63 384 OFFCURVE",
"68 379 OFFCURVE",
"78 373 CURVE SMOOTH",
"89 367 OFFCURVE",
"96 364 OFFCURVE",
"100 364 CURVE SMOOTH",
"91 364 OFFCURVE",
"119 366 OFFCURVE",
"184 369 CURVE",
"171 341 OFFCURVE",
"153 305 OFFCURVE",
"130 261 CURVE SMOOTH",
"107 216 LINE",
"102 211 OFFCURVE",
"97 207 OFFCURVE",
"94 205 CURVE",
"43 203 OFFCURVE",
"12 201 OFFCURVE",
"1 200 CURVE SMOOTH",
"0 200 OFFCURVE",
"-1 200 OFFCURVE",
"-1 199 CURVE SMOOTH",
"-1 195 OFFCURVE",
"4 190 OFFCURVE",
"14 184 CURVE SMOOTH",
"25 178 OFFCURVE",
"32 175 OFFCURVE",
"36 175 CURVE SMOOTH",
"34 175 OFFCURVE",
"49 176 OFFCURVE",
"81 178 CURVE",
"53 115 OFFCURVE",
"39 83 OFFCURVE",
"39 81 CURVE SMOOTH",
"39 76 OFFCURVE",
"43 74 OFFCURVE",
"52 74 CURVE SMOOTH",
"66 74 OFFCURVE",
"76 78 OFFCURVE",
"81 86 CURVE SMOOTH",
"101 125 OFFCURVE",
"116 156 OFFCURVE",
"126 180 CURVE",
"222 184 LINE",
"199 139 OFFCURVE",
"179 97 OFFCURVE",
"160 59 CURVE",
"160 54 OFFCURVE",
"164 52 OFFCURVE",
"173 52 CURVE SMOOTH",
"187 52 OFFCURVE",
"197 56 OFFCURVE",
"202 65 CURVE SMOOTH",
"210 80 OFFCURVE",
"216 91 OFFCURVE",
"219 99 CURVE SMOOTH",
"231 124 OFFCURVE",
"244 152 OFFCURVE",
"258 185 CURVE",
"301 186 OFFCURVE",
"338 187 OFFCURVE",
"368 187 CURVE SMOOTH",
"376 187 OFFCURVE",
"380 189 OFFCURVE",
"380 192 CURVE SMOOTH",
"380 193 OFFCURVE",
"378 194 OFFCURVE",
"374 195 CURVE SMOOTH",
"327 201 OFFCURVE",
"291 204 OFFCURVE",
"266 205 CURVE",
"293 267 OFFCURVE",
"315 323 OFFCURVE",
"334 374 CURVE",
"373 375 OFFCURVE",
"405 376 OFFCURVE",
"432 376 CURVE SMOOTH",
"440 376 OFFCURVE",
"444 378 OFFCURVE",
"444 381 CURVE SMOOTH"
);
},
{
closed = 1;
nodes = (
"308 374 LINE",
"287 323 OFFCURVE",
"262 267 OFFCURVE",
"233 206 CURVE",
"202 207 OFFCURVE",
"171 207 OFFCURVE",
"138 206 CURVE",
"165 266 OFFCURVE",
"188 321 OFFCURVE",
"207 370 CURVE"
);
}
);
width = 449;
}
);
note = numbersign;
unicode = 0023;
},
{
glyphname = dollar;
lastChange = "2021-09-23 05:19:18 +0000";
layers = (
{
hints = (
{
horizontal = 1;
place = "{219, 7}";
type = Stem;
},
{
horizontal = 1;
place = "{689, -20}";
target = down;
type = TopGhost;
},
{
place = "{-28, 23}";
type = Stem;
},
{
place = "{39, 29}";
type = Stem;
},
{
place = "{113, 41}";
type = Stem;
},
{
place = "{235, 45}";
type = Stem;
},
{
place = "{294, 21}";
type = Stem;
}
);
layerId = "47CF47DF-B93A-4126-8606-39E7B9FB561A";
paths = (
{
closed = 1;
nodes = (
"525 422 OFFCURVE",
"513 470 OFFCURVE",
"475 489 CURVE SMOOTH",
"439 509 OFFCURVE",
"354 516 OFFCURVE",
"303 497 CURVE SMOOTH",
"227 468 OFFCURVE",
"189 373 OFFCURVE",
"265 316 CURVE SMOOTH",
"296 295 OFFCURVE",
"369 262 OFFCURVE",
"394 241 CURVE SMOOTH",
"470 182 OFFCURVE",
"429 91 OFFCURVE",
"345 42 CURVE SMOOTH",
"242 -16 OFFCURVE",
"67 -2 OFFCURVE",
"68 137 CURVE SMOOTH",
"68 187 OFFCURVE",
"81 245 OFFCURVE",
"122 278 CURVE SMOOTH",
"140 295 OFFCURVE",
"125 296 OFFCURVE",
"118 292 CURVE SMOOTH",
"67 266 OFFCURVE",
"27 189 OFFCURVE",
"30 137 CURVE SMOOTH",
"40 -31 OFFCURVE",
"247 -45 OFFCURVE",
"374 38 CURVE SMOOTH",
"460 94 OFFCURVE",
"529 200 OFFCURVE",
"425 271 CURVE SMOOTH",
"391 294 OFFCURVE",
"328 321 OFFCURVE",
"304 338 CURVE SMOOTH",
"234 384 OFFCURVE",
"262 444 OFFCURVE",
"322 469 CURVE SMOOTH",
"486 532 OFFCURVE",
"523 396 OFFCURVE",
"460 388 CURVE SMOOTH",
"441 386 OFFCURVE",
"443 371 OFFCURVE",
"458 375 CURVE SMOOTH",
"473 380 OFFCURVE",
"485 386 OFFCURVE",
"493 393 CURVE SMOOTH"
);
},
{
closed = 1;
nodes = (
"119 -240 OFFCURVE",
"148 -217 OFFCURVE",
"151 -210 CURVE SMOOTH",
"221 -83 OFFCURVE",
"386 426 OFFCURVE",
"407 535 CURVE SMOOTH",
"415 574 OFFCURVE",
"449 675 OFFCURVE",
"414 669 CURVE SMOOTH",
"406 668 OFFCURVE",
"397 667 OFFCURVE",
"394 656 CURVE SMOOTH",
"390 637 OFFCURVE",
"391 605 OFFCURVE",
"387 586 CURVE SMOOTH",
"359 409 OFFCURVE",
"228 13 OFFCURVE",
"123 -233 CURVE SMOOTH"
);
}
);
width = 538;
}
);
note = dollar;
unicode = 0024;
},
{
glyphname = percent;
layers = (
{
hints = (
{
horizontal = 1;
place = "{-46, 31}";
type = Stem;
},
{
horizontal = 1;
place = "{19, 7}";
type = Stem;
},
{
horizontal = 1;
place = "{214, 30}";
type = Stem;
},
{
horizontal = 1;
place = "{329, 19}";
type = Stem;
},
{
horizontal = 1;
place = "{378, 15}";
type = Stem;
},
{
horizontal = 1;
place = "{714, -20}";
target = down;
type = TopGhost;
},
{
horizontal = 1;
place = "{721, 16}";
type = Stem;
},
{
horizontal = 1;
place = "{745, 18}";
type = Stem;
},
{
place = "{134, 21}";
type = Stem;
},
{
place = "{335, 44}";
type = Stem;
},
{
place = "{405, 27}";
type = Stem;
},
{
place = "{565, 16}";
type = Stem;
},
{
horizontal = 1;
place = "{711, -20}";
target = down;
type = TopGhost;
},
{
place = "{378, 21}";
type = Stem;
}
);
layerId = "47CF47DF-B93A-4126-8606-39E7B9FB561A";
paths = (
{
closed = 1;
nodes = (
"18 -127 OFFCURVE",
"21 -124 OFFCURVE",
"22 -118 CURVE SMOOTH",
"31 -84 OFFCURVE",
"40 -58 OFFCURVE",
"49 -39 CURVE SMOOTH",
"119 111 OFFCURVE",
"296 311 OFFCURVE",
"580 561 CURVE SMOOTH",
"646 618 OFFCURVE",
"696 660 OFFCURVE",
"729 688 CURVE SMOOTH",
"732 691 OFFCURVE",
"733 695 OFFCURVE",
"733 698 CURVE SMOOTH",
"733 709 OFFCURVE",
"727 714 OFFCURVE",
"714 714 CURVE SMOOTH",
"708 714 LINE",
"701 730 OFFCURVE",
"679 743 OFFCURVE",
"642 752 CURVE SMOOTH",
"613 759 OFFCURVE",
"585 763 OFFCURVE",
"560 763 CURVE SMOOTH",
"527 763 OFFCURVE",
"488 760 OFFCURVE",
"443 754 CURVE SMOOTH",
"404 749 OFFCURVE",
"366 743 OFFCURVE",
"327 737 CURVE",
"289 737 LINE",
"320 726 OFFCURVE",
"335 699 OFFCURVE",
"335 658 CURVE SMOOTH",
"335 621 OFFCURVE",
"323 578 OFFCURVE",
"300 529 CURVE SMOOTH",
"277 481 OFFCURVE",
"250 444 OFFCURVE",
"221 417 CURVE SMOOTH",
"203 401 OFFCURVE",
"188 393 OFFCURVE",
"176 393 CURVE SMOOTH",
"162 393 OFFCURVE",
"155 402 OFFCURVE",
"155 421 CURVE SMOOTH",
"155 449 OFFCURVE",
"175 499 OFFCURVE",
"214 570 CURVE SMOOTH",
"253 641 OFFCURVE",
"273 678 OFFCURVE",
"273 680 CURVE SMOOTH",
"273 689 OFFCURVE",
"266 694 OFFCURVE",
"252 694 CURVE SMOOTH",
"241 694 OFFCURVE",
"225 675 OFFCURVE",
"204 636 CURVE SMOOTH",
"189 611 OFFCURVE",
"177 587 OFFCURVE",
"168 564 CURVE SMOOTH",
"145 510 OFFCURVE",
"134 466 OFFCURVE",
"134 433 CURVE SMOOTH",
"134 396 OFFCURVE",
"148 378 OFFCURVE",
"175 378 CURVE SMOOTH",
"207 378 OFFCURVE",
"243 404 OFFCURVE",
"284 456 CURVE SMOOTH",
"315 496 OFFCURVE",
"340 536 OFFCURVE",
"357 577 CURVE SMOOTH",
"372 612 OFFCURVE",
"379 643 OFFCURVE",
"379 668 CURVE SMOOTH",
"379 693 OFFCURVE",
"371 711 OFFCURVE",
"355 721 CURVE",
"470 737 OFFCURVE",
"541 745 OFFCURVE",
"570 745 CURVE SMOOTH",
"645 745 OFFCURVE",
"687 734 OFFCURVE",
"698 711 CURVE",
"687 708 OFFCURVE",
"678 703 OFFCURVE",
"669 696 CURVE SMOOTH",
"601 639 OFFCURVE",
"551 594 OFFCURVE",
"518 563 CURVE SMOOTH",
"407 458 OFFCURVE",
"306 354 OFFCURVE",
"215 249 CURVE SMOOTH",
"138 159 OFFCURVE",
"81 82 OFFCURVE",
"42 17 CURVE SMOOTH",
"8 -40 OFFCURVE",
"-9 -79 OFFCURVE",
"-9 -101 CURVE SMOOTH",
"-9 -113 OFFCURVE",
"1 -127 OFFCURVE",
"13 -127 CURVE SMOOTH"
);
},
{
closed = 1;
nodes = (
"587 214 OFFCURVE",
"595 216 OFFCURVE",
"604 219 CURVE SMOOTH",
"616 224 OFFCURVE",
"622 228 OFFCURVE",
"622 233 CURVE SMOOTH",
"622 240 OFFCURVE",
"608 244 OFFCURVE",
"579 244 CURVE",
"572 313 OFFCURVE",
"547 348 OFFCURVE",
"502 348 CURVE SMOOTH",
"473 348 OFFCURVE",
"449 333 OFFCURVE",
"430 303 CURVE SMOOTH",
"413 277 OFFCURVE",
"405 249 OFFCURVE",
"405 218 CURVE SMOOTH",
"405 189 OFFCURVE",
"412 160 OFFCURVE",
"425 130 CURVE",
"394 87 OFFCURVE",
"378 45 OFFCURVE",
"378 5 CURVE SMOOTH",
"378 -29 OFFCURVE",
"391 -46 OFFCURVE",
"417 -46 CURVE SMOOTH",
"435 -46 OFFCURVE",
"457 -35 OFFCURVE",
"483 -12 CURVE SMOOTH",
"509 10 OFFCURVE",
"521 21 OFFCURVE",
"519 21 CURVE SMOOTH",
"522 21 OFFCURVE",
"526 19 OFFCURVE",
"529 19 CURVE SMOOTH",
"537 19 OFFCURVE",
"545 21 OFFCURVE",
"553 26 CURVE",
"521 26 LINE",
"561 82 OFFCURVE",
"581 138 OFFCURVE",
"581 195 CURVE SMOOTH",
"581 201 OFFCURVE",
"581 207 OFFCURVE",
"580 214 CURVE"
);
},
{
closed = 1;
nodes = (
"520 230 OFFCURVE",
"477 196 OFFCURVE",
"436 141 CURVE",
"433 151 OFFCURVE",
"432 163 OFFCURVE",
"432 177 CURVE SMOOTH",
"432 208 OFFCURVE",
"438 238 OFFCURVE",
"450 266 CURVE SMOOTH",
"467 308 OFFCURVE",
"487 329 OFFCURVE",
"509 329 CURVE SMOOTH",
"532 329 OFFCURVE",
"550 300 OFFCURVE",
"563 243 CURVE"
);
},
{
closed = 1;
nodes = (
"564 192 OFFCURVE",
"555 160 OFFCURVE",
"538 117 CURVE SMOOTH",
"521 74 OFFCURVE",
"505 46 OFFCURVE",
"490 32 CURVE",
"470 37 OFFCURVE",
"453 64 OFFCURVE",
"438 115 CURVE",
"445 128 OFFCURVE",
"464 148 OFFCURVE",
"495 173 CURVE SMOOTH",
"527 198 OFFCURVE",
"550 212 OFFCURVE",
"565 215 CURVE"
);
},
{
closed = 1;
nodes = (
"461 -1 OFFCURVE",
"439 -15 OFFCURVE",
"420 -15 CURVE SMOOTH",
"406 -15 OFFCURVE",
"399 -3 OFFCURVE",
"399 20 CURVE SMOOTH",
"399 40 OFFCURVE",
"410 69 OFFCURVE",
"431 106 CURVE",
"446 56 OFFCURVE",
"464 29 OFFCURVE",
"486 26 CURVE"
);
}
);
width = 629;
}
);
note = percent;
unicode = 0025;
},
{
glyphname = ampersand;
layers = (
{
hints = (
{
horizontal = 1;
place = "{-242, 14}";
type = Stem;
},
{
horizontal = 1;
place = "{0, 21}";
type = Stem;
},
{
horizontal = 1;
place = "{198, 20}";
type = Stem;
},
{
horizontal = 1;
place = "{351, 36}";
type = Stem;
},
{
horizontal = 1;
place = "{516, 8}";
type = Stem;
},
{
horizontal = 1;
place = "{620, 27}";
type = Stem;
},
{
place = "{52, 30}";
type = Stem;
},
{
place = "{615, 19}";
type = Stem;
},
{
place = "{684, 38}";
type = Stem;
},
{
place = "{15, 64}";
type = Stem;
}
);
layerId = "47CF47DF-B93A-4126-8606-39E7B9FB561A";
paths = (
{
closed = 1;
nodes = (
"506 67 OFFCURVE",
"587 118 OFFCURVE",
"651 191 CURVE SMOOTH",
"698 245 OFFCURVE",
"722 290 OFFCURVE",
"722 325 CURVE SMOOTH",
"722 366 OFFCURVE",
"694 387 OFFCURVE",
"639 387 CURVE SMOOTH",
"585 387 OFFCURVE",
"529 368 OFFCURVE",
"472 329 CURVE",
"490 413 OFFCURVE",
"504 469 OFFCURVE",
"515 496 CURVE",
"550 517 OFFCURVE",
"575 533 OFFCURVE",
"590 545 CURVE SMOOTH",
"619 570 OFFCURVE",
"634 594 OFFCURVE",
"634 617 CURVE SMOOTH",
"634 637 OFFCURVE",
"625 647 OFFCURVE",
"608 647 CURVE SMOOTH",
"593 647 OFFCURVE",
"575 637 OFFCURVE",
"555 616 CURVE SMOOTH",
"542 603 OFFCURVE",
"529 584 OFFCURVE",
"517 558 CURVE SMOOTH",
"511 545 OFFCURVE",
"502 523 OFFCURVE",
"491 492 CURVE",
"426 458 OFFCURVE",
"361 424 OFFCURVE",
"296 389 CURVE SMOOTH",
"223 350 OFFCURVE",
"163 308 OFFCURVE",
"114 263 CURVE",
"93 286 OFFCURVE",
"82 312 OFFCURVE",
"82 343 CURVE SMOOTH",
"82 392 OFFCURVE",
"108 434 OFFCURVE",
"160 469 CURVE SMOOTH",
"206 500 OFFCURVE",
"255 516 OFFCURVE",
"307 516 CURVE SMOOTH",
"322 516 OFFCURVE",
"356 507 OFFCURVE",
"369 507 CURVE SMOOTH",
"370 507 OFFCURVE",
"371 508 OFFCURVE",
"372 510 CURVE",
"372 514 OFFCURVE",
"362 518 OFFCURVE",
"341 521 CURVE SMOOTH",
"325 523 OFFCURVE",
"312 524 OFFCURVE",
"303 524 CURVE SMOOTH",
"246 524 OFFCURVE",
"192 507 OFFCURVE",
"140 474 CURVE SMOOTH",
"81 437 OFFCURVE",
"52 391 OFFCURVE",
"52 338 CURVE SMOOTH",
"52 302 OFFCURVE",
"66 271 OFFCURVE",
"94 245 CURVE",
"41 192 OFFCURVE",
"15 146 OFFCURVE",
"15 106 CURVE SMOOTH",
"15 67 OFFCURVE",
"39 38 OFFCURVE",
"88 20 CURVE SMOOTH",
"123 7 OFFCURVE",
"164 0 OFFCURVE",
"211 0 CURVE SMOOTH",
"258 0 OFFCURVE",
"307 6 OFFCURVE",
"358 19 CURVE",
"297 -146 OFFCURVE",
"228 -228 OFFCURVE",
"152 -228 CURVE SMOOTH",
"113 -228 OFFCURVE",
"90 -211 OFFCURVE",
"85 -177 CURVE",
"84 -174 OFFCURVE",
"83 -173 OFFCURVE",
"81 -173 CURVE SMOOTH",
"78 -173 OFFCURVE",
"77 -174 OFFCURVE",
"77 -177 CURVE SMOOTH",
"77 -198 OFFCURVE",
"87 -214 OFFCURVE",
"106 -227 CURVE SMOOTH",
"122 -237 OFFCURVE",
"141 -242 OFFCURVE",
"164 -242 CURVE SMOOTH",
"269 -242 OFFCURVE",
"351 -149 OFFCURVE",
"408 36 CURVE"
);
},
{
closed = 1;
nodes = (
"612 620 OFFCURVE",
"615 616 OFFCURVE",
"615 609 CURVE SMOOTH",
"615 598 OFFCURVE",
"602 579 OFFCURVE",
"576 554 CURVE SMOOTH",
"555 533 OFFCURVE",
"536 518 OFFCURVE",
"521 509 CURVE",
"542 556 OFFCURVE",
"560 587 OFFCURVE",
"577 602 CURVE SMOOTH",
"590 614 OFFCURVE",
"600 620 OFFCURVE",
"607 620 CURVE SMOOTH"
);
},
{
closed = 1;
nodes = (
"684 267 OFFCURVE",
"663 228 OFFCURVE",
"622 181 CURVE SMOOTH",
"570 122 OFFCURVE",
"500 78 OFFCURVE",
"411 51 CURVE",
"439 168 OFFCURVE",
"458 257 OFFCURVE",
"469 317 CURVE",
"513 340 OFFCURVE",
"557 351 OFFCURVE",
"601 351 CURVE SMOOTH",
"656 351 OFFCURVE",
"684 333 OFFCURVE",
"684 296 CURVE SMOOTH"
);
},
{
closed = 1;
nodes = (
"473 437 OFFCURVE",
"457 380 OFFCURVE",
"440 309 CURVE",
"392 279 OFFCURVE",
"358 259 OFFCURVE",
"337 248 CURVE SMOOTH",
"295 228 OFFCURVE",
"257 218 OFFCURVE",
"222 218 CURVE SMOOTH",
"193 218 OFFCURVE",
"166 226 OFFCURVE",
"141 241 CURVE",
"194 300 OFFCURVE",
"261 354 OFFCURVE",
"342 402 CURVE SMOOTH",
"406 437 OFFCURVE",
"454 463 OFFCURVE",
"487 480 CURVE"
);
},
{
closed = 1;
nodes = (
"407 177 OFFCURVE",
"382 89 OFFCURVE",
"362 35 CURVE",
"323 26 OFFCURVE",
"285 21 OFFCURVE",
"248 21 CURVE SMOOTH",
"206 21 OFFCURVE",
"170 27 OFFCURVE",
"140 39 CURVE SMOOTH",
"99 56 OFFCURVE",
"79 83 OFFCURVE",
"79 119 CURVE SMOOTH",
"79 149 OFFCURVE",
"94 183 OFFCURVE",
"125 222 CURVE",
"153 206 OFFCURVE",
"183 198 OFFCURVE",
"215 198 CURVE SMOOTH",
"279 198 OFFCURVE",
"353 232 OFFCURVE",
"437 299 CURVE"
);
}
);
width = 714;
}
);
note = ampersand;
unicode = 0026;
},
{
glyphname = quotesingle;
layers = (
{
hints = (
{
horizontal = 1;
place = "{303, 196}";
type = Stem;
},
{
place = "{166, 41}";
type = Stem;
}
);
layerId = "47CF47DF-B93A-4126-8606-39E7B9FB561A";
paths = (
{
closed = 1;
nodes = (
"196 493 OFFCURVE",
"187 499 OFFCURVE",
"180 499 CURVE SMOOTH",
"169 499 OFFCURVE",
"160 480 OFFCURVE",
"160 469 CURVE SMOOTH",
"160 462 OFFCURVE",
"166 447 OFFCURVE",
"166 440 CURVE SMOOTH",
"166 416 OFFCURVE",
"156 387 OFFCURVE",
"137 352 CURVE SMOOTH",
"118 318 OFFCURVE",
"108 302 OFFCURVE",
"108 304 CURVE SMOOTH",
"108 303 OFFCURVE",
"108 303 OFFCURVE",
"109 303 CURVE SMOOTH",
"114 303 OFFCURVE",
"126 316 OFFCURVE",
"145 341 CURVE SMOOTH",
"160 360 OFFCURVE",
"171 376 OFFCURVE",
"178 388 CURVE SMOOTH",
"197 420 OFFCURVE",
"207 446 OFFCURVE",
"207 466 CURVE SMOOTH",
"207 472 OFFCURVE",
"206 477 OFFCURVE",
"205 481 CURVE"
);
}
);
width = 198;
}
);
note = quotesingle;
unicode = 0027;
},
{
glyphname = parenleft;
layers = (
{
hints = (
{
horizontal = 1;
place = "{-62, 21}";
type = Stem;
},
{
horizontal = 1;
place = "{618, 10}";
type = Stem;
},
{
place = "{14, 55}";
type = Stem;
}
);
layerId = "47CF47DF-B93A-4126-8606-39E7B9FB561A";
paths = (
{
closed = 1;
nodes = (
"69 143 OFFCURVE",
"73 178 OFFCURVE",
"81 208 CURVE SMOOTH",
"96 264 OFFCURVE",
"119 315 OFFCURVE",
"150 362 CURVE SMOOTH",
"193 429 OFFCURVE",
"251 487 OFFCURVE",
"323 536 CURVE SMOOTH",
"404 591 OFFCURVE",
"480 618 OFFCURVE",
"551 618 CURVE SMOOTH",
"554 618 OFFCURVE",
"556 620 OFFCURVE",
"556 623 CURVE SMOOTH",
"556 626 OFFCURVE",
"554 628 OFFCURVE",
"551 628 CURVE SMOOTH",
"461 628 OFFCURVE",
"372 600 OFFCURVE",
"285 545 CURVE SMOOTH",
"202 492 OFFCURVE",
"136 425 OFFCURVE",
"88 344 CURVE SMOOTH",
"58 294 OFFCURVE",
"37 239 OFFCURVE",
"24 178 CURVE SMOOTH",
"17 149 OFFCURVE",
"14 119 OFFCURVE",
"14 87 CURVE SMOOTH",
"14 -12 OFFCURVE",
"46 -62 OFFCURVE",
"111 -62 CURVE SMOOTH",
"120 -62 OFFCURVE",
"133 -60 OFFCURVE",
"148 -57 CURVE SMOOTH",
"167 -53 OFFCURVE",
"177 -49 OFFCURVE",
"177 -44 CURVE SMOOTH",
"177 -41 OFFCURVE",
"175 -39 OFFCURVE",
"171 -39 CURVE SMOOTH",
"167 -39 OFFCURVE",
"157 -41 OFFCURVE",
"152 -41 CURVE SMOOTH",
"97 -41 OFFCURVE",
"69 7 OFFCURVE",
"69 102 CURVE SMOOTH"
);
}
);
width = 287;
}
);
note = parenleft;
unicode = 0028;
},
{
glyphname = parenright;
layers = (
{
hints = (
{
horizontal = 1;
place = "{-93, 10}";
type = Stem;
},
{
horizontal = 1;
place = "{605, 24}";
type = Stem;
},
{
place = "{404, 54}";
type = Stem;
}
);
layerId = "47CF47DF-B93A-4126-8606-39E7B9FB561A";
paths = (
{
closed = 1;
nodes = (
"458 551 OFFCURVE",
"393 629 OFFCURVE",
"277 629 CURVE SMOOTH",
"251 629 OFFCURVE",
"238 626 OFFCURVE",
"238 620 CURVE SMOOTH",
"238 618 OFFCURVE",
"240 617 OFFCURVE",
"243 616 CURVE",
"268 613 OFFCURVE",
"287 609 OFFCURVE",
"298 605 CURVE SMOOTH",
"369 581 OFFCURVE",
"404 523 OFFCURVE",
"404 431 CURVE SMOOTH",
"404 348 OFFCURVE",
"378 261 OFFCURVE",
"325 171 CURVE SMOOTH",
"273 81 OFFCURVE",
"211 14 OFFCURVE",
"139 -30 CURVE SMOOTH",
"81 -65 OFFCURVE",
"31 -83 OFFCURVE",
"-11 -83 CURVE SMOOTH",
"-22 -83 OFFCURVE",
"-28 -84 OFFCURVE",
"-28 -87 CURVE SMOOTH",
"-28 -91 OFFCURVE",
"-20 -93 OFFCURVE",
"-5 -93 CURVE SMOOTH",
"43 -93 OFFCURVE",
"92 -79 OFFCURVE",
"142 -50 CURVE SMOOTH",
"222 -5 OFFCURVE",
"294 64 OFFCURVE",
"357 156 CURVE SMOOTH",
"424 253 OFFCURVE",
"458 345 OFFCURVE",
"458 432 CURVE SMOOTH"
);
}
);
width = 458;
}
);
note = parenright;
unicode = 0029;
},
{
glyphname = asterisk;
layers = (
{
hints = (
{
horizontal = 1;
place = "{260, 17}";
type = Stem;
},
{
place = "{306, 18}";
type = Stem;
},
{
horizontal = 1;
place = "{257, 28}";
type = Stem;
},
{
place = "{304, 28}";
type = Stem;
}
);
layerId = "47CF47DF-B93A-4126-8606-39E7B9FB561A";
paths = (
{
closed = 1;
nodes = (
"566 265 LINE",
"565 273 OFFCURVE",
"552 289 OFFCURVE",
"545 289 CURVE SMOOTH",
"538 289 OFFCURVE",
"527 288 OFFCURVE",
"514 287 CURVE SMOOTH",
"499 286 OFFCURVE",
"489 285 OFFCURVE",
"484 285 CURVE SMOOTH",
"449 284 OFFCURVE",
"403 282 OFFCURVE",
"346 281 CURVE",
"444 383 LINE",
"490 429 LINE SMOOTH",
"491 430 OFFCURVE",
"492 432 OFFCURVE",
"492 434 CURVE SMOOTH",
"492 437 OFFCURVE",
"491 438 OFFCURVE",
"488 438 CURVE SMOOTH",
"481 438 OFFCURVE",
"427 390 OFFCURVE",
"327 293 CURVE",
"325 399 OFFCURVE",
"324 472 OFFCURVE",
"324 511 CURVE SMOOTH",
"324 516 OFFCURVE",
"322 518 OFFCURVE",
"319 518 CURVE SMOOTH",
"317 518 OFFCURVE",
"316 517 OFFCURVE",
"315 514 CURVE SMOOTH",
"311 503 OFFCURVE",
"308 467 OFFCURVE",
"306 404 CURVE SMOOTH",
"306 391 OFFCURVE",
"305 352 OFFCURVE",
"304 287 CURVE",
"194 395 LINE",
"143 445 LINE",
"141 446 OFFCURVE",
"139 447 OFFCURVE",
"138 447 CURVE SMOOTH",
"135 447 OFFCURVE",
"134 446 OFFCURVE",
"134 443 CURVE SMOOTH",
"134 435 OFFCURVE",
"183 381 OFFCURVE",
"280 280 CURVE",
"177 278 OFFCURVE",
"106 277 OFFCURVE",
"68 277 CURVE SMOOTH",
"63 277 OFFCURVE",
"61 275 OFFCURVE",
"61 272 CURVE SMOOTH",
"61 271 OFFCURVE",
"62 269 OFFCURVE",
"65 268 CURVE SMOOTH",
"76 264 OFFCURVE",
"113 261 OFFCURVE",
"174 260 CURVE SMOOTH",
"184 259 OFFCURVE",
"223 259 OFFCURVE",
"290 258 CURVE",
"183 152 OFFCURVE",
"129 95 OFFCURVE",
"129 87 CURVE SMOOTH",
"129 83 OFFCURVE",
"136 81 OFFCURVE",
"150 81 CURVE SMOOTH",
"155 81 OFFCURVE",
"159 82 OFFCURVE",
"160 83 CURVE SMOOTH",
"172 97 LINE SMOOTH",
"230 160 OFFCURVE",
"274 207 OFFCURVE",
"304 238 CURVE",
"303 129 OFFCURVE",
"305 54 OFFCURVE",
"310 14 CURVE",
"312 13 LINE",
"319 14 OFFCURVE",
"335 27 OFFCURVE",
"335 34 CURVE SMOOTH",
"335 41 OFFCURVE",
"335 51 OFFCURVE",
"334 64 CURVE SMOOTH",
"333 79 OFFCURVE",
"332 90 OFFCURVE",
"332 95 CURVE SMOOTH",
"331 129 OFFCURVE",
"329 174 OFFCURVE",
"328 231 CURVE",
"425 132 OFFCURVE",
"478 83 OFFCURVE",
"485 83 CURVE SMOOTH",
"489 83 OFFCURVE",
"491 90 OFFCURVE",
"491 105 CURVE SMOOTH",
"491 110 OFFCURVE",
"490 113 OFFCURVE",
"489 115 CURVE",
"475 127 LINE SMOOTH",
"412 184 OFFCURVE",
"366 228 OFFCURVE",
"336 257 CURVE",
"448 256 OFFCURVE",
"524 259 OFFCURVE",
"565 264 CURVE"
);
}
);
width = 599;
}
);
note = asterisk;
unicode = 002A;
},
{
glyphname = plus;
layers = (
{
hints = (
{
horizontal = 1;
place = "{215, 20}";
type = Stem;
},
{
place = "{178, 34}";
type = Stem;
},
{
place = "{171, 29}";
type = Stem;
}
);
layerId = "47CF47DF-B93A-4126-8606-39E7B9FB561A";
paths = (
{
closed = 1;
nodes = (
"367 222 OFFCURVE",
"365 223 OFFCURVE",
"362 224 CURVE SMOOTH",
"329 231 OFFCURVE",
"275 234 OFFCURVE",
"200 235 CURVE",
"209 308 OFFCURVE",
"213 362 OFFCURVE",
"212 399 CURVE SMOOTH",
"212 412 LINE",
"210 413 LINE",
"202 413 OFFCURVE",
"178 398 OFFCURVE",
"178 393 CURVE SMOOTH",
"178 330 OFFCURVE",
"176 278 OFFCURVE",
"173 235 CURVE",
"100 235 OFFCURVE",
"48 233 OFFCURVE",
"18 229 CURVE",
"15 227 LINE",
"16 219 OFFCURVE",
"39 203 OFFCURVE",
"48 203 CURVE SMOOTH",
"46 203 OFFCURVE",
"59 204 OFFCURVE",
"86 205 CURVE SMOOTH",
"114 207 OFFCURVE",
"142 209 OFFCURVE",
"171 210 CURVE",
"166 151 OFFCURVE",
"161 107 OFFCURVE",
"158 78 CURVE SMOOTH",
"154 39 OFFCURVE",
"152 18 OFFCURVE",
"152 17 CURVE SMOOTH",
"152 13 OFFCURVE",
"153 11 OFFCURVE",
"156 11 CURVE SMOOTH",
"157 11 OFFCURVE",
"159 12 OFFCURVE",
"160 14 CURVE SMOOTH",
"171 39 OFFCURVE",
"183 104 OFFCURVE",
"197 211 CURVE",
"259 214 OFFCURVE",
"312 215 OFFCURVE",
"356 215 CURVE SMOOTH",
"363 215 OFFCURVE",
"367 217 OFFCURVE",
"367 220 CURVE SMOOTH"
);
}
);
width = 385;
}
);
note = plus;
unicode = 002B;
},
{
glyphname = comma;
lastChange = "2021-09-22 22:14:13 +0000";
layers = (
{
hints = (
{
horizontal = 1;
place = "{-121, 197}";
type = Stem;
},
{
place = "{79, 41}";
type = Stem;
}
);
layerId = "47CF47DF-B93A-4126-8606-39E7B9FB561A";
paths = (
{
closed = 1;
nodes = (
"107 76 OFFCURVE",
"93 76 CURVE SMOOTH",
"82 76 OFFCURVE",
"73 56 OFFCURVE",
"73 45 CURVE SMOOTH",
"73 38 OFFCURVE",
"79 23 OFFCURVE",
"79 16 CURVE SMOOTH",
"79 -13 OFFCURVE",
"48 -94 OFFCURVE",
"25 -112 CURVE",
"25 -118 OFFCURVE",
"29 -122 OFFCURVE",
"30 -122 CURVE SMOOTH",
"35 -122 OFFCURVE",
"43 -112 OFFCURVE",
"62 -87 CURVE SMOOTH",
"81 -63 OFFCURVE",
"120 14 OFFCURVE",
"120 42 CURVE SMOOTH",
"120 61 OFFCURVE"
);
}
);
width = 152;
}
);
note = comma;
unicode = 002C;
},
{
glyphname = hyphen;
layers = (
{
hints = (
{
horizontal = 1;
place = "{178, 20}";
type = Stem;
},
{
place = "{80, 208}";
type = Stem;
}
);
layerId = "47CF47DF-B93A-4126-8606-39E7B9FB561A";
paths = (
{
closed = 1;
nodes = (
"288 185 OFFCURVE",
"287 186 OFFCURVE",
"285 187 CURVE SMOOTH",
"262 194 OFFCURVE",
"227 198 OFFCURVE",
"179 198 CURVE SMOOTH",
"148 198 OFFCURVE",
"116 196 OFFCURVE",
"82 192 CURVE",
"80 190 LINE",
"81 183 OFFCURVE",
"92 168 OFFCURVE",
"99 167 CURVE",
"97 167 OFFCURVE",
"116 169 OFFCURVE",
"157 172 CURVE SMOOTH",
"204 176 OFFCURVE",
"246 178 OFFCURVE",
"282 178 CURVE SMOOTH",
"286 178 OFFCURVE",
"288 180 OFFCURVE",
"288 183 CURVE SMOOTH"
);
}
);
width = 298;
}
);
note = hyphen;
unicode = 002D;
},
{
glyphname = period;
layers = (
{
hints = (
{
horizontal = 1;
place = "{-15, 87}";
type = Stem;
},
{
place = "{42, 80}";
type = Stem;
}
);
layerId = "47CF47DF-B93A-4126-8606-39E7B9FB561A";
paths = (
{
closed = 1;
nodes = (
"121 71 LINE SMOOTH",
"120 72 OFFCURVE",
"120 72 OFFCURVE",
"119 72 CURVE SMOOTH",
"114 72 OFFCURVE",
"103 68 OFFCURVE",
"88 60 CURVE SMOOTH",
"73 52 OFFCURVE",
"64 46 OFFCURVE",
"60 41 CURVE",
"48 36 OFFCURVE",
"42 28 OFFCURVE",
"42 16 CURVE SMOOTH",
"42 5 OFFCURVE",
"52 -15 OFFCURVE",
"63 -15 CURVE SMOOTH",
"76 -15 OFFCURVE",
"86 -4 OFFCURVE",
"93 18 CURVE SMOOTH",
"97 33 OFFCURVE",
"102 44 OFFCURVE",
"107 52 CURVE",
"107 53 OFFCURVE",
"122 69 OFFCURVE",
"122 70 CURVE"
);
}
);
width = 152;
}
);
note = period;
unicode = 002E;
},
{
glyphname = slash;
layers = (
{
hints = (
{
horizontal = 1;
place = "{715, -20}";
target = down;
type = TopGhost;
},
{
place = "{-9, 744}";
type = Stem;
}
);
layerId = "47CF47DF-B93A-4126-8606-39E7B9FB561A";
paths = (
{
closed = 1;
nodes = (
"11 -117 OFFCURVE",
"11 -117 OFFCURVE",
"12 -116 CURVE",
"20 -85 OFFCURVE",
"29 -59 OFFCURVE",
"39 -37 CURVE SMOOTH",
"89 72 OFFCURVE",
"192 204 OFFCURVE",
"347 361 CURVE SMOOTH",
"460 476 OFFCURVE",
"588 590 OFFCURVE",
"730 704 CURVE SMOOTH",
"733 707 OFFCURVE",
"735 709 OFFCURVE",
"735 710 CURVE SMOOTH",
"735 713 OFFCURVE",
"731 715 OFFCURVE",
"722 715 CURVE SMOOTH",
"705 715 OFFCURVE",
"688 709 OFFCURVE",
"669 696 CURVE",
"614 651 OFFCURVE",
"572 615 OFFCURVE",
"543 587 CURVE SMOOTH",
"438 490 OFFCURVE",
"338 388 OFFCURVE",
"245 283 CURVE SMOOTH",
"118 140 OFFCURVE",
"38 28 OFFCURVE",
"4 -55 CURVE SMOOTH",
"-5 -77 OFFCURVE",
"-9 -91 OFFCURVE",
"-9 -97 CURVE SMOOTH",
"-9 -104 OFFCURVE",
"5 -117 OFFCURVE",
"10 -117 CURVE SMOOTH"
);
}
);
width = 446;
}
);
note = slash;
unicode = 002F;
},
{
glyphname = zero;
layers = (
{
hints = (
{
horizontal = 1;
place = "{-54, 42}";
type = Stem;
},
{
horizontal = 1;
place = "{462, 12}";
type = Stem;
},
{
horizontal = 1;
place = "{519, 21}";
type = Stem;
},
{
place = "{39, 16}";
type = Stem;
},
{
place = "{584, 12}";
type = Stem;
},
{
place = "{34, 31}";
type = Stem;
},
{
place = "{274, 96}";
type = Stem;
}
);
layerId = "47CF47DF-B93A-4126-8606-39E7B9FB561A";
paths = (
{
closed = 1;
nodes = (
"596 348 OFFCURVE",
"595 364 OFFCURVE",
"593 378 CURVE SMOOTH",
"586 427 OFFCURVE",
"562 467 OFFCURVE",
"520 497 CURVE SMOOTH",
"481 526 OFFCURVE",
"436 540 OFFCURVE",
"385 540 CURVE SMOOTH",
"262 540 OFFCURVE",
"165 501 OFFCURVE",
"92 424 CURVE SMOOTH",
"53 383 OFFCURVE",
"34 339 OFFCURVE",
"34 290 CURVE SMOOTH",
"34 259 OFFCURVE",
"40 230 OFFCURVE",
"51 205 CURVE",
"43 177 OFFCURVE",
"39 149 OFFCURVE",
"39 120 CURVE SMOOTH",
"39 11 OFFCURVE",
"107 -54 OFFCURVE",
"216 -54 CURVE SMOOTH",
"255 -54 OFFCURVE",
"295 -46 OFFCURVE",
"336 -30 CURVE SMOOTH",
"413 -1 OFFCURVE",
"475 46 OFFCURVE",
"522 110 CURVE SMOOTH",
"571 177 OFFCURVE",
"596 250 OFFCURVE",
"596 330 CURVE SMOOTH"
);
},
{
closed = 1;
nodes = (
"584 275 OFFCURVE",
"558 212 OFFCURVE",
"507 151 CURVE SMOOTH",
"463 98 OFFCURVE",
"407 56 OFFCURVE",
"340 24 CURVE SMOOTH",
"289 0 OFFCURVE",
"241 -12 OFFCURVE",
"196 -12 CURVE SMOOTH",
"109 -12 OFFCURVE",
"55 33 OFFCURVE",
"55 118 CURVE SMOOTH",
"55 127 OFFCURVE",
"60 145 OFFCURVE",
"70 174 CURVE",
"88 155 OFFCURVE",
"106 146 OFFCURVE",
"123 146 CURVE SMOOTH",
"127 146 OFFCURVE",
"129 147 OFFCURVE",
"129 149 CURVE SMOOTH",
"129 151 OFFCURVE",
"125 154 OFFCURVE",
"118 157 CURVE SMOOTH",
"103 165 OFFCURVE",
"90 178 OFFCURVE",
"79 196 CURVE",
"102 248 OFFCURVE",
"141 303 OFFCURVE",
"197 362 CURVE SMOOTH",
"260 429 OFFCURVE",
"315 462 OFFCURVE",
"360 462 CURVE SMOOTH",
"374 462 OFFCURVE",
"381 464 OFFCURVE",
"381 468 CURVE SMOOTH",
"381 472 OFFCURVE",
"374 474 OFFCURVE",
"361 474 CURVE SMOOTH",
"304 474 OFFCURVE",
"239 448 OFFCURVE",
"156 365 CURVE SMOOTH",
"115 324 OFFCURVE",
"86 285 OFFCURVE",
"67 250 CURVE",
"66 253 OFFCURVE",
"65 259 OFFCURVE",
"65 266 CURVE SMOOTH",
"65 296 OFFCURVE",
"71 324 OFFCURVE",
"84 350 CURVE SMOOTH",
"111 405 OFFCURVE",
"153 447 OFFCURVE",
"210 477 CURVE SMOOTH",
"263 505 OFFCURVE",
"321 519 OFFCURVE",
"385 519 CURVE SMOOTH",
"431 519 OFFCURVE",
"473 506 OFFCURVE",
"511 481 CURVE SMOOTH",
"552 454 OFFCURVE",
"576 419 OFFCURVE",
"582 376 CURVE SMOOTH",
"583 365 OFFCURVE",
"584 354 OFFCURVE",
"584 342 CURVE SMOOTH"
);
},
{
closed = 1;
nodes = (
"314 204 OFFCURVE",
"329 216 OFFCURVE",
"345 236 CURVE SMOOTH",
"362 256 OFFCURVE",
"370 273 OFFCURVE",
"370 286 CURVE SMOOTH",
"370 293 OFFCURVE",
"367 297 OFFCURVE",
"360 297 CURVE SMOOTH",
"350 297 OFFCURVE",
"337 290 OFFCURVE",
"321 275 CURVE",
"314 298 OFFCURVE",
"305 309 OFFCURVE",
"294 309 CURVE SMOOTH",
"281 309 OFFCURVE",
"274 296 OFFCURVE",
"274 271 CURVE SMOOTH",
"274 246 OFFCURVE",
"283 222 OFFCURVE",
"301 200 CURVE"
);
}
);
width = 600;
}
);
note = zero;
unicode = 0030;
},
{
glyphname = one;
layers = (
{
hints = (
{
horizontal = 1;
place = "{-1, 21}";
target = up;
type = BottomGhost;
},
{
place = "{143, 45}";
type = Stem;
},
{
place = "{193, 96}";
type = Stem;
},
{
horizontal = 1;
place = "{-45, 23}";
type = Stem;
},
{
horizontal = 1;
place = "{16, 22}";
type = Stem;
}
);
layerId = "47CF47DF-B93A-4126-8606-39E7B9FB561A";
paths = (
{
closed = 1;
nodes = (
"240 163 OFFCURVE",
"253 175 OFFCURVE",
"266 192 CURVE SMOOTH",
"281 210 OFFCURVE",
"289 226 OFFCURVE",
"289 239 CURVE SMOOTH",
"289 246 OFFCURVE",
"286 250 OFFCURVE",
"279 250 CURVE SMOOTH",
"276 250 OFFCURVE",
"274 250 OFFCURVE",
"271 249 CURVE",
"313 323 OFFCURVE",
"372 400 OFFCURVE",
"448 480 CURVE SMOOTH",
"454 486 OFFCURVE",
"457 494 OFFCURVE",
"457 504 CURVE SMOOTH",
"457 519 OFFCURVE",
"450 527 OFFCURVE",
"437 527 CURVE SMOOTH",
"433 527 OFFCURVE",
"429 526 OFFCURVE",
"424 524 CURVE SMOOTH",
"407 516 OFFCURVE",
"391 496 OFFCURVE",
"376 480 CURVE SMOOTH",
"354 457 OFFCURVE",
"327 430 OFFCURVE",
"294 401 CURVE SMOOTH",
"208 327 LINE SMOOTH",
"203 322 OFFCURVE",
"200 319 OFFCURVE",
"200 318 CURVE SMOOTH",
"200 317 OFFCURVE",
"202 316 OFFCURVE",
"207 316 CURVE SMOOTH",
"212 316 OFFCURVE",
"238 335 OFFCURVE",
"283 374 CURVE SMOOTH",
"312 399 OFFCURVE",
"337 416 OFFCURVE",
"358 425 CURVE",
"357 422 OFFCURVE",
"355 419 OFFCURVE",
"352 414 CURVE SMOOTH",
"297 326 LINE",
"239 233 LINE",
"232 253 OFFCURVE",
"223 263 OFFCURVE",
"213 263 CURVE SMOOTH",
"200 263 OFFCURVE",
"193 250 OFFCURVE",
"193 224 CURVE SMOOTH",
"193 208 OFFCURVE",
"197 192 OFFCURVE",
"205 176 CURVE",
"172 115 OFFCURVE",
"152 67 OFFCURVE",
"145 31 CURVE",
"72 18 OFFCURVE",
"23 -4 OFFCURVE",
"-2 -36 CURVE SMOOTH",
"-3 -37 OFFCURVE",
"-4 -39 OFFCURVE",
"-4 -42 CURVE SMOOTH",
"-4 -51 OFFCURVE",
"8 -72 OFFCURVE",
"17 -72 CURVE SMOOTH",
"19 -72 OFFCURVE",
"21 -71 OFFCURVE",
"23 -70 CURVE",
"54 -37 OFFCURVE",
"94 -14 OFFCURVE",
"143 -1 CURVE",
"145 -30 OFFCURVE",
"157 -45 OFFCURVE",
"179 -45 CURVE SMOOTH",
"184 -45 OFFCURVE",
"195 -40 OFFCURVE",
"213 -30 CURVE SMOOTH",
"232 -21 OFFCURVE",
"241 -15 OFFCURVE",
"241 -13 CURVE SMOOTH",
"241 -12 OFFCURVE",
"241 -12 OFFCURVE",
"240 -12 CURVE SMOOTH",
"233 -12 OFFCURVE",
"212 -22 OFFCURVE",
"204 -22 CURVE SMOOTH",
"193 -22 OFFCURVE",
"188 -12 OFFCURVE",
"188 7 CURVE SMOOTH",
"188 10 LINE",
"213 14 OFFCURVE",
"239 16 OFFCURVE",
"266 16 CURVE SMOOTH",
"279 16 OFFCURVE",
"294 15 OFFCURVE",
"309 12 CURVE SMOOTH",
"328 9 OFFCURVE",
"339 7 OFFCURVE",
"340 7 CURVE SMOOTH",
"347 7 OFFCURVE",
"350 9 OFFCURVE",
"350 14 CURVE SMOOTH",
"350 21 OFFCURVE",
"332 27 OFFCURVE",
"297 32 CURVE SMOOTH",
"270 36 OFFCURVE",
"249 38 OFFCURVE",
"232 38 CURVE SMOOTH",
"218 38 OFFCURVE",
"204 38 OFFCURVE",
"191 37 CURVE",
"197 74 OFFCURVE",
"209 114 OFFCURVE",
"226 156 CURVE"
);
}
);
width = 354;
}
);
note = one;
unicode = 0031;
},
{
glyphname = two;
layers = (
{
hints = (
{
horizontal = 1;
place = "{6, 12}";
type = Stem;
},
{
horizontal = 1;
place = "{58, 26}";
type = Stem;
},
{
horizontal = 1;
place = "{486, 15}";
type = Stem;
},
{
place = "{16, 20}";
type = Stem;
},
{
place = "{239, 17}";
type = Stem;
},
{
place = "{373, 95}";
type = Stem;
},
{
place = "{624, 22}";
type = Stem;
},
{
horizontal = 1;
place = "{-67, 45}";
type = Stem;
},
{
horizontal = 1;
place = "{95, 13}";
type = Stem;
},
{
place = "{559, 51}";
type = Stem;
}
);
layerId = "47CF47DF-B93A-4126-8606-39E7B9FB561A";
paths = (
{
closed = 1;
nodes = (
"413 292 OFFCURVE",
"428 304 OFFCURVE",
"444 324 CURVE SMOOTH",
"460 344 OFFCURVE",
"468 361 OFFCURVE",
"468 374 CURVE SMOOTH",
"468 381 OFFCURVE",
"465 385 OFFCURVE",
"458 385 CURVE SMOOTH",
"449 385 OFFCURVE",
"436 378 OFFCURVE",
"420 364 CURVE",
"412 386 OFFCURVE",
"403 397 OFFCURVE",
"393 397 CURVE SMOOTH",
"380 397 OFFCURVE",
"373 384 OFFCURVE",
"373 359 CURVE SMOOTH",
"373 334 OFFCURVE",
"382 310 OFFCURVE",
"400 288 CURVE"
);
},
{
closed = 1;
nodes = (
"646 34 OFFCURVE",
"625 60 OFFCURVE",
"583 81 CURVE SMOOTH",
"547 99 OFFCURVE",
"512 108 OFFCURVE",
"479 108 CURVE SMOOTH",
"473 108 OFFCURVE",
"470 106 OFFCURVE",
"470 101 CURVE SMOOTH",
"470 96 OFFCURVE",
"476 94 OFFCURVE",
"487 95 CURVE SMOOTH",
"488 95 OFFCURVE",
"490 95 OFFCURVE",
"491 96 CURVE",
"496 96 LINE SMOOTH",
"523 95 OFFCURVE",
"551 87 OFFCURVE",
"578 71 CURVE SMOOTH",
"609 52 OFFCURVE",
"624 30 OFFCURVE",
"624 5 CURVE SMOOTH",
"624 -13 OFFCURVE",
"603 -22 OFFCURVE",
"560 -22 CURVE SMOOTH",
"499 -22 OFFCURVE",
"440 -15 OFFCURVE",
"381 -1 CURVE SMOOTH",
"345 8 OFFCURVE",
"288 25 OFFCURVE",
"210 52 CURVE",
"302 94 OFFCURVE",
"383 141 OFFCURVE",
"454 193 CURVE SMOOTH",
"558 270 OFFCURVE",
"610 341 OFFCURVE",
"610 404 CURVE SMOOTH",
"610 437 OFFCURVE",
"596 462 OFFCURVE",
"569 479 CURVE SMOOTH",
"545 494 OFFCURVE",
"516 501 OFFCURVE",
"481 501 CURVE SMOOTH",
"432 501 OFFCURVE",
"382 488 OFFCURVE",
"330 462 CURVE SMOOTH",
"269 431 OFFCURVE",
"239 393 OFFCURVE",
"239 349 CURVE SMOOTH",
"239 342 OFFCURVE",
"241 332 OFFCURVE",
"244 321 CURVE SMOOTH",
"248 307 OFFCURVE",
"253 300 OFFCURVE",
"258 300 CURVE SMOOTH",
"259 300 OFFCURVE",
"260 302 OFFCURVE",
"260 305 CURVE SMOOTH",
"260 312 OFFCURVE",
"256 327 OFFCURVE",
"256 334 CURVE SMOOTH",
"256 379 OFFCURVE",
"283 416 OFFCURVE",
"337 447 CURVE SMOOTH",
"383 473 OFFCURVE",
"430 486 OFFCURVE",
"478 486 CURVE SMOOTH",
"500 486 OFFCURVE",
"518 481 OFFCURVE",
"533 471 CURVE SMOOTH",
"550 459 OFFCURVE",
"559 443 OFFCURVE",
"559 422 CURVE SMOOTH",
"559 362 OFFCURVE",
"514 296 OFFCURVE",
"424 223 CURVE SMOOTH",
"391 199 OFFCURVE",
"365 181 OFFCURVE",
"347 169 CURVE SMOOTH",
"280 125 OFFCURVE",
"222 90 OFFCURVE",
"172 65 CURVE",
"133 78 OFFCURVE",
"101 84 OFFCURVE",
"77 84 CURVE SMOOTH",
"36 84 OFFCURVE",
"16 70 OFFCURVE",
"16 41 CURVE SMOOTH",
"16 18 OFFCURVE",
"31 6 OFFCURVE",
"61 6 CURVE SMOOTH",
"88 6 OFFCURVE",
"126 16 OFFCURVE",
"175 37 CURVE",
"346 -31 LINE SMOOTH",
"409 -55 OFFCURVE",
"470 -67 OFFCURVE",
"528 -67 CURVE SMOOTH",
"553 -67 OFFCURVE",
"577 -61 OFFCURVE",
"602 -50 CURVE SMOOTH",
"631 -35 OFFCURVE",
"646 -17 OFFCURVE",
"646 5 CURVE SMOOTH"
);
},
{
closed = 1;
nodes = (
"123 41 OFFCURVE",
"111 35 OFFCURVE",
"99 29 CURVE SMOOTH",
"85 22 OFFCURVE",
"72 18 OFFCURVE",
"61 18 CURVE SMOOTH",
"44 18 OFFCURVE",
"36 24 OFFCURVE",
"36 35 CURVE SMOOTH",
"36 50 OFFCURVE",
"50 58 OFFCURVE",
"77 58 CURVE SMOOTH",
"85 58 OFFCURVE",
"104 55 OFFCURVE",
"135 48 CURVE"
);
}
);
width = 647;
}
);
note = two;
unicode = 0032;
},
{
glyphname = three;
layers = (
{
hints = (
{
horizontal = 1;
place = "{-57, 13}";
type = Stem;
},
{
horizontal = 1;
place = "{141, 17}";
type = Stem;
},
{
horizontal = 1;
place = "{491, 19}";
type = Stem;
},
{
place = "{2, 38}";
type = Stem;
},
{
place = "{308, 11}";
type = Stem;
},
{
place = "{575, 55}";
type = Stem;
},
{
place = "{617, 27}";
type = Stem;
}
);
layerId = "47CF47DF-B93A-4126-8606-39E7B9FB561A";
paths = (
{
closed = 1;
nodes = (
"307 146 OFFCURVE",
"312 158 OFFCURVE",
"312 169 CURVE SMOOTH",
"312 176 OFFCURVE",
"309 180 OFFCURVE",
"302 180 CURVE SMOOTH",
"292 180 OFFCURVE",
"279 173 OFFCURVE",
"263 159 CURVE",
"256 182 OFFCURVE",
"247 193 OFFCURVE",
"236 193 CURVE SMOOTH",
"222 193 OFFCURVE",
"215 179 OFFCURVE",
"216 152 CURVE",
"191 156 OFFCURVE",
"167 158 OFFCURVE",
"145 158 CURVE SMOOTH",
"110 158 OFFCURVE",
"79 152 OFFCURVE",
"53 140 CURVE SMOOTH",
"19 124 OFFCURVE",
"2 101 OFFCURVE",
"2 70 CURVE SMOOTH",
"2 23 OFFCURVE",
"32 -11 OFFCURVE",
"92 -33 CURVE SMOOTH",
"134 -49 OFFCURVE",
"184 -57 OFFCURVE",
"241 -57 CURVE SMOOTH",
"326 -57 OFFCURVE",
"407 -41 OFFCURVE",
"483 -9 CURVE SMOOTH",
"581 32 OFFCURVE",
"630 89 OFFCURVE",
"630 162 CURVE SMOOTH",
"630 231 OFFCURVE",
"574 275 OFFCURVE",
"461 296 CURVE",
"583 319 OFFCURVE",
"644 361 OFFCURVE",
"644 424 CURVE SMOOTH",
"644 455 OFFCURVE",
"624 479 OFFCURVE",
"585 494 CURVE SMOOTH",
"557 505 OFFCURVE",
"524 510 OFFCURVE",
"486 510 CURVE SMOOTH",
"452 510 OFFCURVE",
"417 505 OFFCURVE",
"381 494 CURVE SMOOTH",
"332 479 OFFCURVE",
"308 460 OFFCURVE",
"308 435 CURVE SMOOTH",
"308 427 OFFCURVE",
"310 423 OFFCURVE",
"315 423 CURVE SMOOTH",
"318 423 OFFCURVE",
"319 425 OFFCURVE",
"319 430 CURVE SMOOTH",
"319 451 OFFCURVE",
"341 468 OFFCURVE",
"385 479 CURVE SMOOTH",
"416 487 OFFCURVE",
"448 491 OFFCURVE",
"481 491 CURVE SMOOTH",
"510 491 OFFCURVE",
"537 488 OFFCURVE",
"561 482 CURVE SMOOTH",
"598 473 OFFCURVE",
"617 458 OFFCURVE",
"617 438 CURVE SMOOTH",
"617 410 OFFCURVE",
"590 383 OFFCURVE",
"535 358 CURVE SMOOTH",
"496 340 OFFCURVE",
"457 327 OFFCURVE",
"416 319 CURVE SMOOTH",
"385 314 OFFCURVE",
"362 311 OFFCURVE",
"347 309 CURVE SMOOTH",
"334 306 OFFCURVE",
"328 299 OFFCURVE",
"328 288 CURVE SMOOTH",
"328 279 OFFCURVE",
"333 274 OFFCURVE",
"342 274 CURVE SMOOTH",
"397 274 OFFCURVE",
"445 267 OFFCURVE",
"485 254 CURVE SMOOTH",
"545 235 OFFCURVE",
"575 204 OFFCURVE",
"575 161 CURVE SMOOTH",
"575 96 OFFCURVE",
"530 43 OFFCURVE",
"439 3 CURVE SMOOTH",
"366 -28 OFFCURVE",
"292 -44 OFFCURVE",
"217 -44 CURVE SMOOTH",
"172 -44 OFFCURVE",
"134 -35 OFFCURVE",
"101 -18 CURVE SMOOTH",
"60 3 OFFCURVE",
"40 35 OFFCURVE",
"40 76 CURVE SMOOTH",
"40 99 OFFCURVE",
"53 117 OFFCURVE",
"80 128 CURVE SMOOTH",
"100 137 OFFCURVE",
"123 141 OFFCURVE",
"150 141 CURVE SMOOTH",
"171 141 OFFCURVE",
"194 139 OFFCURVE",
"218 135 CURVE",
"221 116 OFFCURVE",
"230 99 OFFCURVE",
"243 83 CURVE",
"256 88 OFFCURVE",
"271 100 OFFCURVE",
"287 119 CURVE",
"321 110 OFFCURVE",
"361 95 OFFCURVE",
"406 74 CURVE SMOOTH",
"409 73 OFFCURVE",
"412 72 OFFCURVE",
"414 72 CURVE SMOOTH",
"417 72 OFFCURVE",
"418 73 OFFCURVE",
"418 75 CURVE SMOOTH",
"418 86 OFFCURVE",
"377 104 OFFCURVE",
"296 131 CURVE"
);
}
);
width = 652;
}
);
note = three;
unicode = 0033;
},
{
glyphname = four;
layers = (
{
hints = (
{
horizontal = 1;
place = "{119, 43}";
type = Stem;
},
{
horizontal = 1;
place = "{214, 12}";
type = Stem;
},
{
place = "{-2, 14}";
type = Stem;
},
{
place = "{296, 27}";
type = Stem;
},
{
place = "{671, 26}";
type = Stem;
},
{
horizontal = 1;
place = "{-105, 11}";
type = Stem;
},
{
horizontal = 1;
place = "{173, 18}";
type = Stem;
}
);
layerId = "47CF47DF-B93A-4126-8606-39E7B9FB561A";
paths = (
{
closed = 1;
nodes = (
"697 234 OFFCURVE",
"683 254 OFFCURVE",
"656 269 CURVE SMOOTH",
"635 280 OFFCURVE",
"610 287 OFFCURVE",
"579 289 CURVE SMOOTH",
"576 289 LINE SMOOTH",
"572 290 OFFCURVE",
"570 289 OFFCURVE",
"570 286 CURVE SMOOTH",
"570 284 OFFCURVE",
"587 277 OFFCURVE",
"620 266 CURVE SMOOTH",
"654 255 OFFCURVE",
"671 241 OFFCURVE",
"671 223 CURVE SMOOTH",
"671 202 OFFCURVE",
"651 185 OFFCURVE",
"610 174 CURVE SMOOTH",
"581 166 OFFCURVE",
"552 162 OFFCURVE",
"522 162 CURVE SMOOTH",
"479 162 OFFCURVE",
"431 165 OFFCURVE",
"376 171 CURVE",
"405 228 OFFCURVE",
"441 287 OFFCURVE",
"485 347 CURVE SMOOTH",
"535 414 OFFCURVE",
"582 465 OFFCURVE",
"625 498 CURVE",
"649 513 LINE SMOOTH",
"660 520 OFFCURVE",
"665 527 OFFCURVE",
"665 533 CURVE SMOOTH",
"665 546 OFFCURVE",
"659 553 OFFCURVE",
"647 553 CURVE SMOOTH",
"642 553 OFFCURVE",
"636 549 OFFCURVE",
"629 542 CURVE SMOOTH",
"572 477 OFFCURVE",
"479 407 OFFCURVE",
"352 330 CURVE",
"350 333 OFFCURVE",
"347 335 OFFCURVE",
"343 335 CURVE SMOOTH",
"333 335 OFFCURVE",
"320 328 OFFCURVE",
"304 314 CURVE",
"297 337 OFFCURVE",
"288 348 OFFCURVE",
"277 348 CURVE SMOOTH",
"264 348 OFFCURVE",
"257 335 OFFCURVE",
"257 309 CURVE SMOOTH",
"257 298 OFFCURVE",
"259 287 OFFCURVE",
"263 276 CURVE",
"216 247 OFFCURVE",
"175 227 OFFCURVE",
"140 214 CURVE",
"105 222 OFFCURVE",
"76 226 OFFCURVE",
"54 226 CURVE SMOOTH",
"17 226 OFFCURVE",
"-2 218 OFFCURVE",
"-2 201 CURVE SMOOTH",
"-2 182 OFFCURVE",
"12 173 OFFCURVE",
"39 173 CURVE SMOOTH",
"56 173 OFFCURVE",
"84 178 OFFCURVE",
"123 189 CURVE",
"188 170 OFFCURVE",
"256 155 OFFCURVE",
"329 142 CURVE",
"307 85 OFFCURVE",
"296 35 OFFCURVE",
"296 -8 CURVE SMOOTH",
"296 -29 OFFCURVE",
"300 -49 OFFCURVE",
"307 -68 CURVE SMOOTH",
"316 -93 OFFCURVE",
"329 -105 OFFCURVE",
"346 -105 CURVE SMOOTH",
"356 -105 OFFCURVE",
"361 -101 OFFCURVE",
"361 -94 CURVE SMOOTH",
"361 -95 OFFCURVE",
"355 -87 OFFCURVE",
"342 -68 CURVE SMOOTH",
"329 -50 OFFCURVE",
"323 -29 OFFCURVE",
"323 -6 CURVE SMOOTH",
"323 33 OFFCURVE",
"335 80 OFFCURVE",
"360 137 CURVE",
"433 125 OFFCURVE",
"491 119 OFFCURVE",
"536 119 CURVE SMOOTH",
"575 119 OFFCURVE",
"609 124 OFFCURVE",
"637 135 CURVE SMOOTH",
"677 150 OFFCURVE",
"697 174 OFFCURVE",
"697 207 CURVE SMOOTH"
);
},
{
closed = 1;
nodes = (
"407 302 OFFCURVE",
"371 240 OFFCURVE",
"342 175 CURVE",
"281 183 OFFCURVE",
"222 194 OFFCURVE",
"165 207 CURVE",
"196 219 OFFCURVE",
"231 235 OFFCURVE",
"272 256 CURVE",
"284 238 LINE",
"305 245 OFFCURVE",
"325 264 OFFCURVE",
"342 293 CURVE",
"387 318 OFFCURVE",
"424 341 OFFCURVE",
"451 361 CURVE"
);
},
{
closed = 1;
nodes = (
"80 194 OFFCURVE",
"64 191 OFFCURVE",
"53 191 CURVE SMOOTH",
"26 191 OFFCURVE",
"12 194 OFFCURVE",
"12 200 CURVE SMOOTH",
"12 209 OFFCURVE",
"23 214 OFFCURVE",
"44 214 CURVE SMOOTH",
"61 214 OFFCURVE",
"80 209 OFFCURVE",
"101 200 CURVE"
);
}
);
width = 607;
}
);
note = four;
unicode = 0034;
},
{
glyphname = five;
layers = (
{
hints = (
{
horizontal = 1;
place = "{-86, 22}";
type = Stem;
},
{
horizontal = 1;
place = "{104, 12}";
type = Stem;
},
{
horizontal = 1;
place = "{293, 23}";
type = Stem;
},
{
horizontal = 1;
place = "{409, 42}";
type = Stem;
},
{
horizontal = 1;
place = "{499, 23}";
type = Stem;
},
{
horizontal = 1;
place = "{554, 7}";
type = Stem;
},
{
place = "{-15, 35}";
type = Stem;
},
{
place = "{243, 19}";
type = Stem;
},
{
place = "{390, 96}";
type = Stem;
},
{
place = "{635, 53}";
type = Stem;
},
{
place = "{771, 19}";
type = Stem;
}
);
layerId = "47CF47DF-B93A-4126-8606-39E7B9FB561A";
paths = (
{
closed = 1;
nodes = (
"790 524 OFFCURVE",
"775 544 OFFCURVE",
"746 557 CURVE SMOOTH",
"739 560 OFFCURVE",
"735 561 OFFCURVE",
"734 561 CURVE SMOOTH",
"725 561 OFFCURVE",
"721 559 OFFCURVE",
"721 555 CURVE SMOOTH",
"721 554 OFFCURVE",
"722 554 OFFCURVE",
"723 554 CURVE",
"755 543 OFFCURVE",
"771 524 OFFCURVE",
"771 495 CURVE SMOOTH",
"771 466 OFFCURVE",
"738 451 OFFCURVE",
"673 451 CURVE SMOOTH",
"631 451 OFFCURVE",
"570 463 OFFCURVE",
"491 486 CURVE SMOOTH",
"412 510 OFFCURVE",
"352 522 OFFCURVE",
"311 522 CURVE SMOOTH",
"266 522 OFFCURVE",
"243 511 OFFCURVE",
"243 489 CURVE SMOOTH",
"243 473 OFFCURVE",
"263 453 OFFCURVE",
"278 453 CURVE SMOOTH",
"282 453 OFFCURVE",
"284 455 OFFCURVE",
"284 460 CURVE SMOOTH",
"284 464 OFFCURVE",
"262 477 OFFCURVE",
"262 486 CURVE SMOOTH",
"262 495 OFFCURVE",
"277 499 OFFCURVE",
"307 499 CURVE SMOOTH",
"350 499 OFFCURVE",
"412 484 OFFCURVE",
"493 454 CURVE SMOOTH",
"574 424 OFFCURVE",
"637 409 OFFCURVE",
"680 409 CURVE SMOOTH",
"690 409 OFFCURVE",
"699 409 OFFCURVE",
"707 410 CURVE SMOOTH",
"752 415 OFFCURVE",
"790 450 OFFCURVE",
"790 495 CURVE SMOOTH"
);
},
{
closed = 1;
nodes = (
"430 104 OFFCURVE",
"445 116 OFFCURVE",
"461 136 CURVE SMOOTH",
"478 156 OFFCURVE",
"486 173 OFFCURVE",
"486 186 CURVE SMOOTH",
"486 193 OFFCURVE",
"483 197 OFFCURVE",
"476 197 CURVE SMOOTH",
"466 197 OFFCURVE",
"453 190 OFFCURVE",
"437 176 CURVE",
"429 199 OFFCURVE",
"420 210 OFFCURVE",
"410 210 CURVE SMOOTH",
"397 210 OFFCURVE",
"390 197 OFFCURVE",
"390 171 CURVE SMOOTH",
"390 146 OFFCURVE",
"399 122 OFFCURVE",
"417 100 CURVE"
);
},
{
closed = 1;
nodes = (
"688 251 OFFCURVE",
"670 278 OFFCURVE",
"635 296 CURVE SMOOTH",
"608 309 OFFCURVE",
"573 316 OFFCURVE",
"532 316 CURVE SMOOTH",
"504 316 OFFCURVE",
"470 310 OFFCURVE",
"430 297 CURVE SMOOTH",
"397 287 OFFCURVE",
"363 277 OFFCURVE",
"330 266 CURVE",
"389 363 OFFCURVE",
"419 415 OFFCURVE",
"419 421 CURVE SMOOTH",
"419 430 OFFCURVE",
"412 434 OFFCURVE",
"398 434 CURVE SMOOTH",
"383 434 OFFCURVE",
"372 428 OFFCURVE",
"366 417 CURVE SMOOTH",
"355 392 LINE SMOOTH",
"340 358 OFFCURVE",
"319 322 OFFCURVE",
"290 283 CURVE SMOOTH",
"277 266 OFFCURVE",
"271 255 OFFCURVE",
"271 250 CURVE SMOOTH",
"271 243 OFFCURVE",
"275 240 OFFCURVE",
"284 240 CURVE SMOOTH",
"287 240 OFFCURVE",
"297 243 OFFCURVE",
"314 248 CURVE SMOOTH",
"402 278 OFFCURVE",
"475 293 OFFCURVE",
"532 293 CURVE SMOOTH",
"601 293 OFFCURVE",
"635 271 OFFCURVE",
"635 226 CURVE SMOOTH",
"635 193 OFFCURVE",
"618 158 OFFCURVE",
"583 119 CURVE SMOOTH",
"530 60 OFFCURVE",
"460 14 OFFCURVE",
"375 -19 CURVE SMOOTH",
"296 -49 OFFCURVE",
"214 -64 OFFCURVE",
"129 -64 CURVE SMOOTH",
"72 -64 OFFCURVE",
"37 -51 OFFCURVE",
"22 -26 CURVE SMOOTH",
"21 -24 OFFCURVE",
"20 -21 OFFCURVE",
"20 -18 CURVE SMOOTH",
"20 9 OFFCURVE",
"64 36 OFFCURVE",
"151 65 CURVE SMOOTH",
"228 91 OFFCURVE",
"284 104 OFFCURVE",
"321 104 CURVE SMOOTH",
"334 104 OFFCURVE",
"341 106 OFFCURVE",
"341 109 CURVE SMOOTH",
"341 114 OFFCURVE",
"334 116 OFFCURVE",
"321 116 CURVE SMOOTH",
"263 116 OFFCURVE",
"198 106 OFFCURVE",
"127 87 CURVE SMOOTH",
"32 61 OFFCURVE",
"-15 28 OFFCURVE",
"-15 -12 CURVE SMOOTH",
"-15 -39 OFFCURVE",
"3 -59 OFFCURVE",
"40 -72 CURVE SMOOTH",
"66 -81 OFFCURVE",
"96 -86 OFFCURVE",
"129 -86 CURVE SMOOTH",
"229 -86 OFFCURVE",
"323 -71 OFFCURVE",
"410 -42 CURVE SMOOTH",
"513 -7 OFFCURVE",
"591 44 OFFCURVE",
"645 111 CURVE SMOOTH",
"674 146 OFFCURVE",
"688 181 OFFCURVE",
"688 214 CURVE SMOOTH"
);
}
);
width = 720;
}
);
note = five;
unicode = 0035;
},
{
glyphname = six;
layers = (
{
hints = (
{
horizontal = 1;
place = "{-62, 18}";
type = Stem;
},
{
horizontal = 1;
place = "{201, 28}";
type = Stem;
},
{
place = "{10, 52}";
type = Stem;
},
{
place = "{454, 49}";
type = Stem;
},
{
place = "{47, 27}";
type = Stem;
},
{
place = "{237, 96}";
type = Stem;
}
);
layerId = "47CF47DF-B93A-4126-8606-39E7B9FB561A";
paths = (
{
closed = 1;
nodes = (
"62 104 OFFCURVE",
"99 175 OFFCURVE",
"173 254 CURVE SMOOTH",
"229 313 OFFCURVE",
"294 366 OFFCURVE",
"368 413 CURVE SMOOTH",
"425 449 OFFCURVE",
"476 478 OFFCURVE",
"522 500 CURVE SMOOTH",
"534 506 OFFCURVE",
"540 510 OFFCURVE",
"540 513 CURVE SMOOTH",
"540 514 OFFCURVE",
"539 515 OFFCURVE",
"536 515 CURVE SMOOTH",
"532 515 OFFCURVE",
"527 514 OFFCURVE",
"521 512 CURVE SMOOTH",
"414 471 OFFCURVE",
"307 407 OFFCURVE",
"202 322 CURVE SMOOTH",
"74 219 OFFCURVE",
"10 125 OFFCURVE",
"10 40 CURVE SMOOTH",
"10 5 OFFCURVE",
"24 -21 OFFCURVE",
"53 -38 CURVE",
"49 -51 OFFCURVE",
"47 -64 OFFCURVE",
"47 -76 CURVE SMOOTH",
"47 -113 OFFCURVE",
"75 -151 OFFCURVE",
"110 -170 CURVE SMOOTH",
"118 -174 OFFCURVE",
"123 -176 OFFCURVE",
"126 -176 CURVE SMOOTH",
"128 -176 OFFCURVE",
"129 -175 OFFCURVE",
"129 -174 CURVE SMOOTH",
"129 -171 OFFCURVE",
"124 -165 OFFCURVE",
"114 -158 CURVE SMOOTH",
"102 -148 OFFCURVE",
"93 -139 OFFCURVE",
"88 -130 CURVE SMOOTH",
"79 -116 OFFCURVE",
"74 -99 OFFCURVE",
"74 -80 CURVE SMOOTH",
"74 -70 OFFCURVE",
"75 -60 OFFCURVE",
"77 -50 CURVE",
"98 -58 OFFCURVE",
"124 -62 OFFCURVE",
"153 -62 CURVE SMOOTH",
"190 -62 OFFCURVE",
"230 -56 OFFCURVE",
"273 -44 CURVE SMOOTH",
"328 -29 OFFCURVE",
"377 -6 OFFCURVE",
"419 24 CURVE SMOOTH",
"475 63 OFFCURVE",
"503 105 OFFCURVE",
"503 151 CURVE SMOOTH",
"503 203 OFFCURVE",
"471 229 OFFCURVE",
"408 229 CURVE SMOOTH",
"360 229 OFFCURVE",
"310 213 OFFCURVE",
"259 181 CURVE SMOOTH",
"166 124 OFFCURVE",
"102 64 OFFCURVE",
"69 2 CURVE",
"64 13 OFFCURVE",
"62 25 OFFCURVE",
"62 40 CURVE SMOOTH"
);
},
{
closed = 1;
nodes = (
"454 114 OFFCURVE",
"430 77 OFFCURVE",
"382 40 CURVE SMOOTH",
"345 11 OFFCURVE",
"304 -11 OFFCURVE",
"259 -26 CURVE SMOOTH",
"223 -38 OFFCURVE",
"190 -44 OFFCURVE",
"160 -44 CURVE SMOOTH",
"129 -44 OFFCURVE",
"104 -37 OFFCURVE",
"87 -22 CURVE",
"110 34 OFFCURVE",
"151 85 OFFCURVE",
"209 130 CURVE SMOOTH",
"270 177 OFFCURVE",
"329 201 OFFCURVE",
"387 201 CURVE SMOOTH",
"432 201 OFFCURVE",
"454 184 OFFCURVE",
"454 151 CURVE SMOOTH"
);
},
{
closed = 1;
nodes = (
"277 27 OFFCURVE",
"292 39 OFFCURVE",
"308 58 CURVE SMOOTH",
"325 78 OFFCURVE",
"333 95 OFFCURVE",
"333 108 CURVE SMOOTH",
"333 115 OFFCURVE",
"330 119 OFFCURVE",
"323 119 CURVE SMOOTH",
"313 119 OFFCURVE",
"300 112 OFFCURVE",
"284 98 CURVE",
"276 121 OFFCURVE",
"267 132 OFFCURVE",
"257 132 CURVE SMOOTH",
"244 132 OFFCURVE",
"237 119 OFFCURVE",
"237 93 CURVE SMOOTH",
"237 68 OFFCURVE",
"246 44 OFFCURVE",
"264 22 CURVE"
);
}
);
width = 543;
}
);
note = six;
unicode = 0036;
},
{
glyphname = seven;
layers = (
{
hints = (
{
horizontal = 1;
place = "{484, 41}";
type = Stem;
},
{
place = "{52, 47}";
type = Stem;
},
{
place = "{159, 96}";
type = Stem;
},
{
horizontal = 1;
place = "{464, 25}";
type = Stem;
},
{
place = "{32, 25}";
type = Stem;
},
{
horizontal = 1;
place = "{-83, 25}";
type = Stem;
}
);
layerId = "47CF47DF-B93A-4126-8606-39E7B9FB561A";
paths = (
{
closed = 1;
nodes = (
"199 300 OFFCURVE",
"214 312 OFFCURVE",
"230 331 CURVE SMOOTH",
"247 351 OFFCURVE",
"255 368 OFFCURVE",
"255 381 CURVE SMOOTH",
"255 388 OFFCURVE",
"252 392 OFFCURVE",
"245 392 CURVE SMOOTH",
"235 392 OFFCURVE",
"222 385 OFFCURVE",
"206 371 CURVE",
"199 394 OFFCURVE",
"190 405 OFFCURVE",
"179 405 CURVE SMOOTH",
"166 405 OFFCURVE",
"159 392 OFFCURVE",
"159 366 CURVE SMOOTH",
"159 341 OFFCURVE",
"168 317 OFFCURVE",
"186 295 CURVE"
);
},
{
closed = 1;
nodes = (
"542 524 LINE",
"519 501 OFFCURVE",
"481 489 OFFCURVE",
"428 489 CURVE SMOOTH",
"395 489 OFFCURVE",
"330 497 OFFCURVE",
"231 514 CURVE SMOOTH",
"186 521 OFFCURVE",
"154 525 OFFCURVE",
"133 525 CURVE SMOOTH",
"111 525 OFFCURVE",
"91 522 OFFCURVE",
"72 516 CURVE SMOOTH",
"45 508 OFFCURVE",
"32 496 OFFCURVE",
"32 480 CURVE SMOOTH",
"32 466 OFFCURVE",
"45 451 OFFCURVE",
"70 434 CURVE SMOOTH",
"95 418 OFFCURVE",
"114 410 OFFCURVE",
"127 410 CURVE SMOOTH",
"131 410 OFFCURVE",
"133 411 OFFCURVE",
"133 413 CURVE SMOOTH",
"133 416 OFFCURVE",
"129 419 OFFCURVE",
"122 422 CURVE SMOOTH",
"112 426 OFFCURVE",
"100 433 OFFCURVE",
"85 443 CURVE SMOOTH",
"66 456 OFFCURVE",
"57 465 OFFCURVE",
"57 471 CURVE SMOOTH",
"57 480 OFFCURVE",
"69 484 OFFCURVE",
"92 484 CURVE SMOOTH",
"132 484 OFFCURVE",
"208 478 OFFCURVE",
"319 467 CURVE SMOOTH",
"340 465 OFFCURVE",
"358 464 OFFCURVE",
"372 464 CURVE SMOOTH",
"385 464 OFFCURVE",
"422 469 OFFCURVE",
"484 478 CURVE",
"383 406 OFFCURVE",
"311 351 OFFCURVE",
"268 314 CURVE SMOOTH",
"189 245 OFFCURVE",
"132 176 OFFCURVE",
"96 109 CURVE SMOOTH",
"67 54 OFFCURVE",
"52 6 OFFCURVE",
"52 -33 CURVE SMOOTH",
"52 -66 OFFCURVE",
"65 -83 OFFCURVE",
"91 -83 CURVE SMOOTH",
"100 -83 OFFCURVE",
"128 -76 OFFCURVE",
"128 -69 CURVE SMOOTH",
"128 -62 OFFCURVE",
"123 -58 OFFCURVE",
"114 -58 CURVE SMOOTH",
"111 -58 OFFCURVE",
"105 -61 OFFCURVE",
"104 -61 CURVE SMOOTH",
"101 -61 OFFCURVE",
"99 -54 OFFCURVE",
"99 -41 CURVE SMOOTH",
"99 46 OFFCURVE",
"156 149 OFFCURVE",
"271 270 CURVE SMOOTH",
"359 363 OFFCURVE",
"454 442 OFFCURVE",
"556 507 CURVE"
);
}
);
width = 405;
}
);
note = seven;
unicode = 0037;
},
{
glyphname = eight;
layers = (
{
hints = (
{
horizontal = 1;
place = "{-63, 49}";
type = Stem;
},
{
horizontal = 1;
place = "{500, 32}";
type = Stem;
},
{
place = "{6, 40}";
type = Stem;
},
{
place = "{259, 51}";
type = Stem;
},
{
place = "{457, 20}";
type = Stem;
},
{
place = "{666, 21}";
type = Stem;
}
);
layerId = "47CF47DF-B93A-4126-8606-39E7B9FB561A";
paths = (
{
closed = 1;
nodes = (
"149 178 OFFCURVE",
"116 149 OFFCURVE",
"85 120 CURVE SMOOTH",
"32 71 OFFCURVE",
"6 31 OFFCURVE",
"6 0 CURVE SMOOTH",
"6 -42 OFFCURVE",
"46 -63 OFFCURVE",
"126 -63 CURVE SMOOTH",
"189 -63 OFFCURVE",
"255 -50 OFFCURVE",
"323 -23 CURVE SMOOTH",
"404 9 OFFCURVE",
"453 50 OFFCURVE",
"470 99 CURVE SMOOTH",
"475 114 OFFCURVE",
"477 129 OFFCURVE",
"477 145 CURVE SMOOTH",
"477 178 OFFCURVE",
"463 212 OFFCURVE",
"436 247 CURVE SMOOTH",
"423 264 OFFCURVE",
"396 290 OFFCURVE",
"356 326 CURVE",
"392 353 OFFCURVE",
"436 381 OFFCURVE",
"489 412 CURVE SMOOTH",
"627 490 LINE",
"653 481 OFFCURVE",
"666 467 OFFCURVE",
"666 446 CURVE SMOOTH",
"666 442 OFFCURVE",
"664 433 OFFCURVE",
"664 430 CURVE SMOOTH",
"664 423 OFFCURVE",
"668 419 OFFCURVE",
"675 419 CURVE SMOOTH",
"683 419 OFFCURVE",
"687 428 OFFCURVE",
"687 446 CURVE SMOOTH",
"687 470 OFFCURVE",
"675 489 OFFCURVE",
"652 504 CURVE",
"753 561 OFFCURVE",
"848 603 OFFCURVE",
"939 631 CURVE SMOOTH",
"956 636 OFFCURVE",
"964 640 OFFCURVE",
"964 643 CURVE SMOOTH",
"964 644 OFFCURVE",
"962 645 OFFCURVE",
"959 645 CURVE SMOOTH",
"954 645 OFFCURVE",
"948 644 OFFCURVE",
"939 643 CURVE SMOOTH",
"847 628 OFFCURVE",
"741 587 OFFCURVE",
"620 519 CURVE",
"593 528 OFFCURVE",
"560 532 OFFCURVE",
"522 532 CURVE SMOOTH",
"471 532 OFFCURVE",
"419 523 OFFCURVE",
"365 504 CURVE SMOOTH",
"294 479 OFFCURVE",
"259 446 OFFCURVE",
"259 405 CURVE SMOOTH",
"259 383 OFFCURVE",
"281 354 OFFCURVE",
"324 319 CURVE",
"303 304 OFFCURVE",
"283 288 OFFCURVE",
"264 273 CURVE",
"255 275 OFFCURVE",
"242 268 OFFCURVE",
"223 251 CURVE",
"216 274 OFFCURVE",
"207 285 OFFCURVE",
"196 285 CURVE SMOOTH",
"183 285 OFFCURVE",
"176 272 OFFCURVE",
"176 247 CURVE SMOOTH",
"176 234 OFFCURVE",
"179 220 OFFCURVE",
"184 207 CURVE"
);
},
{
closed = 1;
nodes = (
"511 454 OFFCURVE",
"431 400 OFFCURVE",
"347 337 CURVE",
"322 361 OFFCURVE",
"310 381 OFFCURVE",
"310 396 CURVE SMOOTH",
"310 428 OFFCURVE",
"344 454 OFFCURVE",
"413 475 CURVE SMOOTH",
"466 492 OFFCURVE",
"513 500 OFFCURVE",
"556 500 CURVE SMOOTH",
"567 500 OFFCURVE",
"577 500 OFFCURVE",
"586 499 CURVE"
);
},
{
closed = 1;
nodes = (
"457 138 OFFCURVE",
"455 125 OFFCURVE",
"451 112 CURVE SMOOTH",
"439 76 OFFCURVE",
"392 45 OFFCURVE",
"309 19 CURVE SMOOTH",
"240 -3 OFFCURVE",
"179 -14 OFFCURVE",
"128 -14 CURVE SMOOTH",
"73 -14 OFFCURVE",
"46 -2 OFFCURVE",
"46 23 CURVE SMOOTH",
"46 44 OFFCURVE",
"67 75 OFFCURVE",
"110 115 CURVE SMOOTH",
"192 191 LINE",
"203 176 LINE",
"216 181 OFFCURVE",
"231 193 OFFCURVE",
"247 212 CURVE SMOOTH",
"263 231 OFFCURVE",
"271 248 OFFCURVE",
"272 262 CURVE",
"293 279 OFFCURVE",
"313 295 OFFCURVE",
"333 310 CURVE",
"374 277 OFFCURVE",
"401 254 OFFCURVE",
"413 241 CURVE SMOOTH",
"442 210 OFFCURVE",
"457 180 OFFCURVE",
"457 151 CURVE SMOOTH"
);
}
);
width = 592;
}
);
note = eight;
unicode = 0038;
},
{
glyphname = nine;
layers = (
{
hints = (
{
horizontal = 1;
place = "{156, 13}";
type = Stem;
},
{
horizontal = 1;
place = "{535, 21}";
type = Stem;
},
{
place = "{35, 46}";
type = Stem;
},
{
place = "{170, 25}";
type = Stem;
},
{
place = "{663, 19}";
type = Stem;
},
{
place = "{216, 95}";
type = Stem;
}
);
layerId = "47CF47DF-B93A-4126-8606-39E7B9FB561A";
paths = (
{
closed = 1;
nodes = (
"256 293 OFFCURVE",
"271 305 OFFCURVE",
"287 324 CURVE SMOOTH",
"303 344 OFFCURVE",
"311 361 OFFCURVE",
"311 374 CURVE SMOOTH",
"311 381 OFFCURVE",
"308 385 OFFCURVE",
"301 385 CURVE SMOOTH",
"292 385 OFFCURVE",
"279 378 OFFCURVE",
"263 364 CURVE",
"255 387 OFFCURVE",
"246 398 OFFCURVE",
"236 398 CURVE SMOOTH",
"223 398 OFFCURVE",
"216 385 OFFCURVE",
"216 359 CURVE SMOOTH",
"216 334 OFFCURVE",
"225 310 OFFCURVE",
"243 288 CURVE"
);
},
{
closed = 1;
nodes = (
"682 522 OFFCURVE",
"662 537 OFFCURVE",
"621 546 CURVE SMOOTH",
"594 553 OFFCURVE",
"564 556 OFFCURVE",
"531 556 CURVE SMOOTH",
"433 556 OFFCURVE",
"338 535 OFFCURVE",
"246 492 CURVE SMOOTH",
"139 443 OFFCURVE",
"71 377 OFFCURVE",
"42 296 CURVE SMOOTH",
"37 284 OFFCURVE",
"35 271 OFFCURVE",
"35 258 CURVE SMOOTH",
"35 198 OFFCURVE",
"86 156 OFFCURVE",
"146 156 CURVE SMOOTH",
"198 156 OFFCURVE",
"268 197 OFFCURVE",
"357 278 CURVE",
"232 109 OFFCURVE",
"170 -11 OFFCURVE",
"170 -82 CURVE SMOOTH",
"170 -98 OFFCURVE",
"174 -112 OFFCURVE",
"181 -125 CURVE SMOOTH",
"190 -140 OFFCURVE",
"202 -147 OFFCURVE",
"217 -147 CURVE SMOOTH",
"220 -147 OFFCURVE",
"222 -146 OFFCURVE",
"222 -145 CURVE",
"222 -145 OFFCURVE",
"217 -140 OFFCURVE",
"207 -131 CURVE SMOOTH",
"199 -124 OFFCURVE",
"195 -111 OFFCURVE",
"195 -93 CURVE SMOOTH",
"195 -56 OFFCURVE",
"222 5 OFFCURVE",
"276 90 CURVE SMOOTH",
"307 139 OFFCURVE",
"356 209 OFFCURVE",
"425 302 CURVE SMOOTH",
"479 375 OFFCURVE",
"506 415 OFFCURVE",
"506 422 CURVE SMOOTH",
"506 432 OFFCURVE",
"500 437 OFFCURVE",
"488 437 CURVE SMOOTH",
"479 437 OFFCURVE",
"470 432 OFFCURVE",
"460 422 CURVE SMOOTH",
"439 397 OFFCURVE",
"423 377 OFFCURVE",
"413 364 CURVE",
"296 234 OFFCURVE",
"207 169 OFFCURVE",
"145 169 CURVE SMOOTH",
"104 169 OFFCURVE",
"81 204 OFFCURVE",
"81 247 CURVE SMOOTH",
"81 263 OFFCURVE",
"84 279 OFFCURVE",
"89 295 CURVE SMOOTH",
"117 372 OFFCURVE",
"177 432 OFFCURVE",
"268 477 CURVE SMOOTH",
"348 516 OFFCURVE",
"433 535 OFFCURVE",
"523 535 CURVE SMOOTH",
"616 535 OFFCURVE",
"663 521 OFFCURVE",
"663 493 CURVE SMOOTH",
"663 485 OFFCURVE",
"658 476 OFFCURVE",
"649 465 CURVE SMOOTH",
"640 455 OFFCURVE",
"636 449 OFFCURVE",
"636 446 CURVE SMOOTH",
"636 445 OFFCURVE",
"637 444 OFFCURVE",
"638 444 CURVE SMOOTH",
"645 444 OFFCURVE",
"654 452 OFFCURVE",
"665 467 CURVE SMOOTH",
"676 483 OFFCURVE",
"682 494 OFFCURVE",
"682 501 CURVE SMOOTH"
);
}
);
width = 536;
}
);
note = nine;
unicode = 0039;
},
{
glyphname = colon;
layers = (
{
hints = (
{
horizontal = 1;
place = "{-15, 244}";
type = Stem;
},
{
place = "{42, 138}";
type = Stem;
}
);
layerId = "47CF47DF-B93A-4126-8606-39E7B9FB561A";
paths = (
{
closed = 1;
nodes = (
"152 141 OFFCURVE",
"162 152 OFFCURVE",
"169 174 CURVE SMOOTH",
"176 199 OFFCURVE",
"180 215 OFFCURVE",
"180 220 CURVE SMOOTH",
"180 226 OFFCURVE",
"178 229 OFFCURVE",
"175 229 CURVE SMOOTH",
"168 229 OFFCURVE",
"155 218 OFFCURVE",
"136 197 CURVE",
"124 192 OFFCURVE",
"118 184 OFFCURVE",
"118 172 CURVE SMOOTH",
"118 161 OFFCURVE",
"130 141 OFFCURVE",
"139 141 CURVE SMOOTH"
);
},
{
closed = 1;
nodes = (
"121 71 LINE SMOOTH",
"120 72 OFFCURVE",
"120 72 OFFCURVE",
"119 72 CURVE SMOOTH",
"114 72 OFFCURVE",
"103 68 OFFCURVE",
"88 60 CURVE SMOOTH",
"73 52 OFFCURVE",
"64 46 OFFCURVE",
"60 41 CURVE",
"48 36 OFFCURVE",
"42 28 OFFCURVE",
"42 16 CURVE SMOOTH",
"42 5 OFFCURVE",
"52 -15 OFFCURVE",
"63 -15 CURVE SMOOTH",
"76 -15 OFFCURVE",
"86 -4 OFFCURVE",
"93 18 CURVE SMOOTH",
"97 33 OFFCURVE",
"102 44 OFFCURVE",
"107 52 CURVE",
"107 53 OFFCURVE",
"122 69 OFFCURVE",
"122 70 CURVE"
);
}
);
width = 152;
}
);
note = colon;
unicode = 003A;
},
{
glyphname = semicolon;
layers = (
{
hints = (
{
horizontal = 1;
place = "{-146, 375}";
type = Stem;
},
{
place = "{76, 42}";
type = Stem;
}
);
layerId = "47CF47DF-B93A-4126-8606-39E7B9FB561A";
paths = (
{
closed = 1;
nodes = (
"152 141 OFFCURVE",
"162 152 OFFCURVE",
"169 174 CURVE SMOOTH",
"176 199 OFFCURVE",
"180 215 OFFCURVE",
"180 220 CURVE SMOOTH",
"180 226 OFFCURVE",
"178 229 OFFCURVE",
"175 229 CURVE SMOOTH",
"168 229 OFFCURVE",
"155 218 OFFCURVE",
"136 197 CURVE",
"124 192 OFFCURVE",
"118 184 OFFCURVE",
"118 172 CURVE SMOOTH",
"118 161 OFFCURVE",
"130 141 OFFCURVE",
"139 141 CURVE SMOOTH"
);
},
{
closed = 1;
nodes = (
"115 32 LINE",
"106 45 OFFCURVE",
"97 51 OFFCURVE",
"90 51 CURVE SMOOTH",
"81 51 OFFCURVE",
"70 31 OFFCURVE",
"70 20 CURVE SMOOTH",
"70 13 OFFCURVE",
"76 -2 OFFCURVE",
"76 -9 CURVE SMOOTH",
"76 -33 OFFCURVE",
"66 -62 OFFCURVE",
"47 -96 CURVE SMOOTH",
"28 -130 OFFCURVE",
"18 -146 OFFCURVE",
"18 -145 CURVE",
"18 -146 OFFCURVE",
"18 -146 OFFCURVE",
"19 -146 CURVE SMOOTH",
"24 -146 OFFCURVE",
"36 -133 OFFCURVE",
"55 -108 CURVE SMOOTH",
"70 -89 OFFCURVE",
"81 -73 OFFCURVE",
"88 -61 CURVE SMOOTH",
"108 -28 OFFCURVE",
"118 -2 OFFCURVE",
"118 17 CURVE SMOOTH",
"118 23 OFFCURVE",
"117 28 OFFCURVE",
"115 33 CURVE"
);
}
);
width = 152;
}
);
note = semicolon;
unicode = 003B;
},
{
glyphname = less;
layers = (
{
hints = (
{
horizontal = 1;
place = "{136, 306}";
type = Stem;
},
{
place = "{85, 144}";
type = Stem;
}
);
layerId = "47CF47DF-B93A-4126-8606-39E7B9FB561A";
paths = (
{
closed = 1;
nodes = (
"229 440 OFFCURVE",
"227 442 OFFCURVE",
"222 442 CURVE SMOOTH",
"215 442 OFFCURVE",
"209 438 OFFCURVE",
"203 431 CURVE SMOOTH",
"190 415 OFFCURVE",
"168 385 OFFCURVE",
"137 342 CURVE SMOOTH",
"102 292 OFFCURVE",
"85 263 OFFCURVE",
"85 256 CURVE SMOOTH",
"85 253 OFFCURVE",
"86 251 OFFCURVE",
"88 250 CURVE",
"152 199 LINE SMOOTH",
"175 180 OFFCURVE",
"194 160 OFFCURVE",
"209 140 CURVE",
"217 136 LINE",
"224 135 OFFCURVE",
"227 140 OFFCURVE",
"227 149 CURVE SMOOTH",
"227 156 OFFCURVE",
"195 201 OFFCURVE",
"130 283 CURVE",
"196 375 OFFCURVE",
"229 426 OFFCURVE",
"229 436 CURVE SMOOTH"
);
}
);
width = 318;
}
);
note = less;
unicode = 003C;
},
{
glyphname = equal;
layers = (
{
hints = (
{
horizontal = 1;
place = "{76, 20}";
type = Stem;
},
{
horizontal = 1;
place = "{178, 20}";
type = Stem;
},
{
place = "{55, 245}";
type = Stem;
}
);
layerId = "47CF47DF-B93A-4126-8606-39E7B9FB561A";
paths = (
{
closed = 1;
nodes = (
"300 185 OFFCURVE",
"299 186 OFFCURVE",
"297 187 CURVE SMOOTH",
"280 194 OFFCURVE",
"236 198 OFFCURVE",
"165 198 CURVE SMOOTH",
"105 198 OFFCURVE",
"69 196 OFFCURVE",
"56 192 CURVE",
"55 190 LINE",
"56 183 OFFCURVE",
"70 167 OFFCURVE",
"75 167 CURVE SMOOTH",
"100 167 OFFCURVE",
"136 169 OFFCURVE",
"184 172 CURVE SMOOTH",
"233 176 OFFCURVE",
"269 178 OFFCURVE",
"294 178 CURVE SMOOTH",
"298 178 OFFCURVE",
"300 180 OFFCURVE",
"300 184 CURVE SMOOTH"
);
},
{
closed = 1;
nodes = (
"300 82 OFFCURVE",
"299 83 OFFCURVE",
"297 84 CURVE SMOOTH",
"280 92 OFFCURVE",
"236 96 OFFCURVE",
"165 96 CURVE SMOOTH",
"105 96 OFFCURVE",
"69 94 OFFCURVE",
"56 89 CURVE",
"55 87 LINE",
"56 80 OFFCURVE",
"70 64 OFFCURVE",
"75 64 CURVE SMOOTH",
"100 64 OFFCURVE",
"136 66 OFFCURVE",
"184 70 CURVE SMOOTH",
"233 74 OFFCURVE",
"269 76 OFFCURVE",
"294 76 CURVE SMOOTH",
"298 76 OFFCURVE",
"300 78 OFFCURVE",
"300 81 CURVE SMOOTH"
);
}
);
width = 348;
}
);
note = equal;
unicode = 003D;
},
{
glyphname = greater;
layers = (
{
hints = (
{
horizontal = 1;
place = "{129, 306}";
type = Stem;
},
{
place = "{85, 144}";
type = Stem;
}
);
layerId = "47CF47DF-B93A-4126-8606-39E7B9FB561A";
paths = (
{
closed = 1;
nodes = (
"229 318 OFFCURVE",
"228 320 OFFCURVE",
"226 321 CURVE",
"183 354 OFFCURVE",
"134 391 OFFCURVE",
"105 431 CURVE",
"97 435 LINE",
"90 436 OFFCURVE",
"86 431 OFFCURVE",
"86 422 CURVE SMOOTH",
"86 415 OFFCURVE",
"119 371 OFFCURVE",
"184 288 CURVE",
"118 196 OFFCURVE",
"85 145 OFFCURVE",
"85 135 CURVE SMOOTH",
"85 131 OFFCURVE",
"87 129 OFFCURVE",
"91 129 CURVE SMOOTH",
"98 129 OFFCURVE",
"104 133 OFFCURVE",
"110 140 CURVE SMOOTH",
"124 156 OFFCURVE",
"146 186 OFFCURVE",
"176 229 CURVE SMOOTH",
"211 279 OFFCURVE",
"229 308 OFFCURVE",
"229 315 CURVE SMOOTH"
);
}
);
width = 318;
}
);
note = greater;
unicode = 003E;
},
{
glyphname = question;
layers = (
{
hints = (
{
horizontal = 1;
place = "{476, 20}";
type = Stem;
},
{
horizontal = 1;
place = "{715, 10}";
type = Stem;
},
{
place = "{91, 18}";
type = Stem;
},
{
place = "{493, 18}";
type = Stem;
},
{
place = "{71, 37}";
type = Stem;
},
{
place = "{115, 12}";
type = Stem;
}
);
layerId = "47CF47DF-B93A-4126-8606-39E7B9FB561A";
paths = (
{
closed = 1;
nodes = (
"109 232 OFFCURVE",
"179 291 OFFCURVE",
"320 368 CURVE SMOOTH",
"394 408 LINE",
"472 458 OFFCURVE",
"511 516 OFFCURVE",
"511 583 CURVE SMOOTH",
"511 627 OFFCURVE",
"494 662 OFFCURVE",
"459 688 CURVE SMOOTH",
"428 713 OFFCURVE",
"389 725 OFFCURVE",
"344 725 CURVE SMOOTH",
"293 725 OFFCURVE",
"242 710 OFFCURVE",
"191 681 CURVE SMOOTH",
"137 650 OFFCURVE",
"101 612 OFFCURVE",
"83 567 CURVE SMOOTH",
"75 548 OFFCURVE",
"71 533 OFFCURVE",
"71 520 CURVE SMOOTH",
"71 491 OFFCURVE",
"90 476 OFFCURVE",
"128 476 CURVE SMOOTH",
"147 476 OFFCURVE",
"171 480 OFFCURVE",
"199 489 CURVE SMOOTH",
"230 498 OFFCURVE",
"251 509 OFFCURVE",
"263 520 CURVE SMOOTH",
"264 521 OFFCURVE",
"265 523 OFFCURVE",
"265 525 CURVE SMOOTH",
"265 528 OFFCURVE",
"264 530 OFFCURVE",
"263 530 CURVE",
"263 530 OFFCURVE",
"255 527 OFFCURVE",
"240 520 CURVE SMOOTH",
"201 504 OFFCURVE",
"170 496 OFFCURVE",
"147 496 CURVE SMOOTH",
"121 496 OFFCURVE",
"108 507 OFFCURVE",
"108 528 CURVE SMOOTH",
"108 538 OFFCURVE",
"111 551 OFFCURVE",
"118 568 CURVE SMOOTH",
"136 613 OFFCURVE",
"166 648 OFFCURVE",
"207 675 CURVE SMOOTH",
"249 702 OFFCURVE",
"295 715 OFFCURVE",
"344 715 CURVE SMOOTH",
"383 715 OFFCURVE",
"416 706 OFFCURVE",
"444 688 CURVE SMOOTH",
"477 667 OFFCURVE",
"493 638 OFFCURVE",
"493 601 CURVE SMOOTH",
"493 545 OFFCURVE",
"455 492 OFFCURVE",
"378 443 CURVE SMOOTH",
"343 421 OFFCURVE",
"307 399 OFFCURVE",
"272 376 CURVE SMOOTH",
"219 342 OFFCURVE",
"179 311 OFFCURVE",
"150 284 CURVE SMOOTH",
"111 247 OFFCURVE",
"91 215 OFFCURVE",
"91 188 CURVE SMOOTH",
"91 171 OFFCURVE",
"98 157 OFFCURVE",
"113 145 CURVE SMOOTH",
"114 144 OFFCURVE",
"115 144 OFFCURVE",
"115 144 CURVE",
"123 144 OFFCURVE",
"127 148 OFFCURVE",
"127 155 CURVE",
"127 155 OFFCURVE",
"109 171 OFFCURVE",
"109 190 CURVE SMOOTH"
);
},
{
closed = 1;
nodes = (
"121 71 LINE SMOOTH",
"120 72 OFFCURVE",
"120 72 OFFCURVE",
"119 72 CURVE SMOOTH",
"114 72 OFFCURVE",
"103 68 OFFCURVE",
"88 60 CURVE SMOOTH",
"73 52 OFFCURVE",
"64 46 OFFCURVE",
"60 41 CURVE",
"48 36 OFFCURVE",
"42 28 OFFCURVE",
"42 16 CURVE SMOOTH",
"42 5 OFFCURVE",
"52 -15 OFFCURVE",
"63 -15 CURVE SMOOTH",
"76 -15 OFFCURVE",
"86 -4 OFFCURVE",
"93 18 CURVE SMOOTH",
"97 33 OFFCURVE",
"102 44 OFFCURVE",
"107 52 CURVE",
"107 53 OFFCURVE",
"122 69 OFFCURVE",
"122 70 CURVE"
);
}
);
width = 528;
}
);
note = question;
unicode = 003F;
},
{
glyphname = at;
layers = (
{
hints = (
{
horizontal = 1;
place = "{28, 15}";
type = Stem;
},
{
horizontal = 1;
place = "{108, 20}";
type = Stem;
},
{
horizontal = 1;
place = "{532, 23}";
type = Stem;
},
{
horizontal = 1;
place = "{614, 31}";
type = Stem;
},
{
place = "{52, 24}";
type = Stem;
},
{
place = "{183, 29}";
type = Stem;
},
{
place = "{391, 52}";
type = Stem;
},
{
place = "{514, 40}";
type = Stem;
},
{
place = "{697, 23}";
type = Stem;
},
{
place = "{718, 48}";
type = Stem;
},
{
horizontal = 1;
place = "{138, 41}";
type = Stem;
}
);
layerId = "47CF47DF-B93A-4126-8606-39E7B9FB561A";
paths = (
{
closed = 1;
nodes = (
"766 347 OFFCURVE",
"750 386 OFFCURVE",
"718 420 CURVE",
"719 430 OFFCURVE",
"720 440 OFFCURVE",
"720 449 CURVE SMOOTH",
"720 512 OFFCURVE",
"700 560 OFFCURVE",
"659 595 CURVE SMOOTH",
"621 628 OFFCURVE",
"570 645 OFFCURVE",
"507 645 CURVE SMOOTH",
"400 645 OFFCURVE",
"299 609 OFFCURVE",
"204 536 CURVE SMOOTH",
"103 458 OFFCURVE",
"52 367 OFFCURVE",
"52 264 CURVE SMOOTH",
"52 224 OFFCURVE",
"60 186 OFFCURVE",
"76 149 CURVE SMOOTH",
"94 108 OFFCURVE",
"128 77 OFFCURVE",
"179 55 CURVE SMOOTH",
"221 37 OFFCURVE",
"268 28 OFFCURVE",
"319 28 CURVE SMOOTH",
"389 28 OFFCURVE",
"462 44 OFFCURVE",
"538 75 CURVE SMOOTH",
"618 108 OFFCURVE",
"679 150 OFFCURVE",
"721 201 CURVE SMOOTH",
"751 236 OFFCURVE",
"766 270 OFFCURVE",
"766 303 CURVE SMOOTH"
);
},
{
closed = 1;
nodes = (
"718 296 OFFCURVE",
"716 283 OFFCURVE",
"712 271 CURVE SMOOTH",
"688 202 OFFCURVE",
"634 145 OFFCURVE",
"551 102 CURVE SMOOTH",
"476 63 OFFCURVE",
"398 43 OFFCURVE",
"319 43 CURVE SMOOTH",
"250 43 OFFCURVE",
"194 58 OFFCURVE",
"151 88 CURVE SMOOTH",
"101 123 OFFCURVE",
"76 173 OFFCURVE",
"76 239 CURVE SMOOTH",
"76 334 OFFCURVE",
"129 421 OFFCURVE",
"235 501 CURVE SMOOTH",
"334 576 OFFCURVE",
"433 614 OFFCURVE",
"532 614 CURVE SMOOTH",
"622 614 OFFCURVE",
"676 577 OFFCURVE",
"694 504 CURVE SMOOTH",
"696 495 OFFCURVE",
"697 485 OFFCURVE",
"697 476 CURVE SMOOTH",
"697 465 OFFCURVE",
"696 454 OFFCURVE",
"693 442 CURVE",
"671 457 OFFCURVE",
"650 464 OFFCURVE",
"630 464 CURVE SMOOTH",
"619 464 OFFCURVE",
"614 461 OFFCURVE",
"614 456 CURVE SMOOTH",
"614 455 OFFCURVE",
"615 455 OFFCURVE",
"616 454 CURVE",
"645 441 OFFCURVE",
"667 424 OFFCURVE",
"684 403 CURVE",
"676 373 OFFCURVE",
"664 341 OFFCURVE",
"647 307 CURVE SMOOTH",
"628 270 OFFCURVE",
"606 235 OFFCURVE",
"579 200 CURVE SMOOTH",
"541 152 OFFCURVE",
"509 128 OFFCURVE",
"483 128 CURVE SMOOTH",
"456 128 OFFCURVE",
"443 156 OFFCURVE",
"443 211 CURVE SMOOTH",
"443 278 OFFCURVE",
"455 342 OFFCURVE",
"480 403 CURVE",
"529 439 OFFCURVE",
"554 475 OFFCURVE",
"554 512 CURVE SMOOTH",
"554 541 OFFCURVE",
"537 555 OFFCURVE",
"503 555 CURVE SMOOTH",
"476 555 OFFCURVE",
"445 547 OFFCURVE",
"409 530 CURVE SMOOTH",
"353 504 OFFCURVE",
"302 459 OFFCURVE",
"256 395 CURVE SMOOTH",
"207 328 OFFCURVE",
"183 266 OFFCURVE",
"183 207 CURVE SMOOTH",
"183 161 OFFCURVE",
"201 138 OFFCURVE",
"236 138 CURVE SMOOTH",
"293 138 OFFCURVE",
"349 199 OFFCURVE",
"404 320 CURVE",
"395 282 OFFCURVE",
"391 250 OFFCURVE",
"391 224 CURVE SMOOTH",
"391 211 OFFCURVE",
"392 199 OFFCURVE",
"394 189 CURVE SMOOTH",
"402 148 OFFCURVE",
"436 108 OFFCURVE",
"475 108 CURVE SMOOTH",
"518 108 OFFCURVE",
"564 143 OFFCURVE",
"614 214 CURVE SMOOTH",
"654 271 OFFCURVE",
"683 326 OFFCURVE",
"700 379 CURVE",
"712 356 OFFCURVE",
"718 333 OFFCURVE",
"718 309 CURVE SMOOTH"
);
},
{
closed = 1;
nodes = (
"499 459 OFFCURVE",
"501 468 OFFCURVE",
"501 475 CURVE SMOOTH",
"501 483 OFFCURVE",
"498 487 OFFCURVE",
"492 487 CURVE SMOOTH",
"478 487 OFFCURVE",
"463 475 OFFCURVE",
"446 451 CURVE SMOOTH",
"429 428 OFFCURVE",
"420 408 OFFCURVE",
"418 393 CURVE",
"378 370 LINE",
"366 366 OFFCURVE",
"360 362 OFFCURVE",
"360 358 CURVE SMOOTH",
"360 355 OFFCURVE",
"362 353 OFFCURVE",
"366 353 CURVE SMOOTH",
"375 353 OFFCURVE",
"386 355 OFFCURVE",
"399 360 CURVE",
"381 317 OFFCURVE",
"361 280 OFFCURVE",
"338 249 CURVE SMOOTH",
"304 202 OFFCURVE",
"272 179 OFFCURVE",
"241 179 CURVE SMOOTH",
"222 179 OFFCURVE",
"212 189 OFFCURVE",
"212 208 CURVE SMOOTH",
"212 253 OFFCURVE",
"247 319 OFFCURVE",
"317 404 CURVE SMOOTH",
"387 489 OFFCURVE",
"444 532 OFFCURVE",
"488 532 CURVE SMOOTH",
"505 532 OFFCURVE",
"514 522 OFFCURVE",
"514 503 CURVE SMOOTH",
"514 484 OFFCURVE",
"507 466 OFFCURVE",
"494 447 CURVE"
);
}
);
width = 795;
}
);
note = at;
unicode = 0040;
},
{
glyphname = A;
layers = (
{
hints = (
{
horizontal = 1;
place = "{-193, 14}";
type = Stem;
},
{
horizontal = 1;
place = "{-153, 14}";
type = Stem;
},
{
horizontal = 1;
place = "{-128, 10}";
type = Stem;
},
{
horizontal = 1;
place = "{128, 24}";
type = Stem;
},
{
horizontal = 1;
place = "{705, -20}";
target = down;
type = TopGhost;
},
{
place = "{-200, 10}";
type = Stem;
},
{
place = "{-67, 46}";
type = Stem;
},
{
place = "{228, 45}";
type = Stem;
},
{
place = "{474, 7}";
type = Stem;
},
{
place = "{515, 22}";
type = Stem;
},
{
place = "{488, 40}";
type = Stem;
}
);
layerId = "47CF47DF-B93A-4126-8606-39E7B9FB561A";
paths = (
{
closed = 1;
nodes = (
"363 160 OFFCURVE",
"322 158 OFFCURVE",
"299 156 CURVE",
"354 228 OFFCURVE",
"403 302 OFFCURVE",
"445 378 CURVE SMOOTH",
"500 479 OFFCURVE",
"528 558 OFFCURVE",
"528 617 CURVE SMOOTH",
"528 669 OFFCURVE",
"499 705 OFFCURVE",
"447 705 CURVE SMOOTH",
"440 705 OFFCURVE",
"436 703 OFFCURVE",
"436 699 CURVE SMOOTH",
"436 696 OFFCURVE",
"439 694 OFFCURVE",
"445 693 CURVE SMOOTH",
"474 688 OFFCURVE",
"488 670 OFFCURVE",
"488 638 CURVE SMOOTH",
"488 584 OFFCURVE",
"459 502 OFFCURVE",
"400 392 CURVE SMOOTH",
"355 306 OFFCURVE",
"305 226 OFFCURVE",
"252 152 CURVE",
"234 151 OFFCURVE",
"217 149 OFFCURVE",
"202 146 CURVE",
"217 165 OFFCURVE",
"229 183 OFFCURVE",
"239 199 CURVE",
"292 240 OFFCURVE",
"319 269 OFFCURVE",
"319 287 CURVE SMOOTH",
"319 292 OFFCURVE",
"317 294 OFFCURVE",
"313 294 CURVE SMOOTH",
"308 294 OFFCURVE",
"301 292 OFFCURVE",
"291 287 CURVE",
"384 460 OFFCURVE",
"430 572 OFFCURVE",
"430 622 CURVE SMOOTH",
"430 624 OFFCURVE",
"430 625 OFFCURVE",
"429 626 CURVE",
"426 623 OFFCURVE",
"423 618 OFFCURVE",
"420 610 CURVE SMOOTH",
"393 530 OFFCURVE",
"363 454 OFFCURVE",
"328 382 CURVE SMOOTH",
"305 333 OFFCURVE",
"286 299 OFFCURVE",
"273 280 CURVE",
"268 301 OFFCURVE",
"261 312 OFFCURVE",
"251 312 CURVE SMOOTH",
"236 312 OFFCURVE",
"228 291 OFFCURVE",
"228 249 CURVE SMOOTH",
"228 238 OFFCURVE",
"229 223 OFFCURVE",
"231 206 CURVE",
"220 187 OFFCURVE",
"205 167 OFFCURVE",
"188 144 CURVE",
"139 135 OFFCURVE",
"97 124 OFFCURVE",
"62 109 CURVE SMOOTH",
"-24 72 OFFCURVE",
"-67 31 OFFCURVE",
"-67 -16 CURVE SMOOTH",
"-67 -39 OFFCURVE",
"-56 -60 OFFCURVE",
"-34 -81 CURVE",
"-84 -120 OFFCURVE",
"-121 -139 OFFCURVE",
"-146 -139 CURVE SMOOTH",
"-149 -139 OFFCURVE",
"-154 -137 OFFCURVE",
"-157 -137 CURVE SMOOTH",
"-162 -137 OFFCURVE",
"-165 -139 OFFCURVE",
"-165 -144 CURVE SMOOTH",
"-165 -150 OFFCURVE",
"-160 -153 OFFCURVE",
"-150 -153 CURVE SMOOTH",
"-124 -153 OFFCURVE",
"-83 -131 OFFCURVE",
"-27 -87 CURVE",
"-17 -96 OFFCURVE",
"-5 -104 OFFCURVE",
"9 -111 CURVE",
"-51 -156 OFFCURVE",
"-104 -179 OFFCURVE",
"-150 -179 CURVE SMOOTH",
"-177 -179 OFFCURVE",
"-190 -169 OFFCURVE",
"-190 -150 CURVE SMOOTH",
"-190 -144 OFFCURVE",
"-189 -137 OFFCURVE",
"-187 -130 CURVE",
"-196 -137 OFFCURVE",
"-200 -147 OFFCURVE",
"-200 -162 CURVE SMOOTH",
"-200 -183 OFFCURVE",
"-184 -193 OFFCURVE",
"-152 -193 CURVE SMOOTH",
"-102 -193 OFFCURVE",
"-42 -168 OFFCURVE",
"27 -119 CURVE",
"68 -138 OFFCURVE",
"103 -147 OFFCURVE",
"131 -147 CURVE SMOOTH",
"138 -147 OFFCURVE",
"141 -145 OFFCURVE",
"141 -142 CURVE SMOOTH",
"141 -139 OFFCURVE",
"138 -137 OFFCURVE",
"132 -136 CURVE SMOOTH",
"87 -128 OFFCURVE",
"56 -120 OFFCURVE",
"38 -111 CURVE",
"117 -52 OFFCURVE",
"198 30 OFFCURVE",
"283 136 CURVE",
"314 140 OFFCURVE",
"354 143 OFFCURVE",
"404 146 CURVE SMOOTH",
"455 150 OFFCURVE",
"481 149 OFFCURVE",
"481 162 CURVE SMOOTH",
"481 164 OFFCURVE",
"479 165 OFFCURVE",
"475 165 CURVE SMOOTH",
"476 165 OFFCURVE",
"459 164 OFFCURVE",
"421 163 CURVE SMOOTH"
);
},
{
closed = 1;
nodes = (
"712 -88 OFFCURVE",
"677 -118 OFFCURVE",
"646 -118 CURVE SMOOTH",
"622 -118 OFFCURVE",
"601 -97 OFFCURVE",
"583 -56 CURVE SMOOTH",
"553 13 OFFCURVE",
"538 140 OFFCURVE",
"538 323 CURVE SMOOTH",
"538 491 LINE SMOOTH",
"537 506 OFFCURVE",
"533 513 OFFCURVE",
"527 513 CURVE SMOOTH",
"523 513 OFFCURVE",
"521 507 OFFCURVE",
"520 494 CURVE SMOOTH",
"511 393 LINE SMOOTH",
"494 242 OFFCURVE",
"485 148 OFFCURVE",
"485 112 CURVE SMOOTH",
"485 53 OFFCURVE",
"492 7 OFFCURVE",
"507 -26 CURVE SMOOTH",
"518 -51 OFFCURVE",
"537 -75 OFFCURVE",
"563 -96 CURVE SMOOTH",
"589 -117 OFFCURVE",
"615 -128 OFFCURVE",
"640 -128 CURVE SMOOTH",
"657 -128 OFFCURVE",
"673 -123 OFFCURVE",
"689 -114 CURVE SMOOTH",
"701 -107 OFFCURVE",
"714 -93 OFFCURVE",
"728 -74 CURVE SMOOTH",
"742 -55 OFFCURVE",
"749 -40 OFFCURVE",
"750 -27 CURVE"
);
},
{
closed = 1;
nodes = (
"159 29 OFFCURVE",
"88 -48 OFFCURVE",
"21 -102 CURVE",
"8 -93 OFFCURVE",
"-3 -84 OFFCURVE",
"-10 -73 CURVE",
"56 -18 OFFCURVE",
"118 44 OFFCURVE",
"176 114 CURVE",
"195 119 OFFCURVE",
"214 124 OFFCURVE",
"234 128 CURVE"
);
},
{
closed = 1;
nodes = (
"103 42 OFFCURVE",
"45 -17 OFFCURVE",
"-15 -66 CURVE",
"-19 -57 OFFCURVE",
"-21 -47 OFFCURVE",
"-21 -38 CURVE SMOOTH",
"-21 -6 OFFCURVE",
"2 25 OFFCURVE",
"47 55 CURVE SMOOTH",
"79 77 OFFCURVE",
"117 95 OFFCURVE",
"160 109 CURVE"
);
}
);
width = 657;
}
);
note = A;
unicode = 0041;
},
{
glyphname = B;
layers = (
{
hints = (
{
horizontal = 1;
place = "{-93, 21}";
type = Stem;
},
{
horizontal = 1;
place = "{-38, 14}";
type = Stem;
},
{
horizontal = 1;
place = "{56, 9}";
type = Stem;
},
{
horizontal = 1;
place = "{280, 14}";
type = Stem;
},
{
horizontal = 1;
place = "{613, 30}";
type = Stem;
},
{
horizontal = 1;
place = "{692, -20}";
target = down;
type = TopGhost;
},
{
place = "{1, 18}";
type = Stem;
},
{
place = "{85, 49}";
type = Stem;
},
{
place = "{497, 13}";
type = Stem;
},
{
place = "{817, 39}";
type = Stem;
},
{
horizontal = 1;
place = "{587, 16}";
type = Stem;
},
{
horizontal = 1;
place = "{-117, 23}";
type = Stem;
},
{
place = "{379, 88}";
type = Stem;
},
{
place = "{813, 50}";
type = Stem;
}
);
layerId = "47CF47DF-B93A-4126-8606-39E7B9FB561A";
paths = (
{
closed = 1;
nodes = (
"515 587 LINE SMOOTH",
"557 587 OFFCURVE",
"600 583 OFFCURVE",
"643 575 CURVE",
"604 534 OFFCURVE",
"564 471 OFFCURVE",
"521 386 CURVE SMOOTH",
"488 317 OFFCURVE",
"456 248 OFFCURVE",
"424 179 CURVE SMOOTH",
"389 105 OFFCURVE",
"358 53 OFFCURVE",
"331 23 CURVE",
"312 30 OFFCURVE",
"293 37 OFFCURVE",
"274 42 CURVE",
"323 102 OFFCURVE",
"365 175 OFFCURVE",
"402 260 CURVE",
"445 300 OFFCURVE",
"467 329 OFFCURVE",
"467 348 CURVE SMOOTH",
"467 355 OFFCURVE",
"464 358 OFFCURVE",
"459 358 CURVE SMOOTH",
"454 358 OFFCURVE",
"447 355 OFFCURVE",
"438 350 CURVE",
"470 443 OFFCURVE",
"493 522 OFFCURVE",
"507 587 CURVE"
);
},
{
closed = 1;
nodes = (
"518 683 OFFCURVE",
"517 691 OFFCURVE",
"514 692 CURVE",
"506 661 OFFCURVE",
"500 631 OFFCURVE",
"497 603 CURVE",
"426 603 OFFCURVE",
"359 594 OFFCURVE",
"297 576 CURVE SMOOTH",
"222 555 OFFCURVE",
"164 523 OFFCURVE",
"122 480 CURVE SMOOTH",
"97 455 OFFCURVE",
"85 427 OFFCURVE",
"85 398 CURVE SMOOTH",
"85 357 OFFCURVE",
"105 321 OFFCURVE",
"144 288 CURVE SMOOTH",
"180 257 OFFCURVE",
"219 240 OFFCURVE",
"260 237 CURVE",
"263 236 LINE",
"268 236 OFFCURVE",
"270 238 OFFCURVE",
"270 241 CURVE SMOOTH",
"270 243 OFFCURVE",
"268 244 OFFCURVE",
"264 245 CURVE SMOOTH",
"246 249 OFFCURVE",
"233 253 OFFCURVE",
"225 256 CURVE SMOOTH",
"198 267 OFFCURVE",
"177 282 OFFCURVE",
"161 302 CURVE SMOOTH",
"143 324 OFFCURVE",
"134 348 OFFCURVE",
"134 375 CURVE SMOOTH",
"134 408 OFFCURVE",
"147 439 OFFCURVE",
"174 466 CURVE SMOOTH",
"248 542 OFFCURVE",
"354 582 OFFCURVE",
"493 587 CURVE",
"469 470 OFFCURVE",
"445 389 OFFCURVE",
"421 342 CURVE",
"413 363 OFFCURVE",
"404 374 OFFCURVE",
"393 374 CURVE SMOOTH",
"384 374 OFFCURVE",
"379 362 OFFCURVE",
"379 338 CURVE SMOOTH",
"379 321 OFFCURVE",
"384 298 OFFCURVE",
"393 267 CURVE",
"356 177 OFFCURVE",
"313 103 OFFCURVE",
"265 45 CURVE",
"218 58 OFFCURVE",
"177 65 OFFCURVE",
"140 65 CURVE SMOOTH",
"105 65 OFFCURVE",
"75 59 OFFCURVE",
"50 46 CURVE SMOOTH",
"17 30 OFFCURVE",
"1 6 OFFCURVE",
"1 -25 CURVE SMOOTH",
"1 -50 OFFCURVE",
"14 -72 OFFCURVE",
"41 -91 CURVE SMOOTH",
"65 -108 OFFCURVE",
"90 -117 OFFCURVE",
"116 -117 CURVE SMOOTH",
"174 -117 OFFCURVE",
"220 -109 OFFCURVE",
"254 -93 CURVE SMOOTH",
"289 -78 OFFCURVE",
"324 -48 OFFCURVE",
"361 -4 CURVE",
"519 -69 LINE",
"568 -85 OFFCURVE",
"624 -93 OFFCURVE",
"689 -93 CURVE SMOOTH",
"732 -93 OFFCURVE",
"770 -79 OFFCURVE",
"804 -51 CURVE SMOOTH",
"839 -23 OFFCURVE",
"856 12 OFFCURVE",
"856 53 CURVE SMOOTH",
"856 140 OFFCURVE",
"787 216 OFFCURVE",
"649 280 CURVE",
"701 283 OFFCURVE",
"746 295 OFFCURVE",
"785 315 CURVE SMOOTH",
"837 341 OFFCURVE",
"863 377 OFFCURVE",
"863 422 CURVE SMOOTH",
"863 459 OFFCURVE",
"845 492 OFFCURVE",
"808 521 CURVE SMOOTH",
"779 544 OFFCURVE",
"744 562 OFFCURVE",
"702 575 CURVE",
"733 600 OFFCURVE",
"762 613 OFFCURVE",
"789 613 CURVE SMOOTH",
"828 613 OFFCURVE",
"850 598 OFFCURVE",
"854 568 CURVE SMOOTH",
"856 549 OFFCURVE",
"858 540 OFFCURVE",
"861 540 CURVE SMOOTH",
"864 540 OFFCURVE",
"866 545 OFFCURVE",
"866 554 CURVE SMOOTH",
"866 603 OFFCURVE",
"828 643 OFFCURVE",
"779 643 CURVE SMOOTH",
"736 643 OFFCURVE",
"695 624 OFFCURVE",
"655 587 CURVE",
"610 597 OFFCURVE",
"561 602 OFFCURVE",
"510 603 CURVE",
"515 630 OFFCURVE",
"518 652 OFFCURVE",
"518 669 CURVE SMOOTH"
);
},
{
closed = 1;
nodes = (
"587 255 OFFCURVE",
"588 251 OFFCURVE",
"590 250 CURVE SMOOTH",
"617 238 OFFCURVE",
"637 229 OFFCURVE",
"650 224 CURVE",
"761 170 OFFCURVE",
"817 102 OFFCURVE",
"817 20 CURVE SMOOTH",
"817 -41 OFFCURVE",
"772 -72 OFFCURVE",
"682 -72 CURVE SMOOTH",
"635 -72 OFFCURVE",
"582 -63 OFFCURVE",
"524 -44 CURVE SMOOTH",
"373 10 LINE",
"408 51 OFFCURVE",
"444 111 OFFCURVE",
"481 192 CURVE SMOOTH",
"574 396 LINE SMOOTH",
"611 471 OFFCURVE",
"650 527 OFFCURVE",
"689 563 CURVE",
"723 552 OFFCURVE",
"751 536 OFFCURVE",
"774 514 CURVE SMOOTH",
"800 488 OFFCURVE",
"813 459 OFFCURVE",
"813 426 CURVE SMOOTH",
"813 391 OFFCURVE",
"798 361 OFFCURVE",
"767 338 CURVE SMOOTH",
"742 318 OFFCURVE",
"710 305 OFFCURVE",
"671 298 CURVE SMOOTH",
"660 296 OFFCURVE",
"648 295 OFFCURVE",
"636 294 CURVE SMOOTH",
"616 294 LINE",
"597 290 OFFCURVE",
"587 279 OFFCURVE",
"587 260 CURVE SMOOTH"
);
},
{
closed = 1;
nodes = (
"304 -18 OFFCURVE",
"275 -42 OFFCURVE",
"234 -63 CURVE SMOOTH",
"194 -84 OFFCURVE",
"157 -94 OFFCURVE",
"123 -94 CURVE SMOOTH",
"98 -94 OFFCURVE",
"75 -87 OFFCURVE",
"54 -73 CURVE SMOOTH",
"31 -58 OFFCURVE",
"19 -38 OFFCURVE",
"19 -14 CURVE SMOOTH",
"19 11 OFFCURVE",
"33 30 OFFCURVE",
"61 42 CURVE SMOOTH",
"82 51 OFFCURVE",
"106 56 OFFCURVE",
"135 56 CURVE SMOOTH",
"173 56 OFFCURVE",
"214 49 OFFCURVE",
"257 35 CURVE",
"222 -4 OFFCURVE",
"192 -24 OFFCURVE",
"166 -24 CURVE SMOOTH",
"162 -24 OFFCURVE",
"152 -21 OFFCURVE",
"149 -21 CURVE SMOOTH",
"145 -21 OFFCURVE",
"143 -23 OFFCURVE",
"143 -26 CURVE SMOOTH",
"143 -34 OFFCURVE",
"150 -38 OFFCURVE",
"164 -38 CURVE SMOOTH",
"193 -38 OFFCURVE",
"227 -14 OFFCURVE",
"266 33 CURVE",
"287 26 OFFCURVE",
"305 18 OFFCURVE",
"322 9 CURVE"
);
}
);
width = 910;
}
);
note = B;
unicode = 0042;
},
{
glyphname = C;
layers = (
{
hints = (
{
horizontal = 1;
place = "{-97, 39}";
type = Stem;
},
{
horizontal = 1;
place = "{599, 26}";
type = Stem;
},
{
horizontal = 1;
place = "{745, -20}";
target = down;
type = TopGhost;
},
{
place = "{36, 58}";
type = Stem;
},
{
place = "{453, 15}";
type = Stem;
},
{
place = "{716, 33}";
type = Stem;
},
{
horizontal = 1;
place = "{575, 9}";
type = Stem;
},
{
place = "{11, 35}";
type = Stem;
},
{
place = "{447, 14}";
type = Stem;
},
{
place = "{449, 14}";
type = Stem;
}
);
layerId = "47CF47DF-B93A-4126-8606-39E7B9FB561A";
paths = (
{
closed = 1;
nodes = (
"167 -44 OFFCURVE",
"94 33 OFFCURVE",
"94 158 CURVE SMOOTH",
"94 241 OFFCURVE",
"119 322 OFFCURVE",
"169 400 CURVE SMOOTH",
"219 478 OFFCURVE",
"282 534 OFFCURVE",
"357 569 CURVE",
"388 564 OFFCURVE",
"418 558 OFFCURVE",
"447 549 CURVE",
"440 482 OFFCURVE",
"429 411 OFFCURVE",
"414 336 CURVE",
"406 354 OFFCURVE",
"397 363 OFFCURVE",
"388 363 CURVE SMOOTH",
"377 363 OFFCURVE",
"371 352 OFFCURVE",
"371 331 CURVE SMOOTH",
"371 307 OFFCURVE",
"380 284 OFFCURVE",
"398 261 CURVE",
"368 133 OFFCURVE",
"333 27 OFFCURVE",
"292 -56 CURVE"
);
},
{
closed = 1;
nodes = (
"468 695 OFFCURVE",
"465 722 OFFCURVE",
"460 740 CURVE SMOOTH",
"459 743 OFFCURVE",
"458 745 OFFCURVE",
"456 745 CURVE SMOOTH",
"453 745 OFFCURVE",
"451 742 OFFCURVE",
"451 737 CURVE SMOOTH",
"451 724 OFFCURVE",
"453 689 OFFCURVE",
"453 676 CURVE SMOOTH",
"453 657 OFFCURVE",
"453 636 OFFCURVE",
"452 614 CURVE",
"418 606 OFFCURVE",
"385 594 OFFCURVE",
"352 579 CURVE",
"325 582 OFFCURVE",
"302 584 OFFCURVE",
"285 584 CURVE SMOOTH",
"230 584 OFFCURVE",
"176 576 OFFCURVE",
"122 560 CURVE SMOOTH",
"48 537 OFFCURVE",
"11 505 OFFCURVE",
"11 464 CURVE SMOOTH",
"11 455 OFFCURVE",
"13 445 OFFCURVE",
"18 435 CURVE SMOOTH",
"23 422 OFFCURVE",
"30 416 OFFCURVE",
"38 416 CURVE SMOOTH",
"44 416 OFFCURVE",
"47 421 OFFCURVE",
"47 430 CURVE SMOOTH",
"47 438 LINE",
"46 441 OFFCURVE",
"46 444 OFFCURVE",
"46 446 CURVE SMOOTH",
"46 475 OFFCURVE",
"66 502 OFFCURVE",
"107 526 CURVE SMOOTH",
"136 543 OFFCURVE",
"169 556 OFFCURVE",
"207 565 CURVE SMOOTH",
"236 572 OFFCURVE",
"265 575 OFFCURVE",
"292 575 CURVE SMOOTH",
"303 575 OFFCURVE",
"318 574 OFFCURVE",
"337 572 CURVE",
"257 531 OFFCURVE",
"188 469 OFFCURVE",
"129 386 CURVE SMOOTH",
"67 298 OFFCURVE",
"36 212 OFFCURVE",
"36 127 CURVE SMOOTH",
"36 56 OFFCURVE",
"58 0 OFFCURVE",
"101 -39 CURVE SMOOTH",
"142 -76 OFFCURVE",
"198 -95 OFFCURVE",
"271 -97 CURVE",
"239 -152 OFFCURVE",
"207 -186 OFFCURVE",
"175 -199 CURVE SMOOTH",
"155 -206 OFFCURVE",
"145 -204 OFFCURVE",
"145 -212 CURVE SMOOTH",
"145 -217 OFFCURVE",
"148 -219 OFFCURVE",
"155 -219 CURVE SMOOTH",
"195 -219 OFFCURVE",
"237 -178 OFFCURVE",
"282 -97 CURVE",
"367 -96 OFFCURVE",
"455 -73 OFFCURVE",
"545 -28 CURVE SMOOTH",
"639 20 OFFCURVE",
"706 79 OFFCURVE",
"747 149 CURVE SMOOTH",
"750 154 OFFCURVE",
"751 159 OFFCURVE",
"751 164 CURVE SMOOTH",
"751 165 OFFCURVE",
"751 166 OFFCURVE",
"750 167 CURVE",
"749 167 OFFCURVE",
"745 163 OFFCURVE",
"740 155 CURVE SMOOTH",
"699 91 OFFCURVE",
"639 39 OFFCURVE",
"560 0 CURVE SMOOTH",
"484 -39 OFFCURVE",
"407 -58 OFFCURVE",
"329 -58 CURVE SMOOTH",
"320 -58 OFFCURVE",
"311 -58 OFFCURVE",
"302 -57 CURVE",
"342 26 OFFCURVE",
"377 131 OFFCURVE",
"408 256 CURVE",
"421 263 OFFCURVE",
"433 275 OFFCURVE",
"446 292 CURVE SMOOTH",
"459 310 OFFCURVE",
"465 326 OFFCURVE",
"465 339 CURVE SMOOTH",
"465 348 OFFCURVE",
"461 352 OFFCURVE",
"454 352 CURVE SMOOTH",
"447 352 OFFCURVE",
"438 348 OFFCURVE",
"427 339 CURVE",
"442 412 OFFCURVE",
"454 481 OFFCURVE",
"461 545 CURVE",
"504 532 OFFCURVE",
"548 513 OFFCURVE",
"593 489 CURVE SMOOTH",
"614 478 OFFCURVE",
"655 455 OFFCURVE",
"716 418 CURVE SMOOTH",
"723 414 OFFCURVE",
"729 412 OFFCURVE",
"735 412 CURVE SMOOTH",
"745 412 OFFCURVE",
"750 418 OFFCURVE",
"749 429 CURVE SMOOTH",
"749 434 LINE SMOOTH",
"744 557 OFFCURVE",
"670 625 OFFCURVE",
"543 625 CURVE SMOOTH",
"519 625 OFFCURVE",
"494 622 OFFCURVE",
"467 617 CURVE",
"468 632 OFFCURVE",
"468 646 OFFCURVE",
"468 659 CURVE SMOOTH"
);
},
{
closed = 1;
nodes = (
"448 564 LINE",
"374 576 LINE",
"397 585 OFFCURVE",
"423 592 OFFCURVE",
"450 596 CURVE"
);
},
{
closed = 1;
nodes = (
"544 599 OFFCURVE",
"582 592 OFFCURVE",
"619 577 CURVE SMOOTH",
"662 560 OFFCURVE",
"692 536 OFFCURVE",
"709 505 CURVE SMOOTH",
"714 496 OFFCURVE",
"716 488 OFFCURVE",
"716 481 CURVE SMOOTH",
"716 474 OFFCURVE",
"713 470 OFFCURVE",
"708 470 CURVE SMOOTH",
"705 470 OFFCURVE",
"700 472 OFFCURVE",
"695 475 CURVE SMOOTH",
"620 516 OFFCURVE",
"542 544 OFFCURVE",
"462 561 CURVE",
"465 597 LINE",
"478 598 OFFCURVE",
"490 599 OFFCURVE",
"503 599 CURVE SMOOTH"
);
}
);
width = 717;
}
);
note = C;
unicode = 0043;
},
{
glyphname = D;
layers = (
{
hints = (
{
horizontal = 1;
place = "{-57, 17}";
type = Stem;
},
{
horizontal = 1;
place = "{82, 10}";
type = Stem;
},
{
horizontal = 1;
place = "{586, 16}";
type = Stem;
},
{
horizontal = 1;
place = "{656, 28}";
type = Stem;
},
{
place = "{2, 17}";
type = Stem;
},
{
place = "{86, 36}";
type = Stem;
},
{
place = "{496, 14}";
type = Stem;
},
{
place = "{910, 60}";
type = Stem;
},
{
horizontal = 1;
place = "{692, -20}";
target = down;
type = TopGhost;
},
{
horizontal = 1;
place = "{-94, 24}";
type = Stem;
},
{
place = "{379, 88}";
type = Stem;
}
);
layerId = "47CF47DF-B93A-4126-8606-39E7B9FB561A";
paths = (
{
closed = 1;
nodes = (
"548 586 OFFCURVE",
"587 582 OFFCURVE",
"625 575 CURVE",
"594 542 OFFCURVE",
"556 477 OFFCURVE",
"511 380 CURVE SMOOTH",
"413 164 LINE SMOOTH",
"381 98 OFFCURVE",
"353 52 OFFCURVE",
"329 27 CURVE",
"278 48 LINE",
"325 107 OFFCURVE",
"367 178 OFFCURVE",
"402 260 CURVE",
"445 300 OFFCURVE",
"467 329 OFFCURVE",
"467 348 CURVE SMOOTH",
"467 355 OFFCURVE",
"464 358 OFFCURVE",
"459 358 CURVE SMOOTH",
"454 358 OFFCURVE",
"447 355 OFFCURVE",
"438 350 CURVE",
"470 443 OFFCURVE",
"493 521 OFFCURVE",
"507 586 CURVE"
);
},
{
closed = 1;
nodes = (
"518 683 OFFCURVE",
"517 691 OFFCURVE",
"514 692 CURVE",
"506 661 OFFCURVE",
"500 631 OFFCURVE",
"496 602 CURVE",
"329 604 OFFCURVE",
"204 562 OFFCURVE",
"123 477 CURVE SMOOTH",
"98 451 OFFCURVE",
"86 423 OFFCURVE",
"86 393 CURVE SMOOTH",
"86 353 OFFCURVE",
"104 317 OFFCURVE",
"141 285 CURVE SMOOTH",
"175 256 OFFCURVE",
"212 240 OFFCURVE",
"253 237 CURVE",
"255 236 LINE",
"260 236 OFFCURVE",
"262 238 OFFCURVE",
"262 241 CURVE SMOOTH",
"262 243 OFFCURVE",
"260 244 OFFCURVE",
"257 245 CURVE SMOOTH",
"236 250 OFFCURVE",
"221 254 OFFCURVE",
"211 259 CURVE SMOOTH",
"152 284 OFFCURVE",
"122 324 OFFCURVE",
"122 379 CURVE SMOOTH",
"122 410 OFFCURVE",
"135 439 OFFCURVE",
"160 466 CURVE SMOOTH",
"235 545 OFFCURVE",
"346 585 OFFCURVE",
"493 586 CURVE",
"469 470 OFFCURVE",
"445 389 OFFCURVE",
"421 342 CURVE",
"413 363 OFFCURVE",
"404 374 OFFCURVE",
"393 374 CURVE SMOOTH",
"384 374 OFFCURVE",
"379 362 OFFCURVE",
"379 338 CURVE SMOOTH",
"379 322 OFFCURVE",
"384 298 OFFCURVE",
"393 267 CURVE",
"357 181 OFFCURVE",
"316 109 OFFCURVE",
"270 51 CURVE",
"204 78 OFFCURVE",
"152 92 OFFCURVE",
"113 92 CURVE SMOOTH",
"84 92 OFFCURVE",
"60 86 OFFCURVE",
"40 75 CURVE SMOOTH",
"15 62 OFFCURVE",
"2 42 OFFCURVE",
"2 16 CURVE SMOOTH",
"2 -11 OFFCURVE",
"16 -35 OFFCURVE",
"43 -57 CURVE SMOOTH",
"68 -78 OFFCURVE",
"94 -89 OFFCURVE",
"121 -92 CURVE SMOOTH",
"134 -93 OFFCURVE",
"147 -94 OFFCURVE",
"160 -94 CURVE SMOOTH",
"247 -94 OFFCURVE",
"314 -64 OFFCURVE",
"361 -4 CURVE",
"446 -39 OFFCURVE",
"527 -57 OFFCURVE",
"602 -57 CURVE SMOOTH",
"750 -57 OFFCURVE",
"877 15 OFFCURVE",
"938 146 CURVE SMOOTH",
"959 192 OFFCURVE",
"970 240 OFFCURVE",
"970 290 CURVE SMOOTH",
"970 367 OFFCURVE",
"939 433 OFFCURVE",
"877 488 CURVE SMOOTH",
"822 537 OFFCURVE",
"754 569 OFFCURVE",
"674 582 CURVE",
"711 631 OFFCURVE",
"751 656 OFFCURVE",
"795 656 CURVE SMOOTH",
"812 656 OFFCURVE",
"829 651 OFFCURVE",
"846 642 CURVE SMOOTH",
"865 632 OFFCURVE",
"877 619 OFFCURVE",
"881 604 CURVE SMOOTH",
"883 595 OFFCURVE",
"886 591 OFFCURVE",
"889 591 CURVE SMOOTH",
"891 591 OFFCURVE",
"892 592 OFFCURVE",
"892 595 CURVE SMOOTH",
"892 600 OFFCURVE",
"891 608 OFFCURVE",
"888 617 CURVE SMOOTH",
"873 660 OFFCURVE",
"832 684 OFFCURVE",
"787 684 CURVE SMOOTH",
"734 684 OFFCURVE",
"684 652 OFFCURVE",
"635 587 CURVE",
"596 596 OFFCURVE",
"554 601 OFFCURVE",
"510 602 CURVE",
"515 629 OFFCURVE",
"518 652 OFFCURVE",
"518 669 CURVE SMOOTH"
);
},
{
closed = 1;
nodes = (
"734 556 OFFCURVE",
"792 522 OFFCURVE",
"839 466 CURVE SMOOTH",
"886 411 OFFCURVE",
"910 348 OFFCURVE",
"910 279 CURVE SMOOTH",
"910 186 OFFCURVE",
"880 110 OFFCURVE",
"820 50 CURVE SMOOTH",
"760 -10 OFFCURVE",
"684 -40 OFFCURVE",
"592 -40 CURVE SMOOTH",
"524 -40 OFFCURVE",
"451 -24 OFFCURVE",
"372 9 CURVE",
"403 45 OFFCURVE",
"436 98 OFFCURVE",
"472 169 CURVE SMOOTH",
"523 275 OFFCURVE",
"560 355 OFFCURVE",
"583 409 CURVE SMOOTH",
"617 483 OFFCURVE",
"644 536 OFFCURVE",
"665 568 CURVE"
);
},
{
closed = 1;
nodes = (
"305 -12 OFFCURVE",
"278 -32 OFFCURVE",
"241 -48 CURVE SMOOTH",
"207 -63 OFFCURVE",
"174 -70 OFFCURVE",
"141 -70 CURVE SMOOTH",
"113 -70 OFFCURVE",
"86 -62 OFFCURVE",
"61 -45 CURVE SMOOTH",
"33 -26 OFFCURVE",
"19 -3 OFFCURVE",
"19 23 CURVE SMOOTH",
"19 44 OFFCURVE",
"29 59 OFFCURVE",
"49 69 CURVE SMOOTH",
"65 78 OFFCURVE",
"84 82 OFFCURVE",
"106 82 CURVE SMOOTH",
"148 82 OFFCURVE",
"200 68 OFFCURVE",
"262 41 CURVE",
"225 -2 OFFCURVE",
"193 -24 OFFCURVE",
"166 -24 CURVE SMOOTH",
"162 -24 OFFCURVE",
"152 -21 OFFCURVE",
"149 -21 CURVE SMOOTH",
"145 -21 OFFCURVE",
"143 -23 OFFCURVE",
"143 -26 CURVE SMOOTH",
"143 -34 OFFCURVE",
"150 -38 OFFCURVE",
"164 -38 CURVE SMOOTH",
"193 -38 OFFCURVE",
"229 -13 OFFCURVE",
"270 37 CURVE",
"287 30 OFFCURVE",
"304 22 OFFCURVE",
"321 13 CURVE"
);
}
);
width = 983;
}
);
note = D;
unicode = 0044;
},
{
glyphname = E;
layers = (
{
hints = (
{
horizontal = 1;
place = "{-119, 21}";
type = Stem;
},
{
horizontal = 1;
place = "{50, 15}";
type = Stem;
},
{
horizontal = 1;
place = "{273, 26}";
type = Stem;
},
{
horizontal = 1;
place = "{493, 34}";
type = Stem;
},
{
horizontal = 1;
place = "{593, 23}";
type = Stem;
},
{
horizontal = 1;
place = "{662, 20}";
type = Stem;
},
{
place = "{8, 25}";
type = Stem;
},
{
place = "{119, 39}";
type = Stem;
},
{
place = "{484, 13}";
type = Stem;
},
{
place = "{898, 9}";
type = Stem;
},
{
place = "{962, 16}";
type = Stem;
},
{
place = "{1075, 14}";
type = Stem;
},
{
horizontal = 1;
place = "{-142, 53}";
type = Stem;
},
{
horizontal = 1;
place = "{579, 22}";
type = Stem;
},
{
place = "{510, 16}";
type = Stem;
}
);
layerId = "47CF47DF-B93A-4126-8606-39E7B9FB561A";
paths = (
{
closed = 1;
nodes = (
"535 573 OFFCURVE",
"583 564 OFFCURVE",
"641 551 CURVE",
"609 507 OFFCURVE",
"576 452 OFFCURVE",
"542 387 CURVE SMOOTH",
"456 216 LINE SMOOTH",
"407 120 OFFCURVE",
"367 56 OFFCURVE",
"336 23 CURVE",
"315 30 LINE",
"372 121 OFFCURVE",
"414 200 OFFCURVE",
"440 267 CURVE",
"477 302 OFFCURVE",
"495 329 OFFCURVE",
"495 348 CURVE SMOOTH",
"495 357 OFFCURVE",
"492 361 OFFCURVE",
"487 361 CURVE SMOOTH",
"482 361 OFFCURVE",
"475 358 OFFCURVE",
"466 353 CURVE",
"485 429 OFFCURVE",
"495 504 OFFCURVE",
"497 579 CURVE"
);
},
{
closed = 1;
nodes = (
"978 53 OFFCURVE",
"956 96 OFFCURVE",
"913 132 CURVE SMOOTH",
"907 137 OFFCURVE",
"903 139 OFFCURVE",
"901 139 CURVE SMOOTH",
"900 139 OFFCURVE",
"900 139 OFFCURVE",
"900 138 CURVE",
"900 139 OFFCURVE",
"910 122 OFFCURVE",
"931 87 CURVE SMOOTH",
"952 53 OFFCURVE",
"962 24 OFFCURVE",
"962 0 CURVE SMOOTH",
"962 -32 OFFCURVE",
"944 -56 OFFCURVE",
"908 -72 CURVE SMOOTH",
"881 -83 OFFCURVE",
"849 -89 OFFCURVE",
"812 -89 CURVE SMOOTH",
"754 -89 OFFCURVE",
"683 -77 OFFCURVE",
"598 -53 CURVE SMOOTH",
"388 9 LINE",
"427 55 OFFCURVE",
"468 117 OFFCURVE",
"510 194 CURVE",
"517 177 OFFCURVE",
"524 168 OFFCURVE",
"532 168 CURVE",
"532 170 LINE",
"528 178 OFFCURVE",
"526 185 OFFCURVE",
"526 190 CURVE SMOOTH",
"526 223 OFFCURVE",
"564 246 OFFCURVE",
"641 260 CURVE SMOOTH",
"688 269 OFFCURVE",
"739 273 OFFCURVE",
"794 273 CURVE SMOOTH",
"803 273 OFFCURVE",
"815 272 OFFCURVE",
"832 270 CURVE SMOOTH",
"849 268 OFFCURVE",
"862 267 OFFCURVE",
"870 267 CURVE SMOOTH",
"873 267 OFFCURVE",
"875 268 OFFCURVE",
"875 271 CURVE SMOOTH",
"875 272 OFFCURVE",
"873 274 OFFCURVE",
"869 275 CURVE SMOOTH",
"823 291 OFFCURVE",
"761 299 OFFCURVE",
"682 299 CURVE SMOOTH",
"624 299 OFFCURVE",
"582 294 OFFCURVE",
"556 285 CURVE",
"625 428 OFFCURVE",
"669 513 OFFCURVE",
"686 541 CURVE",
"829 509 OFFCURVE",
"925 493 OFFCURVE",
"973 493 CURVE SMOOTH",
"1050 493 OFFCURVE",
"1089 517 OFFCURVE",
"1089 565 CURVE SMOOTH",
"1089 578 OFFCURVE",
"1081 610 OFFCURVE",
"1070 610 CURVE SMOOTH",
"1068 610 OFFCURVE",
"1067 609 OFFCURVE",
"1067 607 CURVE SMOOTH",
"1067 604 OFFCURVE",
"1075 595 OFFCURVE",
"1075 583 CURVE SMOOTH",
"1075 562 OFFCURVE",
"1060 547 OFFCURVE",
"1031 537 CURVE SMOOTH",
"1011 530 OFFCURVE",
"987 527 OFFCURVE",
"960 527 CURVE SMOOTH",
"913 527 OFFCURVE",
"827 539 OFFCURVE",
"701 564 CURVE",
"746 629 OFFCURVE",
"791 662 OFFCURVE",
"836 662 CURVE SMOOTH",
"852 662 OFFCURVE",
"866 659 OFFCURVE",
"878 652 CURVE SMOOTH",
"891 643 OFFCURVE",
"898 631 OFFCURVE",
"898 616 CURVE SMOOTH",
"898 609 OFFCURVE",
"899 606 OFFCURVE",
"902 606 CURVE SMOOTH",
"905 606 OFFCURVE",
"907 610 OFFCURVE",
"907 618 CURVE SMOOTH",
"907 661 OFFCURVE",
"881 682 OFFCURVE",
"830 682 CURVE SMOOTH",
"772 682 OFFCURVE",
"714 645 OFFCURVE",
"657 572 CURVE",
"590 585 OFFCURVE",
"536 595 OFFCURVE",
"497 601 CURVE",
"497 626 OFFCURVE",
"495 645 OFFCURVE",
"490 659 CURVE",
"487 661 LINE",
"486 661 OFFCURVE",
"485 659 OFFCURVE",
"485 655 CURVE SMOOTH",
"485 648 LINE",
"486 645 OFFCURVE",
"486 643 OFFCURVE",
"486 641 CURVE SMOOTH",
"486 628 OFFCURVE",
"486 615 OFFCURVE",
"485 602 CURVE",
"424 611 OFFCURVE",
"372 616 OFFCURVE",
"329 616 CURVE SMOOTH",
"308 616 OFFCURVE",
"290 615 OFFCURVE",
"273 613 CURVE SMOOTH",
"230 608 OFFCURVE",
"195 596 OFFCURVE",
"168 576 CURVE SMOOTH",
"135 553 OFFCURVE",
"119 521 OFFCURVE",
"119 481 CURVE SMOOTH",
"119 411 OFFCURVE",
"163 351 OFFCURVE",
"252 300 CURVE SMOOTH",
"254 299 OFFCURVE",
"256 298 OFFCURVE",
"258 298 CURVE SMOOTH",
"261 298 OFFCURVE",
"262 299 OFFCURVE",
"262 301 CURVE SMOOTH",
"262 303 OFFCURVE",
"260 305 OFFCURVE",
"257 306 CURVE",
"191 353 OFFCURVE",
"158 405 OFFCURVE",
"158 462 CURVE SMOOTH",
"158 524 OFFCURVE",
"191 564 OFFCURVE",
"256 583 CURVE SMOOTH",
"281 590 OFFCURVE",
"311 593 OFFCURVE",
"348 593 CURVE SMOOTH",
"386 593 OFFCURVE",
"431 589 OFFCURVE",
"484 581 CURVE",
"479 466 OFFCURVE",
"467 387 OFFCURVE",
"450 345 CURVE",
"439 366 OFFCURVE",
"429 376 OFFCURVE",
"419 376 CURVE SMOOTH",
"412 376 OFFCURVE",
"408 367 OFFCURVE",
"408 348 CURVE SMOOTH",
"408 336 OFFCURVE",
"411 320 OFFCURVE",
"418 301 CURVE SMOOTH",
"425 282 OFFCURVE",
"429 272 OFFCURVE",
"429 272 CURVE",
"429 259 OFFCURVE",
"411 219 OFFCURVE",
"375 154 CURVE SMOOTH",
"342 96 OFFCURVE",
"318 56 OFFCURVE",
"302 35 CURVE",
"238 55 OFFCURVE",
"189 65 OFFCURVE",
"154 65 CURVE SMOOTH",
"117 65 OFFCURVE",
"86 59 OFFCURVE",
"59 46 CURVE SMOOTH",
"25 29 OFFCURVE",
"8 4 OFFCURVE",
"8 -29 CURVE SMOOTH",
"8 -56 OFFCURVE",
"24 -79 OFFCURVE",
"56 -96 CURVE SMOOTH",
"83 -111 OFFCURVE",
"112 -119 OFFCURVE",
"141 -119 CURVE SMOOTH",
"227 -119 OFFCURVE",
"305 -81 OFFCURVE",
"376 -4 CURVE",
"595 -88 LINE SMOOTH",
"690 -124 OFFCURVE",
"762 -142 OFFCURVE",
"813 -142 CURVE SMOOTH",
"858 -142 OFFCURVE",
"896 -129 OFFCURVE",
"927 -104 CURVE SMOOTH",
"961 -77 OFFCURVE",
"978 -41 OFFCURVE",
"978 3 CURVE SMOOTH"
);
},
{
closed = 1;
nodes = (
"329 11 LINE",
"310 -16 OFFCURVE",
"280 -40 OFFCURVE",
"241 -63 CURVE SMOOTH",
"200 -86 OFFCURVE",
"163 -98 OFFCURVE",
"131 -98 CURVE SMOOTH",
"107 -98 OFFCURVE",
"85 -92 OFFCURVE",
"66 -80 CURVE SMOOTH",
"44 -67 OFFCURVE",
"33 -48 OFFCURVE",
"33 -25 CURVE SMOOTH",
"33 2 OFFCURVE",
"48 22 OFFCURVE",
"77 35 CURVE SMOOTH",
"100 45 OFFCURVE",
"126 50 OFFCURVE",
"156 50 CURVE SMOOTH",
"195 50 OFFCURVE",
"241 42 OFFCURVE",
"292 25 CURVE",
"283 12 OFFCURVE",
"271 -2 OFFCURVE",
"254 -17 CURVE SMOOTH",
"211 -52 LINE SMOOTH",
"206 -57 OFFCURVE",
"203 -61 OFFCURVE",
"203 -62 CURVE SMOOTH",
"203 -63 OFFCURVE",
"203 -64 OFFCURVE",
"204 -64 CURVE SMOOTH",
"205 -64 OFFCURVE",
"206 -64 OFFCURVE",
"207 -63 CURVE",
"232 -50 OFFCURVE",
"259 -29 OFFCURVE",
"286 -2 CURVE SMOOTH",
"295 7 OFFCURVE",
"302 14 OFFCURVE",
"306 19 CURVE"
);
}
);
width = 980;
}
);
note = E;
unicode = 0045;
},
{
glyphname = F;
layers = (
{
hints = (
{
horizontal = 1;
place = "{-108, 19}";
type = Stem;
},
{
horizontal = 1;
place = "{-31, 13}";
type = Stem;
},
{
horizontal = 1;
place = "{49, 7}";
type = Stem;
},
{
horizontal = 1;
place = "{263, 22}";
type = Stem;
},
{
horizontal = 1;
place = "{456, 30}";
type = Stem;
},
{
horizontal = 1;
place = "{546, 20}";
type = Stem;
},
{
horizontal = 1;
place = "{655, 18}";
type = Stem;
},
{
place = "{41, 34}";
type = Stem;
},
{
place = "{487, 11}";
type = Stem;
},
{
place = "{842, 8}";
type = Stem;
},
{
place = "{892, 13}";
type = Stem;
},
{
place = "{22, 24}";
type = Stem;
},
{
place = "{384, 78}";
type = Stem;
},
{
place = "{478, 17}";
type = Stem;
}
);
layerId = "47CF47DF-B93A-4126-8606-39E7B9FB561A";
paths = (
{
closed = 1;
nodes = (
"507 612 OFFCURVE",
"506 619 OFFCURVE",
"504 620 CURVE",
"497 589 OFFCURVE",
"491 560 OFFCURVE",
"487 533 CURVE",
"373 555 OFFCURVE",
"287 566 OFFCURVE",
"228 566 CURVE SMOOTH",
"178 566 OFFCURVE",
"137 558 OFFCURVE",
"105 543 CURVE SMOOTH",
"62 522 OFFCURVE",
"41 490 OFFCURVE",
"41 445 CURVE SMOOTH",
"41 383 OFFCURVE",
"80 329 OFFCURVE",
"159 284 CURVE SMOOTH",
"161 283 OFFCURVE",
"163 282 OFFCURVE",
"164 282 CURVE SMOOTH",
"167 282 OFFCURVE",
"168 283 OFFCURVE",
"168 285 CURVE SMOOTH",
"168 286 OFFCURVE",
"167 288 OFFCURVE",
"164 290 CURVE SMOOTH",
"105 331 OFFCURVE",
"75 378 OFFCURVE",
"75 429 CURVE SMOOTH",
"75 507 OFFCURVE",
"131 546 OFFCURVE",
"244 546 CURVE SMOOTH",
"299 546 OFFCURVE",
"379 535 OFFCURVE",
"483 513 CURVE",
"461 414 OFFCURVE",
"440 346 OFFCURVE",
"421 308 CURVE",
"414 327 OFFCURVE",
"405 337 OFFCURVE",
"396 337 CURVE SMOOTH",
"388 337 OFFCURVE",
"384 326 OFFCURVE",
"384 304 CURVE SMOOTH",
"384 289 OFFCURVE",
"388 268 OFFCURVE",
"396 241 CURVE",
"374 187 OFFCURVE",
"347 136 OFFCURVE",
"315 88 CURVE SMOOTH",
"268 17 OFFCURVE",
"228 -18 OFFCURVE",
"193 -18 CURVE SMOOTH",
"190 -18 OFFCURVE",
"182 -16 OFFCURVE",
"178 -16 CURVE SMOOTH",
"175 -16 OFFCURVE",
"173 -18 OFFCURVE",
"173 -21 CURVE SMOOTH",
"173 -28 OFFCURVE",
"179 -31 OFFCURVE",
"192 -31 CURVE SMOOTH",
"227 -31 OFFCURVE",
"269 5 OFFCURVE",
"318 78 CURVE SMOOTH",
"352 129 OFFCURVE",
"381 181 OFFCURVE",
"404 235 CURVE",
"443 270 OFFCURVE",
"462 296 OFFCURVE",
"462 313 CURVE SMOOTH",
"462 319 OFFCURVE",
"460 322 OFFCURVE",
"455 322 CURVE SMOOTH",
"450 322 OFFCURVE",
"444 320 OFFCURVE",
"436 315 CURVE",
"462 390 OFFCURVE",
"481 455 OFFCURVE",
"494 510 CURVE",
"564 495 LINE",
"541 454 OFFCURVE",
"513 398 OFFCURVE",
"481 325 CURVE SMOOTH",
"443 240 OFFCURVE",
"416 183 OFFCURVE",
"401 153 CURVE SMOOTH",
"365 82 OFFCURVE",
"330 29 OFFCURVE",
"297 -7 CURVE SMOOTH",
"247 -62 OFFCURVE",
"192 -89 OFFCURVE",
"133 -89 CURVE SMOOTH",
"111 -89 OFFCURVE",
"92 -84 OFFCURVE",
"75 -74 CURVE SMOOTH",
"56 -62 OFFCURVE",
"46 -45 OFFCURVE",
"46 -24 CURVE SMOOTH",
"46 1 OFFCURVE",
"59 20 OFFCURVE",
"84 33 CURVE SMOOTH",
"104 44 OFFCURVE",
"127 49 OFFCURVE",
"154 49 CURVE SMOOTH",
"160 49 OFFCURVE",
"163 50 OFFCURVE",
"163 53 CURVE SMOOTH",
"163 55 OFFCURVE",
"160 56 OFFCURVE",
"154 56 CURVE SMOOTH",
"122 56 OFFCURVE",
"94 50 OFFCURVE",
"69 37 CURVE SMOOTH",
"38 21 OFFCURVE",
"22 -1 OFFCURVE",
"22 -30 CURVE SMOOTH",
"22 -57 OFFCURVE",
"36 -77 OFFCURVE",
"65 -92 CURVE SMOOTH",
"87 -103 OFFCURVE",
"113 -108 OFFCURVE",
"142 -108 CURVE SMOOTH",
"214 -108 OFFCURVE",
"282 -71 OFFCURVE",
"347 2 CURVE SMOOTH",
"388 48 OFFCURVE",
"431 116 OFFCURVE",
"478 207 CURVE",
"479 194 OFFCURVE",
"492 171 OFFCURVE",
"500 171 CURVE",
"500 175 OFFCURVE",
"495 186 OFFCURVE",
"495 191 CURVE SMOOTH",
"495 219 OFFCURVE",
"528 239 OFFCURVE",
"595 252 CURVE SMOOTH",
"636 259 OFFCURVE",
"681 263 OFFCURVE",
"728 263 CURVE SMOOTH",
"744 263 OFFCURVE",
"779 258 OFFCURVE",
"794 258 CURVE SMOOTH",
"797 258 OFFCURVE",
"798 259 OFFCURVE",
"798 261 CURVE SMOOTH",
"798 263 OFFCURVE",
"796 264 OFFCURVE",
"793 265 CURVE SMOOTH",
"753 278 OFFCURVE",
"699 285 OFFCURVE",
"631 285 CURVE SMOOTH",
"568 285 OFFCURVE",
"527 279 OFFCURVE",
"508 268 CURVE",
"574 403 OFFCURVE",
"609 475 OFFCURVE",
"614 484 CURVE",
"700 465 OFFCURVE",
"763 456 OFFCURVE",
"802 456 CURVE SMOOTH",
"871 456 OFFCURVE",
"905 477 OFFCURVE",
"905 520 CURVE SMOOTH",
"905 526 OFFCURVE",
"904 534 OFFCURVE",
"901 543 CURVE SMOOTH",
"897 555 OFFCURVE",
"893 561 OFFCURVE",
"888 561 CURVE SMOOTH",
"887 561 OFFCURVE",
"886 560 OFFCURVE",
"886 558 CURVE SMOOTH",
"886 555 OFFCURVE",
"892 548 OFFCURVE",
"892 537 CURVE SMOOTH",
"892 503 OFFCURVE",
"858 486 OFFCURVE",
"790 486 CURVE SMOOTH",
"754 486 OFFCURVE",
"700 493 OFFCURVE",
"627 506 CURVE",
"683 605 OFFCURVE",
"736 655 OFFCURVE",
"787 655 CURVE SMOOTH",
"824 655 OFFCURVE",
"842 641 OFFCURVE",
"842 614 CURVE SMOOTH",
"842 608 OFFCURVE",
"843 605 OFFCURVE",
"846 605 CURVE SMOOTH",
"849 605 OFFCURVE",
"850 609 OFFCURVE",
"850 616 CURVE SMOOTH",
"850 654 OFFCURVE",
"827 673 OFFCURVE",
"782 673 CURVE SMOOTH",
"707 673 OFFCURVE",
"639 621 OFFCURVE",
"576 516 CURVE",
"498 531 LINE",
"504 559 OFFCURVE",
"507 582 OFFCURVE",
"507 599 CURVE SMOOTH"
);
}
);
width = 760;
}
);
note = F;
unicode = 0046;
},
{
glyphname = G;
layers = (
{
hints = (
{
horizontal = 1;
place = "{-321, 23}";
type = Stem;
},
{
horizontal = 1;
place = "{-38, 50}";
type = Stem;
},
{
horizontal = 1;
place = "{393, 11}";
type = Stem;
},
{
horizontal = 1;
place = "{575, 9}";
type = Stem;
},
{
horizontal = 1;
place = "{599, 26}";
type = Stem;
},
{
horizontal = 1;
place = "{686, -20}";
target = down;
type = TopGhost;
},
{
place = "{11, 35}";
type = Stem;
},
{
place = "{554, 13}";
type = Stem;
},
{
place = "{33, 43}";
type = Stem;
},
{
place = "{527, 63}";
type = Stem;
},
{
place = "{539, 19}";
type = Stem;
}
);
layerId = "47CF47DF-B93A-4126-8606-39E7B9FB561A";
paths = (
{
closed = 1;
nodes = (
"567 665 OFFCURVE",
"563 686 OFFCURVE",
"557 686 CURVE SMOOTH",
"554 686 OFFCURVE",
"552 683 OFFCURVE",
"552 678 CURVE SMOOTH",
"552 666 OFFCURVE",
"554 637 OFFCURVE",
"554 625 CURVE",
"490 628 OFFCURVE",
"423 612 OFFCURVE",
"352 579 CURVE",
"325 582 OFFCURVE",
"302 584 OFFCURVE",
"285 584 CURVE SMOOTH",
"230 584 OFFCURVE",
"176 576 OFFCURVE",
"122 560 CURVE SMOOTH",
"48 537 OFFCURVE",
"11 505 OFFCURVE",
"11 464 CURVE SMOOTH",
"11 455 OFFCURVE",
"13 445 OFFCURVE",
"18 435 CURVE SMOOTH",
"23 422 OFFCURVE",
"30 416 OFFCURVE",
"38 416 CURVE SMOOTH",
"44 416 OFFCURVE",
"47 421 OFFCURVE",
"47 430 CURVE SMOOTH",
"47 438 LINE",
"46 441 OFFCURVE",
"46 444 OFFCURVE",
"46 446 CURVE SMOOTH",
"46 475 OFFCURVE",
"66 502 OFFCURVE",
"107 526 CURVE SMOOTH",
"136 543 OFFCURVE",
"169 556 OFFCURVE",
"207 565 CURVE SMOOTH",
"236 572 OFFCURVE",
"265 575 OFFCURVE",
"292 575 CURVE SMOOTH",
"303 575 OFFCURVE",
"318 574 OFFCURVE",
"337 572 CURVE",
"256 531 OFFCURVE",
"185 467 OFFCURVE",
"126 382 CURVE SMOOTH",
"64 292 OFFCURVE",
"33 203 OFFCURVE",
"33 116 CURVE SMOOTH",
"33 73 OFFCURVE",
"42 38 OFFCURVE",
"60 11 CURVE SMOOTH",
"81 -22 OFFCURVE",
"111 -38 OFFCURVE",
"151 -38 CURVE SMOOTH",
"206 -38 OFFCURVE",
"270 -9 OFFCURVE",
"345 50 CURVE SMOOTH",
"405 97 OFFCURVE",
"457 149 OFFCURVE",
"500 207 CURVE",
"479 116 OFFCURVE",
"454 33 OFFCURVE",
"425 -40 CURVE SMOOTH",
"382 -151 OFFCURVE",
"338 -221 OFFCURVE",
"291 -250 CURVE SMOOTH",
"282 -256 OFFCURVE",
"269 -261 OFFCURVE",
"254 -264 CURVE SMOOTH",
"249 -265 OFFCURVE",
"246 -268 OFFCURVE",
"246 -271 CURVE SMOOTH",
"246 -276 OFFCURVE",
"249 -278 OFFCURVE",
"256 -278 CURVE SMOOTH",
"271 -278 OFFCURVE",
"287 -271 OFFCURVE",
"306 -257 CURVE SMOOTH",
"351 -221 OFFCURVE",
"396 -145 OFFCURVE",
"439 -30 CURVE SMOOTH",
"469 48 OFFCURVE",
"495 134 OFFCURVE",
"517 229 CURVE",
"566 297 OFFCURVE",
"590 338 OFFCURVE",
"590 351 CURVE SMOOTH",
"590 352 OFFCURVE",
"589 353 OFFCURVE",
"588 354 CURVE",
"587 354 OFFCURVE",
"584 350 OFFCURVE",
"579 342 CURVE SMOOTH",
"559 311 OFFCURVE",
"541 285 OFFCURVE",
"525 264 CURVE",
"530 289 OFFCURVE",
"535 313 OFFCURVE",
"539 337 CURVE",
"564 354 OFFCURVE",
"593 391 OFFCURVE",
"593 418 CURVE SMOOTH",
"593 427 OFFCURVE",
"589 431 OFFCURVE",
"582 431 CURVE SMOOTH",
"574 431 OFFCURVE",
"564 426 OFFCURVE",
"553 416 CURVE",
"564 504 LINE",
"632 467 OFFCURVE",
"683 438 OFFCURVE",
"716 418 CURVE SMOOTH",
"723 414 OFFCURVE",
"729 412 OFFCURVE",
"735 412 CURVE SMOOTH",
"745 412 OFFCURVE",
"750 418 OFFCURVE",
"749 429 CURVE SMOOTH",
"749 434 LINE SMOOTH",
"744 551 OFFCURVE",
"683 615 OFFCURVE",
"568 624 CURVE"
);
},
{
closed = 1;
nodes = (
"463 187 OFFCURVE",
"414 138 OFFCURVE",
"361 97 CURVE SMOOTH",
"290 40 OFFCURVE",
"230 12 OFFCURVE",
"181 12 CURVE SMOOTH",
"144 12 OFFCURVE",
"117 27 OFFCURVE",
"99 56 CURVE SMOOTH",
"84 81 OFFCURVE",
"76 112 OFFCURVE",
"76 151 CURVE SMOOTH",
"76 235 OFFCURVE",
"104 317 OFFCURVE",
"160 398 CURVE SMOOTH",
"214 477 OFFCURVE",
"280 534 OFFCURVE",
"357 569 CURVE",
"422 560 OFFCURVE",
"486 540 OFFCURVE",
"550 511 CURVE",
"547 482 OFFCURVE",
"544 451 OFFCURVE",
"539 420 CURVE",
"532 435 OFFCURVE",
"524 442 OFFCURVE",
"515 442 CURVE SMOOTH",
"504 442 OFFCURVE",
"498 431 OFFCURVE",
"498 410 CURVE SMOOTH",
"498 385 OFFCURVE",
"508 362 OFFCURVE",
"527 339 CURVE",
"522 307 OFFCURVE",
"515 275 OFFCURVE",
"508 243 CURVE"
);
},
{
closed = 1;
nodes = (
"298 -321 OFFCURVE",
"325 -315 OFFCURVE",
"350 -302 CURVE SMOOTH",
"430 -259 OFFCURVE",
"497 -170 OFFCURVE",
"550 -35 CURVE SMOOTH",
"574 25 OFFCURVE",
"606 136 OFFCURVE",
"647 298 CURVE SMOOTH",
"662 359 OFFCURVE",
"674 390 OFFCURVE",
"684 393 CURVE",
"686 393 LINE",
"678 400 OFFCURVE",
"668 404 OFFCURVE",
"655 404 CURVE SMOOTH",
"626 404 OFFCURVE",
"597 353 OFFCURVE",
"568 252 CURVE SMOOTH",
"510 51 OFFCURVE",
"481 -50 OFFCURVE",
"480 -51 CURVE",
"437 -170 OFFCURVE",
"386 -245 OFFCURVE",
"328 -277 CURVE SMOOTH",
"302 -291 OFFCURVE",
"274 -298 OFFCURVE",
"245 -298 CURVE SMOOTH",
"184 -298 OFFCURVE",
"139 -265 OFFCURVE",
"111 -200 CURVE SMOOTH",
"109 -196 OFFCURVE",
"107 -194 OFFCURVE",
"106 -194 CURVE SMOOTH",
"104 -194 OFFCURVE",
"103 -195 OFFCURVE",
"103 -198 CURVE SMOOTH",
"103 -229 OFFCURVE",
"123 -257 OFFCURVE",
"164 -284 CURVE SMOOTH",
"201 -309 OFFCURVE",
"236 -321 OFFCURVE",
"269 -321 CURVE SMOOTH"
);
},
{
closed = 1;
nodes = (
"569 593 LINE",
"636 579 OFFCURVE",
"683 550 OFFCURVE",
"709 505 CURVE SMOOTH",
"714 497 OFFCURVE",
"716 489 OFFCURVE",
"716 481 CURVE SMOOTH",
"716 474 OFFCURVE",
"713 470 OFFCURVE",
"708 470 CURVE SMOOTH",
"705 470 OFFCURVE",
"701 472 OFFCURVE",
"695 475 CURVE SMOOTH",
"645 502 OFFCURVE",
"602 521 OFFCURVE",
"566 533 CURVE"
);
},
{
closed = 1;
nodes = (
"554 577 OFFCURVE",
"553 558 OFFCURVE",
"552 538 CURVE",
"503 553 OFFCURVE",
"444 566 OFFCURVE",
"374 576 CURVE",
"413 591 OFFCURVE",
"456 599 OFFCURVE",
"503 599 CURVE SMOOTH",
"521 599 OFFCURVE",
"538 598 OFFCURVE",
"554 596 CURVE"
);
}
);
width = 717;
}
);
note = G;
unicode = 0047;
},
{
glyphname = H;
layers = (
{
hints = (
{
horizontal = 1;
place = "{-231, 14}";
type = Stem;
},
{
horizontal = 1;
place = "{-181, 15}";
type = Stem;
},
{
horizontal = 1;
place = "{208, 15}";
type = Stem;
},
{
horizontal = 1;
place = "{627, 9}";
type = Stem;
},
{
place = "{-155, 9}";
type = Stem;
},
{
place = "{20, 39}";
type = Stem;
},
{
place = "{339, 12}";
type = Stem;
},
{
place = "{403, 55}";
type = Stem;
},
{
place = "{580, 67}";
type = Stem;
},
{
place = "{38, 42}";
type = Stem;
}
);
layerId = "47CF47DF-B93A-4126-8606-39E7B9FB561A";
paths = (
{
closed = 1;
nodes = (
"734 -181 OFFCURVE",
"771 -168 OFFCURVE",
"809 -142 CURVE SMOOTH",
"843 -119 OFFCURVE",
"871 -91 OFFCURVE",
"893 -58 CURVE SMOOTH",
"895 -55 OFFCURVE",
"896 -53 OFFCURVE",
"896 -51 CURVE SMOOTH",
"896 -50 OFFCURVE",
"895 -50 OFFCURVE",
"894 -49 CURVE",
"894 -49 OFFCURVE",
"883 -59 OFFCURVE",
"862 -79 CURVE SMOOTH",
"837 -103 OFFCURVE",
"815 -122 OFFCURVE",
"796 -136 CURVE SMOOTH",
"767 -156 OFFCURVE",
"742 -166 OFFCURVE",
"722 -166 CURVE SMOOTH",
"672 -166 OFFCURVE",
"647 -125 OFFCURVE",
"647 -43 CURVE SMOOTH",
"647 18 OFFCURVE",
"662 100 OFFCURVE",
"692 205 CURVE SMOOTH",
"710 266 OFFCURVE",
"737 350 OFFCURVE",
"774 456 CURVE SMOOTH",
"802 537 OFFCURVE",
"819 588 OFFCURVE",
"824 608 CURVE SMOOTH",
"825 613 OFFCURVE",
"826 617 OFFCURVE",
"826 621 CURVE SMOOTH",
"826 630 OFFCURVE",
"824 635 OFFCURVE",
"819 635 CURVE SMOOTH",
"814 635 OFFCURVE",
"809 627 OFFCURVE",
"803 611 CURVE SMOOTH",
"784 563 OFFCURVE",
"769 527 OFFCURVE",
"760 502 CURVE SMOOTH",
"683 317 OFFCURVE",
"641 215 OFFCURVE",
"634 196 CURVE SMOOTH",
"598 95 OFFCURVE",
"580 14 OFFCURVE",
"580 -45 CURVE SMOOTH",
"580 -136 OFFCURVE",
"620 -181 OFFCURVE",
"699 -181 CURVE SMOOTH"
);
},
{
closed = 1;
nodes = (
"87 -7 OFFCURVE",
"80 9 OFFCURVE",
"80 26 CURVE SMOOTH",
"80 70 OFFCURVE",
"122 110 OFFCURVE",
"205 147 CURVE",
"172 82 OFFCURVE",
"138 26 OFFCURVE",
"101 -22 CURVE"
);
},
{
closed = 1;
nodes = (
"283 204 OFFCURVE",
"261 199 OFFCURVE",
"240 194 CURVE",
"260 239 OFFCURVE",
"278 284 OFFCURVE",
"294 329 CURVE",
"307 337 OFFCURVE",
"321 349 OFFCURVE",
"334 366 CURVE SMOOTH",
"348 383 OFFCURVE",
"355 399 OFFCURVE",
"355 412 CURVE SMOOTH",
"355 419 OFFCURVE",
"352 423 OFFCURVE",
"345 423 CURVE SMOOTH",
"338 423 OFFCURVE",
"330 419 OFFCURVE",
"319 412 CURVE",
"340 488 OFFCURVE",
"350 556 OFFCURVE",
"351 616 CURVE",
"386 599 OFFCURVE",
"403 563 OFFCURVE",
"403 509 CURVE SMOOTH",
"403 436 OFFCURVE",
"371 335 OFFCURVE",
"308 207 CURVE"
);
},
{
closed = 1;
nodes = (
"130 -45 OFFCURVE",
"118 -38 OFFCURVE",
"109 -29 CURVE",
"148 22 OFFCURVE",
"185 83 OFFCURVE",
"220 154 CURVE",
"243 163 OFFCURVE",
"267 171 OFFCURVE",
"292 177 CURVE",
"246 90 OFFCURVE",
"197 14 OFFCURVE",
"144 -51 CURVE"
);
},
{
closed = 1;
nodes = (
"429 327 OFFCURVE",
"458 417 OFFCURVE",
"458 486 CURVE SMOOTH",
"458 568 OFFCURVE",
"422 617 OFFCURVE",
"351 632 CURVE",
"350 663 OFFCURVE",
"348 678 OFFCURVE",
"345 678 CURVE SMOOTH",
"341 678 OFFCURVE",
"339 675 OFFCURVE",
"339 670 CURVE SMOOTH",
"339 634 LINE",
"329 635 OFFCURVE",
"318 636 OFFCURVE",
"307 636 CURVE SMOOTH",
"274 636 OFFCURVE",
"240 630 OFFCURVE",
"205 619 CURVE SMOOTH",
"160 604 OFFCURVE",
"121 582 OFFCURVE",
"86 553 CURVE SMOOTH",
"42 517 OFFCURVE",
"20 479 OFFCURVE",
"20 439 CURVE SMOOTH",
"20 410 OFFCURVE",
"34 382 OFFCURVE",
"61 356 CURVE SMOOTH",
"83 335 OFFCURVE",
"110 318 OFFCURVE",
"141 305 CURVE",
"145 305 LINE SMOOTH",
"150 305 OFFCURVE",
"153 308 OFFCURVE",
"153 313 CURVE SMOOTH",
"153 316 OFFCURVE",
"152 318 OFFCURVE",
"149 319 CURVE",
"89 350 OFFCURVE",
"59 387 OFFCURVE",
"59 429 CURVE SMOOTH",
"59 477 OFFCURVE",
"88 523 OFFCURVE",
"145 566 CURVE SMOOTH",
"199 607 OFFCURVE",
"251 627 OFFCURVE",
"301 627 CURVE SMOOTH",
"315 627 OFFCURVE",
"328 625 OFFCURVE",
"339 621 CURVE",
"337 555 OFFCURVE",
"326 484 OFFCURVE",
"305 407 CURVE",
"298 426 OFFCURVE",
"289 436 OFFCURVE",
"280 436 CURVE SMOOTH",
"267 436 OFFCURVE",
"260 423 OFFCURVE",
"260 397 CURVE SMOOTH",
"260 374 OFFCURVE",
"267 353 OFFCURVE",
"282 332 CURVE",
"266 284 OFFCURVE",
"247 237 OFFCURVE",
"226 191 CURVE",
"182 179 OFFCURVE",
"143 162 OFFCURVE",
"109 141 CURVE SMOOTH",
"62 112 OFFCURVE",
"38 80 OFFCURVE",
"38 45 CURVE SMOOTH",
"38 16 OFFCURVE",
"55 -11 OFFCURVE",
"89 -36 CURVE",
"41 -95 OFFCURVE",
"-4 -132 OFFCURVE",
"-46 -147 CURVE",
"-74 -154 OFFCURVE",
"-85 -153 OFFCURVE",
"-85 -160 CURVE SMOOTH",
"-85 -165 OFFCURVE",
"-82 -167 OFFCURVE",
"-76 -167 CURVE SMOOTH",
"-25 -167 OFFCURVE",
"33 -125 OFFCURVE",
"99 -42 CURVE",
"110 -49 OFFCURVE",
"123 -56 OFFCURVE",
"136 -61 CURVE",
"49 -165 OFFCURVE",
"-30 -217 OFFCURVE",
"-102 -217 CURVE SMOOTH",
"-131 -217 OFFCURVE",
"-146 -204 OFFCURVE",
"-146 -178 CURVE SMOOTH",
"-146 -167 LINE",
"-152 -172 OFFCURVE",
"-155 -182 OFFCURVE",
"-155 -195 CURVE SMOOTH",
"-155 -219 OFFCURVE",
"-137 -231 OFFCURVE",
"-102 -231 CURVE SMOOTH",
"-21 -231 OFFCURVE",
"69 -178 OFFCURVE",
"169 -73 CURVE",
"198 -82 OFFCURVE",
"219 -86 OFFCURVE",
"232 -86 CURVE SMOOTH",
"239 -86 OFFCURVE",
"242 -84 OFFCURVE",
"242 -81 CURVE SMOOTH",
"242 -78 OFFCURVE",
"239 -77 OFFCURVE",
"234 -76 CURVE SMOOTH",
"178 -64 LINE",
"247 11 OFFCURVE",
"308 96 OFFCURVE",
"360 191 CURVE",
"401 198 OFFCURVE",
"455 203 OFFCURVE",
"521 206 CURVE SMOOTH",
"605 210 LINE",
"620 212 OFFCURVE",
"627 216 OFFCURVE",
"627 223 CURVE SMOOTH",
"627 225 OFFCURVE",
"625 226 OFFCURVE",
"621 226 CURVE SMOOTH",
"612 226 OFFCURVE",
"600 226 OFFCURVE",
"585 225 CURVE SMOOTH",
"566 224 OFFCURVE",
"554 223 OFFCURVE",
"548 223 CURVE SMOOTH",
"467 221 OFFCURVE",
"408 218 OFFCURVE",
"372 215 CURVE"
);
}
);
width = 742;
}
);
note = H;
unicode = 0048;
},
{
glyphname = I;
layers = (
{
hints = (
{
horizontal = 1;
place = "{-149, 13}";
type = Stem;
},
{
horizontal = 1;
place = "{-85, 15}";
type = Stem;
},
{
horizontal = 1;
place = "{185, 32}";
type = Stem;
},
{
horizontal = 1;
place = "{291, 37}";
type = Stem;
},
{
horizontal = 1;
place = "{585, 21}";
type = Stem;
},
{
place = "{37, 22}";
type = Stem;
},
{
place = "{335, 16}";
type = Stem;
},
{
place = "{653, 47}";
type = Stem;
},
{
horizontal = 1;
place = "{182, 29}";
type = Stem;
},
{
place = "{357, 30}";
type = Stem;
},
{
place = "{432, 87}";
type = Stem;
}
);
layerId = "47CF47DF-B93A-4126-8606-39E7B9FB561A";
paths = (
{
closed = 1;
nodes = (
"700 601 OFFCURVE",
"694 606 OFFCURVE",
"682 606 CURVE SMOOTH",
"656 606 OFFCURVE",
"616 591 OFFCURVE",
"563 561 CURVE",
"568 586 OFFCURVE",
"570 606 OFFCURVE",
"570 622 CURVE SMOOTH",
"570 636 OFFCURVE",
"569 644 OFFCURVE",
"566 646 CURVE",
"563 643 OFFCURVE",
"561 638 OFFCURVE",
"560 630 CURVE SMOOTH",
"548 552 LINE",
"503 525 OFFCURVE",
"464 495 OFFCURVE",
"429 462 CURVE SMOOTH",
"381 416 OFFCURVE",
"357 376 OFFCURVE",
"357 341 CURVE SMOOTH",
"357 316 OFFCURVE",
"378 291 OFFCURVE",
"403 291 CURVE SMOOTH",
"406 291 OFFCURVE",
"408 292 OFFCURVE",
"408 293 CURVE SMOOTH",
"408 294 OFFCURVE",
"406 296 OFFCURVE",
"403 298 CURVE SMOOTH",
"392 304 OFFCURVE",
"387 314 OFFCURVE",
"387 327 CURVE SMOOTH",
"387 345 OFFCURVE",
"396 370 OFFCURVE",
"414 402 CURVE SMOOTH",
"430 431 OFFCURVE",
"446 453 OFFCURVE",
"462 469 CURVE SMOOTH",
"482 489 OFFCURVE",
"509 510 OFFCURVE",
"544 531 CURVE",
"520 418 OFFCURVE",
"496 340 OFFCURVE",
"473 296 CURVE",
"465 317 OFFCURVE",
"456 328 OFFCURVE",
"446 328 CURVE SMOOTH",
"437 328 OFFCURVE",
"432 316 OFFCURVE",
"432 291 CURVE SMOOTH",
"432 275 OFFCURVE",
"436 252 OFFCURVE",
"445 221 CURVE",
"420 160 OFFCURVE",
"390 103 OFFCURVE",
"354 48 CURVE SMOOTH",
"302 -31 OFFCURVE",
"257 -70 OFFCURVE",
"218 -70 CURVE SMOOTH",
"214 -70 OFFCURVE",
"205 -68 OFFCURVE",
"201 -68 CURVE SMOOTH",
"197 -68 OFFCURVE",
"195 -70 OFFCURVE",
"195 -73 CURVE SMOOTH",
"195 -81 OFFCURVE",
"202 -85 OFFCURVE",
"217 -85 CURVE SMOOTH",
"255 -85 OFFCURVE",
"302 -44 OFFCURVE",
"357 38 CURVE SMOOTH",
"396 95 OFFCURVE",
"428 153 OFFCURVE",
"455 214 CURVE",
"498 253 OFFCURVE",
"519 282 OFFCURVE",
"519 301 CURVE SMOOTH",
"519 308 OFFCURVE",
"516 311 OFFCURVE",
"511 311 CURVE SMOOTH",
"506 311 OFFCURVE",
"499 308 OFFCURVE",
"490 303 CURVE",
"523 396 OFFCURVE",
"546 475 OFFCURVE",
"559 540 CURVE",
"610 570 OFFCURVE",
"641 585 OFFCURVE",
"652 585 CURVE SMOOTH",
"653 585 OFFCURVE",
"653 585 OFFCURVE",
"653 584 CURVE SMOOTH",
"653 577 OFFCURVE",
"646 552 OFFCURVE",
"632 510 CURVE SMOOTH",
"570 317 OFFCURVE",
"496 156 OFFCURVE",
"409 28 CURVE SMOOTH",
"334 -81 OFFCURVE",
"261 -136 OFFCURVE",
"188 -136 CURVE SMOOTH",
"149 -136 OFFCURVE",
"117 -122 OFFCURVE",
"93 -93 CURVE SMOOTH",
"70 -66 OFFCURVE",
"59 -33 OFFCURVE",
"59 7 CURVE SMOOTH",
"59 54 OFFCURVE",
"72 104 OFFCURVE",
"98 157 CURVE SMOOTH",
"102 166 OFFCURVE",
"104 172 OFFCURVE",
"104 177 CURVE SMOOTH",
"104 180 OFFCURVE",
"104 182 OFFCURVE",
"103 183 CURVE",
"110 182 OFFCURVE",
"119 182 OFFCURVE",
"128 182 CURVE SMOOTH",
"139 182 OFFCURVE",
"155 182 OFFCURVE",
"176 183 CURVE SMOOTH",
"198 184 OFFCURVE",
"214 185 OFFCURVE",
"225 185 CURVE SMOOTH",
"298 185 OFFCURVE",
"335 173 OFFCURVE",
"335 149 CURVE SMOOTH",
"335 147 OFFCURVE",
"331 142 OFFCURVE",
"324 133 CURVE SMOOTH",
"317 125 OFFCURVE",
"313 120 OFFCURVE",
"313 117 CURVE SMOOTH",
"313 116 OFFCURVE",
"314 115 OFFCURVE",
"317 115 CURVE",
"340 128 OFFCURVE",
"351 143 OFFCURVE",
"351 162 CURVE SMOOTH",
"351 187 OFFCURVE",
"337 203 OFFCURVE",
"309 211 CURVE SMOOTH",
"294 215 OFFCURVE",
"270 217 OFFCURVE",
"237 217 CURVE SMOOTH",
"220 217 OFFCURVE",
"196 216 OFFCURVE",
"163 214 CURVE SMOOTH",
"131 212 OFFCURVE",
"107 211 OFFCURVE",
"90 211 CURVE SMOOTH",
"86 211 OFFCURVE",
"73 213 OFFCURVE",
"68 213 CURVE SMOOTH",
"53 213 OFFCURVE",
"24 198 OFFCURVE",
"24 185 CURVE SMOOTH",
"24 180 OFFCURVE",
"31 177 OFFCURVE",
"44 174 CURVE SMOOTH",
"57 172 OFFCURVE",
"64 169 OFFCURVE",
"64 166 CURVE SMOOTH",
"64 165 OFFCURVE",
"63 162 OFFCURVE",
"61 159 CURVE SMOOTH",
"45 129 OFFCURVE",
"37 87 OFFCURVE",
"37 34 CURVE SMOOTH",
"37 -19 OFFCURVE",
"48 -61 OFFCURVE",
"71 -94 CURVE SMOOTH",
"96 -131 OFFCURVE",
"134 -149 OFFCURVE",
"185 -149 CURVE SMOOTH",
"270 -149 OFFCURVE",
"352 -103 OFFCURVE",
"431 -12 CURVE SMOOTH",
"536 111 OFFCURVE",
"618 272 OFFCURVE",
"676 470 CURVE SMOOTH",
"692 527 OFFCURVE",
"700 567 OFFCURVE",
"700 590 CURVE SMOOTH"
);
}
);
width = 664;
}
);
note = I;
unicode = 0049;
},
{
glyphname = J;
layers = (
{
hints = (
{
horizontal = 1;
place = "{-242, 41}";
type = Stem;
},
{
horizontal = 1;
place = "{81, 13}";
type = Stem;
},
{
horizontal = 1;
place = "{685, 12}";
type = Stem;
},
{
place = "{12, 38}";
type = Stem;
},
{
place = "{415, 12}";
type = Stem;
},
{
place = "{735, 8}";
type = Stem;
},
{
place = "{408, 15}";
type = Stem;
}
);
layerId = "47CF47DF-B93A-4126-8606-39E7B9FB561A";
paths = (
{
closed = 1;
nodes = (
"427 656 OFFCURVE",
"425 676 OFFCURVE",
"421 677 CURVE",
"417 676 OFFCURVE",
"415 674 OFFCURVE",
"415 670 CURVE SMOOTH",
"415 628 OFFCURVE",
"413 592 OFFCURVE",
"410 561 CURVE",
"145 489 OFFCURVE",
"12 376 OFFCURVE",
"12 223 CURVE SMOOTH",
"12 177 OFFCURVE",
"31 141 OFFCURVE",
"68 115 CURVE SMOOTH",
"101 92 OFFCURVE",
"142 81 OFFCURVE",
"190 81 CURVE SMOOTH",
"223 81 OFFCURVE",
"239 85 OFFCURVE",
"239 92 CURVE SMOOTH",
"239 93 OFFCURVE",
"238 94 OFFCURVE",
"235 94 CURVE SMOOTH",
"227 94 OFFCURVE",
"208 91 OFFCURVE",
"201 91 CURVE SMOOTH",
"157 91 OFFCURVE",
"122 102 OFFCURVE",
"95 124 CURVE SMOOTH",
"65 147 OFFCURVE",
"50 180 OFFCURVE",
"50 223 CURVE SMOOTH",
"50 366 OFFCURVE",
"169 473 OFFCURVE",
"408 544 CURVE",
"403 499 OFFCURVE",
"395 454 OFFCURVE",
"384 407 CURVE",
"378 422 OFFCURVE",
"371 429 OFFCURVE",
"363 429 CURVE SMOOTH",
"349 429 OFFCURVE",
"342 416 OFFCURVE",
"342 389 CURVE SMOOTH",
"342 367 OFFCURVE",
"349 347 OFFCURVE",
"364 329 CURVE",
"336 234 OFFCURVE",
"301 147 OFFCURVE",
"258 68 CURVE SMOOTH",
"200 -39 OFFCURVE",
"139 -107 OFFCURVE",
"76 -137 CURVE SMOOTH",
"63 -143 OFFCURVE",
"46 -148 OFFCURVE",
"23 -152 CURVE SMOOTH",
"18 -153 OFFCURVE",
"15 -156 OFFCURVE",
"15 -159 CURVE SMOOTH",
"15 -164 OFFCURVE",
"18 -166 OFFCURVE",
"24 -166 CURVE SMOOTH",
"44 -166 OFFCURVE",
"68 -158 OFFCURVE",
"97 -141 CURVE SMOOTH",
"162 -105 OFFCURVE",
"222 -34 OFFCURVE",
"279 71 CURVE SMOOTH",
"322 152 OFFCURVE",
"356 240 OFFCURVE",
"383 337 CURVE",
"417 365 OFFCURVE",
"434 390 OFFCURVE",
"434 413 CURVE SMOOTH",
"434 420 OFFCURVE",
"431 423 OFFCURVE",
"426 423 CURVE SMOOTH",
"419 423 OFFCURVE",
"411 419 OFFCURVE",
"402 411 CURVE",
"412 459 OFFCURVE",
"419 505 OFFCURVE",
"423 548 CURVE",
"507 569 LINE",
"472 450 OFFCURVE",
"445 360 OFFCURVE",
"428 300 CURVE SMOOTH",
"391 174 OFFCURVE",
"356 84 OFFCURVE",
"325 29 CURVE SMOOTH",
"276 -57 OFFCURVE",
"208 -123 OFFCURVE",
"121 -169 CURVE SMOOTH",
"81 -190 OFFCURVE",
"39 -201 OFFCURVE",
"-4 -201 CURVE SMOOTH",
"-75 -201 OFFCURVE",
"-124 -174 OFFCURVE",
"-152 -119 CURVE",
"-167 -80 LINE",
"-168 -75 OFFCURVE",
"-170 -72 OFFCURVE",
"-172 -72 CURVE SMOOTH",
"-175 -72 OFFCURVE",
"-176 -74 OFFCURVE",
"-176 -79 CURVE SMOOTH",
"-176 -121 OFFCURVE",
"-155 -159 OFFCURVE",
"-112 -193 CURVE SMOOTH",
"-72 -226 OFFCURVE",
"-30 -242 OFFCURVE",
"13 -242 CURVE SMOOTH",
"50 -242 OFFCURVE",
"84 -233 OFFCURVE",
"117 -216 CURVE SMOOTH",
"206 -168 OFFCURVE",
"282 -97 OFFCURVE",
"345 -4 CURVE SMOOTH",
"394 69 OFFCURVE",
"439 164 OFFCURVE",
"480 281 CURVE SMOOTH",
"511 381 OFFCURVE",
"543 481 OFFCURVE",
"575 582 CURVE",
"695 603 LINE SMOOTH",
"727 610 OFFCURVE",
"743 623 OFFCURVE",
"743 644 CURVE SMOOTH",
"743 661 OFFCURVE",
"733 675 OFFCURVE",
"714 685 CURVE SMOOTH",
"698 693 OFFCURVE",
"680 697 OFFCURVE",
"661 697 CURVE SMOOTH",
"620 697 OFFCURVE",
"588 688 OFFCURVE",
"566 671 CURVE SMOOTH",
"548 656 OFFCURVE",
"531 627 OFFCURVE",
"514 586 CURVE",
"425 565 LINE",
"426 584 OFFCURVE",
"427 602 OFFCURVE",
"427 619 CURVE SMOOTH"
);
},
{
closed = 1;
nodes = (
"735 637 OFFCURVE",
"726 628 OFFCURVE",
"708 621 CURVE",
"654 609 OFFCURVE",
"613 601 OFFCURVE",
"584 598 CURVE",
"615 656 OFFCURVE",
"646 685 OFFCURVE",
"678 685 CURVE SMOOTH",
"716 685 OFFCURVE",
"735 673 OFFCURVE",
"735 650 CURVE SMOOTH"
);
}
);
width = 503;
}
);
note = J;
unicode = 004A;
},
{
glyphname = K;
layers = (
{
hints = (
{
horizontal = 1;
place = "{-151, 12}";
type = Stem;
},
{
horizontal = 1;
place = "{-61, 16}";
type = Stem;
},
{
horizontal = 1;
place = "{233, 19}";
type = Stem;
},
{
horizontal = 1;
place = "{597, 18}";
type = Stem;
},
{
place = "{2, 36}";
type = Stem;
},
{
place = "{263, 33}";
type = Stem;
},
{
place = "{712, 48}";
type = Stem;
},
{
place = "{1043, 17}";
type = Stem;
},
{
place = "{1239, 8}";
type = Stem;
},
{
horizontal = 1;
place = "{-208, 33}";
type = Stem;
},
{
horizontal = 1;
place = "{583, 37}";
type = Stem;
}
);
layerId = "47CF47DF-B93A-4126-8606-39E7B9FB561A";
paths = (
{
closed = 1;
nodes = (
"701 601 OFFCURVE",
"700 606 OFFCURVE",
"698 607 CURVE SMOOTH",
"691 612 OFFCURVE",
"671 615 OFFCURVE",
"639 615 CURVE SMOOTH",
"551 615 OFFCURVE",
"464 599 OFFCURVE",
"378 568 CURVE SMOOTH",
"301 540 OFFCURVE",
"263 510 OFFCURVE",
"263 479 CURVE SMOOTH",
"263 468 OFFCURVE",
"269 455 OFFCURVE",
"282 438 CURVE SMOOTH",
"295 422 OFFCURVE",
"306 414 OFFCURVE",
"314 414 CURVE SMOOTH",
"316 414 OFFCURVE",
"317 415 OFFCURVE",
"317 416 CURVE",
"317 416 OFFCURVE",
"296 440 OFFCURVE",
"296 463 CURVE SMOOTH",
"296 506 OFFCURVE",
"341 541 OFFCURVE",
"432 568 CURVE SMOOTH",
"499 587 OFFCURVE",
"563 597 OFFCURVE",
"622 597 CURVE SMOOTH",
"630 597 OFFCURVE",
"638 597 OFFCURVE",
"646 596 CURVE",
"623 485 OFFCURVE",
"591 381 OFFCURVE",
"550 284 CURVE",
"513 326 OFFCURVE",
"486 347 OFFCURVE",
"469 347 CURVE SMOOTH",
"463 347 OFFCURVE",
"459 345 OFFCURVE",
"456 342 CURVE",
"459 339 OFFCURVE",
"461 336 OFFCURVE",
"464 335 CURVE",
"495 316 OFFCURVE",
"521 294 OFFCURVE",
"543 269 CURVE",
"506 184 OFFCURVE",
"464 107 OFFCURVE",
"417 40 CURVE SMOOTH",
"352 -55 OFFCURVE",
"290 -112 OFFCURVE",
"232 -129 CURVE SMOOTH",
"209 -136 OFFCURVE",
"188 -139 OFFCURVE",
"168 -139 CURVE SMOOTH",
"125 -139 OFFCURVE",
"92 -123 OFFCURVE",
"69 -92 CURVE SMOOTH",
"48 -64 OFFCURVE",
"38 -28 OFFCURVE",
"38 16 CURVE SMOOTH",
"38 67 OFFCURVE",
"52 115 OFFCURVE",
"79 158 CURVE SMOOTH",
"110 208 OFFCURVE",
"150 233 OFFCURVE",
"199 233 CURVE SMOOTH",
"220 233 OFFCURVE",
"235 227 OFFCURVE",
"242 215 CURVE SMOOTH",
"252 195 LINE",
"254 196 OFFCURVE",
"255 198 OFFCURVE",
"255 202 CURVE SMOOTH",
"255 231 OFFCURVE",
"220 252 OFFCURVE",
"188 252 CURVE SMOOTH",
"132 252 OFFCURVE",
"86 229 OFFCURVE",
"51 182 CURVE SMOOTH",
"18 139 OFFCURVE",
"2 89 OFFCURVE",
"2 32 CURVE SMOOTH",
"2 -76 OFFCURVE",
"67 -151 OFFCURVE",
"172 -151 CURVE SMOOTH",
"323 -151 OFFCURVE",
"459 -27 OFFCURVE",
"579 220 CURVE",
"586 208 OFFCURVE",
"594 195 OFFCURVE",
"601 180 CURVE",
"570 120 OFFCURVE",
"550 81 OFFCURVE",
"539 64 CURVE SMOOTH",
"508 13 OFFCURVE",
"481 -20 OFFCURVE",
"457 -34 CURVE SMOOTH",
"448 -39 OFFCURVE",
"436 -43 OFFCURVE",
"421 -45 CURVE SMOOTH",
"418 -45 OFFCURVE",
"416 -47 OFFCURVE",
"416 -50 CURVE SMOOTH",
"416 -57 OFFCURVE",
"421 -61 OFFCURVE",
"432 -61 CURVE SMOOTH",
"462 -61 OFFCURVE",
"505 -11 OFFCURVE",
"562 89 CURVE SMOOTH",
"607 170 LINE",
"635 115 OFFCURVE",
"663 59 OFFCURVE",
"690 3 CURVE",
"723 -54 OFFCURVE",
"762 -103 OFFCURVE",
"808 -142 CURVE SMOOTH",
"859 -186 OFFCURVE",
"908 -208 OFFCURVE",
"954 -208 CURVE SMOOTH",
"1018 -208 OFFCURVE",
"1060 -160 OFFCURVE",
"1060 -95 CURVE SMOOTH",
"1060 -50 OFFCURVE",
"1044 -8 OFFCURVE",
"1011 30 CURVE SMOOTH",
"1007 35 OFFCURVE",
"1003 37 OFFCURVE",
"1000 37 CURVE SMOOTH",
"998 37 OFFCURVE",
"997 36 OFFCURVE",
"997 34 CURVE SMOOTH",
"997 33 OFFCURVE",
"998 31 OFFCURVE",
"1000 28 CURVE SMOOTH",
"1029 -12 OFFCURVE",
"1043 -54 OFFCURVE",
"1043 -99 CURVE SMOOTH",
"1043 -150 OFFCURVE",
"1024 -175 OFFCURVE",
"986 -175 CURVE SMOOTH",
"962 -175 OFFCURVE",
"932 -163 OFFCURVE",
"897 -139 CURVE SMOOTH",
"862 -115 OFFCURVE",
"814 -63 OFFCURVE",
"752 17 CURVE SMOOTH",
"621 195 LINE",
"663 269 OFFCURVE",
"701 329 OFFCURVE",
"734 374 CURVE",
"749 376 OFFCURVE",
"765 383 OFFCURVE",
"782 394 CURVE SMOOTH",
"800 405 OFFCURVE",
"809 417 OFFCURVE",
"809 430 CURVE SMOOTH",
"809 439 OFFCURVE",
"803 444 OFFCURVE",
"790 444 CURVE",
"875 537 OFFCURVE",
"963 583 OFFCURVE",
"1054 583 CURVE SMOOTH",
"1104 583 OFFCURVE",
"1147 569 OFFCURVE",
"1182 542 CURVE SMOOTH",
"1220 512 OFFCURVE",
"1239 473 OFFCURVE",
"1239 424 CURVE SMOOTH",
"1239 412 OFFCURVE",
"1240 406 OFFCURVE",
"1242 406 CURVE SMOOTH",
"1245 406 OFFCURVE",
"1247 413 OFFCURVE",
"1247 428 CURVE SMOOTH",
"1247 481 OFFCURVE",
"1230 527 OFFCURVE",
"1196 564 CURVE SMOOTH",
"1162 601 OFFCURVE",
"1119 620 OFFCURVE",
"1066 620 CURVE SMOOTH",
"956 620 OFFCURVE",
"854 561 OFFCURVE",
"760 443 CURVE",
"756 469 OFFCURVE",
"748 482 OFFCURVE",
"737 482 CURVE SMOOTH",
"720 482 OFFCURVE",
"712 466 OFFCURVE",
"712 433 CURVE SMOOTH",
"712 419 OFFCURVE",
"715 404 OFFCURVE",
"720 389 CURVE",
"690 344 OFFCURVE",
"655 283 OFFCURVE",
"614 204 CURVE",
"605 217 OFFCURVE",
"596 228 OFFCURVE",
"587 239 CURVE",
"611 290 OFFCURVE",
"634 348 OFFCURVE",
"657 413 CURVE SMOOTH",
"686 497 OFFCURVE",
"701 557 OFFCURVE",
"701 594 CURVE SMOOTH"
);
}
);
width = 830;
}
);
note = K;
unicode = 004B;
},
{
glyphname = L;
layers = (
{
hints = (
{
horizontal = 1;
place = "{-142, 27}";
type = Stem;
},
{
horizontal = 1;
place = "{64, 8}";
type = Stem;
},
{
horizontal = 1;
place = "{148, 17}";
type = Stem;
},
{
horizontal = 1;
place = "{613, 30}";
type = Stem;
},
{
place = "{-54, 21}";
type = Stem;
},
{
place = "{101, 33}";
type = Stem;
},
{
place = "{486, 11}";
type = Stem;
},
{
place = "{892, 11}";
type = Stem;
},
{
place = "{1000, 12}";
type = Stem;
},
{
horizontal = 1;
place = "{-200, 52}";
type = Stem;
}
);
layerId = "47CF47DF-B93A-4126-8606-39E7B9FB561A";
paths = (
{
closed = 1;
nodes = (
"1012 -67 OFFCURVE",
"1007 -51 OFFCURVE",
"996 -32 CURVE SMOOTH",
"986 -13 OFFCURVE",
"975 -1 OFFCURVE",
"964 5 CURVE",
"988 -32 OFFCURVE",
"1000 -63 OFFCURVE",
"1000 -88 CURVE SMOOTH",
"1000 -128 OFFCURVE",
"966 -148 OFFCURVE",
"897 -148 CURVE SMOOTH",
"828 -148 OFFCURVE",
"737 -127 OFFCURVE",
"622 -85 CURVE SMOOTH",
"352 20 LINE",
"374 51 OFFCURVE",
"398 86 OFFCURVE",
"423 125 CURVE SMOOTH",
"450 168 LINE",
"468 177 OFFCURVE",
"482 183 OFFCURVE",
"492 187 CURVE SMOOTH",
"516 198 OFFCURVE",
"539 210 OFFCURVE",
"560 221 CURVE SMOOTH",
"789 338 OFFCURVE",
"903 449 OFFCURVE",
"903 554 CURVE SMOOTH",
"903 605 OFFCURVE",
"871 643 OFFCURVE",
"822 643 CURVE SMOOTH",
"702 643 OFFCURVE",
"593 531 OFFCURVE",
"494 306 CURVE SMOOTH",
"467 239 LINE SMOOTH",
"453 204 OFFCURVE",
"443 183 OFFCURVE",
"437 176 CURVE",
"422 170 OFFCURVE",
"410 167 OFFCURVE",
"401 168 CURVE SMOOTH",
"398 168 LINE",
"411 194 OFFCURVE",
"425 227 OFFCURVE",
"440 267 CURVE",
"477 302 OFFCURVE",
"495 329 OFFCURVE",
"495 348 CURVE SMOOTH",
"495 357 OFFCURVE",
"492 361 OFFCURVE",
"487 361 CURVE SMOOTH",
"482 361 OFFCURVE",
"475 358 OFFCURVE",
"466 353 CURVE",
"487 438 OFFCURVE",
"497 519 OFFCURVE",
"497 594 CURVE SMOOTH",
"497 622 OFFCURVE",
"495 644 OFFCURVE",
"490 659 CURVE",
"487 661 LINE",
"486 661 OFFCURVE",
"485 659 OFFCURVE",
"485 655 CURVE SMOOTH",
"485 648 LINE",
"486 645 OFFCURVE",
"486 643 OFFCURVE",
"486 641 CURVE SMOOTH",
"486 596 OFFCURVE",
"483 545 OFFCURVE",
"478 490 CURVE SMOOTH",
"471 421 OFFCURVE",
"461 373 OFFCURVE",
"450 345 CURVE",
"439 366 OFFCURVE",
"429 376 OFFCURVE",
"419 376 CURVE SMOOTH",
"412 376 OFFCURVE",
"408 367 OFFCURVE",
"408 348 CURVE SMOOTH",
"408 336 OFFCURVE",
"411 320 OFFCURVE",
"418 301 CURVE SMOOTH",
"425 282 OFFCURVE",
"429 272 OFFCURVE",
"429 272 CURVE",
"429 263 OFFCURVE",
"413 227 OFFCURVE",
"381 165 CURVE",
"323 165 OFFCURVE",
"270 179 OFFCURVE",
"221 208 CURVE SMOOTH",
"163 241 OFFCURVE",
"134 285 OFFCURVE",
"134 339 CURVE SMOOTH",
"134 388 OFFCURVE",
"156 420 OFFCURVE",
"200 436 CURVE",
"201 437 OFFCURVE",
"201 438 OFFCURVE",
"201 439 CURVE SMOOTH",
"201 441 OFFCURVE",
"200 442 OFFCURVE",
"198 442 CURVE SMOOTH",
"196 442 OFFCURVE",
"193 441 OFFCURVE",
"190 439 CURVE SMOOTH",
"131 408 OFFCURVE",
"101 364 OFFCURVE",
"101 308 CURVE SMOOTH",
"101 201 OFFCURVE",
"192 148 OFFCURVE",
"373 148 CURVE",
"358 115 OFFCURVE",
"334 78 OFFCURVE",
"302 35 CURVE",
"224 60 OFFCURVE",
"161 72 OFFCURVE",
"114 72 CURVE SMOOTH",
"72 72 OFFCURVE",
"35 64 OFFCURVE",
"4 47 CURVE SMOOTH",
"-35 27 OFFCURVE",
"-54 -2 OFFCURVE",
"-54 -40 CURVE SMOOTH",
"-54 -68 OFFCURVE",
"-39 -92 OFFCURVE",
"-9 -113 CURVE SMOOTH",
"18 -132 OFFCURVE",
"47 -142 OFFCURVE",
"76 -142 CURVE SMOOTH",
"130 -142 OFFCURVE",
"179 -128 OFFCURVE",
"224 -99 CURVE SMOOTH",
"257 -78 OFFCURVE",
"296 -43 OFFCURVE",
"339 6 CURVE",
"368 -6 OFFCURVE",
"419 -32 OFFCURVE",
"493 -73 CURVE SMOOTH",
"568 -114 OFFCURVE",
"625 -143 OFFCURVE",
"665 -160 CURVE SMOOTH",
"729 -187 OFFCURVE",
"783 -200 OFFCURVE",
"826 -200 CURVE SMOOTH",
"867 -200 OFFCURVE",
"906 -190 OFFCURVE",
"944 -170 CURVE SMOOTH",
"989 -147 OFFCURVE",
"1012 -117 OFFCURVE",
"1012 -80 CURVE SMOOTH"
);
},
{
closed = 1;
nodes = (
"892 513 OFFCURVE",
"833 439 OFFCURVE",
"716 344 CURVE SMOOTH",
"611 259 OFFCURVE",
"525 206 OFFCURVE",
"459 183 CURVE",
"494 238 OFFCURVE",
"520 282 OFFCURVE",
"537 313 CURVE SMOOTH",
"656 513 OFFCURVE",
"753 613 OFFCURVE",
"829 613 CURVE SMOOTH",
"861 613 OFFCURVE",
"892 599 OFFCURVE",
"892 568 CURVE SMOOTH"
);
},
{
closed = 1;
nodes = (
"379 82 OFFCURVE",
"348 36 OFFCURVE",
"336 23 CURVE",
"315 30 LINE",
"392 152 LINE",
"415 157 OFFCURVE",
"428 160 OFFCURVE",
"429 161 CURVE"
);
},
{
closed = 1;
nodes = (
"306 -20 OFFCURVE",
"270 -48 OFFCURVE",
"218 -75 CURVE SMOOTH",
"166 -102 OFFCURVE",
"122 -115 OFFCURVE",
"86 -115 CURVE SMOOTH",
"57 -115 OFFCURVE",
"31 -107 OFFCURVE",
"8 -92 CURVE SMOOTH",
"-19 -74 OFFCURVE",
"-33 -52 OFFCURVE",
"-33 -25 CURVE SMOOTH",
"-33 5 OFFCURVE",
"-15 28 OFFCURVE",
"21 45 CURVE SMOOTH",
"49 58 OFFCURVE",
"80 64 OFFCURVE",
"115 64 CURVE SMOOTH",
"152 64 OFFCURVE",
"211 51 OFFCURVE",
"292 25 CURVE",
"283 10 OFFCURVE",
"268 -5 OFFCURVE",
"249 -22 CURVE SMOOTH",
"233 -35 OFFCURVE",
"217 -49 OFFCURVE",
"200 -62 CURVE",
"231 -51 OFFCURVE",
"259 -32 OFFCURVE",
"286 -4 CURVE SMOOTH",
"306 19 LINE",
"312 17 OFFCURVE",
"319 14 OFFCURVE",
"327 9 CURVE"
);
}
);
width = 584;
}
);
note = L;
unicode = 004C;
},
{
glyphname = M;
layers = (
{
hints = (
{
horizontal = 1;
place = "{-144, 16}";
type = Stem;
},
{
horizontal = 1;
place = "{-34, 13}";
type = Stem;
},
{
horizontal = 1;
place = "{669, 42}";
type = Stem;
},
{
place = "{-6, 20}";
type = Stem;
},
{
place = "{99, 17}";
type = Stem;
},
{
place = "{553, 13}";
type = Stem;
},
{
place = "{597, 29}";
type = Stem;
},
{
place = "{964, 53}";
type = Stem;
},
{
place = "{1399, 8}";
type = Stem;
},
{
place = "{619, 53}";
type = Stem;
},
{
place = "{655, 48}";
type = Stem;
}
);
layerId = "47CF47DF-B93A-4126-8606-39E7B9FB561A";
paths = (
{
closed = 1;
nodes = (
"672 542 OFFCURVE",
"688 599 OFFCURVE",
"721 616 CURVE SMOOTH",
"724 618 OFFCURVE",
"726 620 OFFCURVE",
"726 622 CURVE SMOOTH",
"726 623 OFFCURVE",
"725 624 OFFCURVE",
"724 624 CURVE SMOOTH",
"687 624 OFFCURVE",
"658 583 OFFCURVE",
"639 500 CURVE SMOOTH",
"626 443 OFFCURVE",
"619 387 OFFCURVE",
"619 333 CURVE SMOOTH",
"619 274 OFFCURVE",
"624 215 OFFCURVE",
"634 157 CURVE SMOOTH",
"648 79 OFFCURVE",
"655 24 OFFCURVE",
"655 -9 CURVE SMOOTH",
"655 -40 OFFCURVE",
"651 -61 OFFCURVE",
"643 -73 CURVE",
"638 -74 OFFCURVE",
"635 -77 OFFCURVE",
"635 -84 CURVE SMOOTH",
"635 -87 OFFCURVE",
"636 -88 OFFCURVE",
"637 -88 CURVE SMOOTH",
"644 -88 OFFCURVE",
"658 -78 OFFCURVE",
"679 -58 CURVE SMOOTH",
"706 -33 OFFCURVE",
"740 10 OFFCURVE",
"781 71 CURVE SMOOTH",
"786 80 OFFCURVE",
"826 143 OFFCURVE",
"901 260 CURVE SMOOTH",
"949 336 OFFCURVE",
"991 398 OFFCURVE",
"1027 445 CURVE",
"985 294 OFFCURVE",
"964 184 OFFCURVE",
"964 115 CURVE SMOOTH",
"964 16 OFFCURVE",
"999 -34 OFFCURVE",
"1068 -34 CURVE SMOOTH",
"1117 -34 OFFCURVE",
"1170 20 OFFCURVE",
"1227 129 CURVE SMOOTH",
"1229 132 OFFCURVE",
"1230 135 OFFCURVE",
"1230 137 CURVE SMOOTH",
"1230 138 OFFCURVE",
"1229 139 OFFCURVE",
"1228 140 CURVE",
"1226 140 OFFCURVE",
"1224 138 OFFCURVE",
"1221 133 CURVE SMOOTH",
"1198 96 LINE SMOOTH",
"1148 18 OFFCURVE",
"1107 -21 OFFCURVE",
"1076 -21 CURVE SMOOTH",
"1037 -21 OFFCURVE",
"1017 32 OFFCURVE",
"1017 137 CURVE SMOOTH",
"1017 204 OFFCURVE",
"1029 318 OFFCURVE",
"1054 478 CURVE",
"1158 605 OFFCURVE",
"1248 669 OFFCURVE",
"1325 669 CURVE SMOOTH",
"1374 669 OFFCURVE",
"1399 646 OFFCURVE",
"1399 599 CURVE SMOOTH",
"1399 586 OFFCURVE",
"1389 555 OFFCURVE",
"1389 546 CURVE SMOOTH",
"1389 545 OFFCURVE",
"1389 544 OFFCURVE",
"1390 543 CURVE",
"1395 544 OFFCURVE",
"1399 556 OFFCURVE",
"1403 578 CURVE SMOOTH",
"1406 595 OFFCURVE",
"1407 609 OFFCURVE",
"1407 618 CURVE SMOOTH",
"1407 645 OFFCURVE",
"1401 666 OFFCURVE",
"1388 683 CURVE SMOOTH",
"1373 702 OFFCURVE",
"1353 711 OFFCURVE",
"1328 711 CURVE SMOOTH",
"1289 711 OFFCURVE",
"1240 687 OFFCURVE",
"1181 639 CURVE SMOOTH",
"1138 604 OFFCURVE",
"1098 564 OFFCURVE",
"1060 519 CURVE",
"1063 537 OFFCURVE",
"1064 548 OFFCURVE",
"1064 551 CURVE SMOOTH",
"1064 557 OFFCURVE",
"1063 560 OFFCURVE",
"1061 560 CURVE SMOOTH",
"1060 560 OFFCURVE",
"1053 539 OFFCURVE",
"1042 497 CURVE",
"1005 451 OFFCURVE",
"967 397 OFFCURVE",
"928 335 CURVE SMOOTH",
"905 301 OFFCURVE",
"871 245 OFFCURVE",
"825 167 CURVE SMOOTH",
"744 32 OFFCURVE",
"687 -46 OFFCURVE",
"656 -66 CURVE",
"687 -17 OFFCURVE",
"703 44 OFFCURVE",
"703 116 CURVE SMOOTH",
"703 130 OFFCURVE",
"702 143 OFFCURVE",
"700 156 CURVE SMOOTH",
"681 276 OFFCURVE",
"672 372 OFFCURVE",
"672 444 CURVE SMOOTH"
);
},
{
closed = 1;
nodes = (
"626 574 OFFCURVE",
"625 591 OFFCURVE",
"623 602 CURVE SMOOTH",
"621 610 OFFCURVE",
"617 614 OFFCURVE",
"610 614 CURVE SMOOTH",
"605 614 OFFCURVE",
"600 611 OFFCURVE",
"596 606 CURVE",
"588 603 OFFCURVE",
"577 601 OFFCURVE",
"564 598 CURVE",
"565 613 OFFCURVE",
"566 628 OFFCURVE",
"566 643 CURVE SMOOTH",
"566 665 OFFCURVE",
"565 684 OFFCURVE",
"563 700 CURVE",
"562 703 OFFCURVE",
"561 705 OFFCURVE",
"560 705 CURVE SMOOTH",
"555 705 OFFCURVE",
"553 702 OFFCURVE",
"553 697 CURVE SMOOTH",
"553 650 OFFCURVE",
"552 616 OFFCURVE",
"550 596 CURVE",
"388 572 LINE SMOOTH",
"305 558 OFFCURVE",
"240 540 OFFCURVE",
"194 519 CURVE SMOOTH",
"131 490 OFFCURVE",
"99 455 OFFCURVE",
"99 412 CURVE SMOOTH",
"99 373 OFFCURVE",
"115 338 OFFCURVE",
"147 305 CURVE SMOOTH",
"179 273 OFFCURVE",
"214 257 OFFCURVE",
"253 257 CURVE SMOOTH",
"258 257 OFFCURVE",
"261 258 OFFCURVE",
"261 261 CURVE SMOOTH",
"261 262 OFFCURVE",
"259 263 OFFCURVE",
"255 264 CURVE SMOOTH",
"222 273 OFFCURVE",
"191 291 OFFCURVE",
"162 318 CURVE SMOOTH",
"131 349 OFFCURVE",
"116 380 OFFCURVE",
"116 412 CURVE SMOOTH",
"116 453 OFFCURVE",
"157 485 OFFCURVE",
"240 506 CURVE SMOOTH",
"273 514 OFFCURVE",
"332 522 OFFCURVE",
"415 531 CURVE SMOOTH",
"481 538 OFFCURVE",
"524 544 OFFCURVE",
"544 547 CURVE",
"531 458 OFFCURVE",
"504 368 OFFCURVE",
"463 278 CURVE",
"460 277 LINE",
"455 300 OFFCURVE",
"447 311 OFFCURVE",
"436 311 CURVE SMOOTH",
"419 311 OFFCURVE",
"411 281 OFFCURVE",
"411 261 CURVE SMOOTH",
"411 242 OFFCURVE",
"416 223 OFFCURVE",
"426 205 CURVE",
"393 144 OFFCURVE",
"355 90 OFFCURVE",
"314 42 CURVE SMOOTH",
"262 -19 OFFCURVE",
"211 -59 OFFCURVE",
"160 -79 CURVE",
"138 -85 OFFCURVE",
"121 -89 OFFCURVE",
"110 -90 CURVE SMOOTH",
"104 -91 OFFCURVE",
"101 -94 OFFCURVE",
"101 -98 CURVE SMOOTH",
"101 -103 OFFCURVE",
"105 -106 OFFCURVE",
"112 -106 CURVE SMOOTH",
"130 -106 OFFCURVE",
"151 -101 OFFCURVE",
"174 -90 CURVE SMOOTH",
"264 -49 OFFCURVE",
"351 48 OFFCURVE",
"435 200 CURVE",
"450 207 OFFCURVE",
"466 220 OFFCURVE",
"484 239 CURVE SMOOTH",
"503 259 OFFCURVE",
"512 276 OFFCURVE",
"512 290 CURVE SMOOTH",
"512 296 OFFCURVE",
"509 299 OFFCURVE",
"503 299 CURVE SMOOTH",
"497 299 OFFCURVE",
"489 296 OFFCURVE",
"480 291 CURVE",
"521 381 OFFCURVE",
"547 467 OFFCURVE",
"559 550 CURVE",
"574 553 OFFCURVE",
"587 557 OFFCURVE",
"596 561 CURVE",
"597 555 OFFCURVE",
"597 549 OFFCURVE",
"597 543 CURVE SMOOTH",
"597 465 OFFCURVE",
"573 373 OFFCURVE",
"524 268 CURVE SMOOTH",
"473 159 OFFCURVE",
"411 68 OFFCURVE",
"337 -5 CURVE SMOOTH",
"253 -87 OFFCURVE",
"169 -128 OFFCURVE",
"86 -128 CURVE SMOOTH",
"42 -128 OFFCURVE",
"14 -90 OFFCURVE",
"14 -46 CURVE SMOOTH",
"14 -32 OFFCURVE",
"17 -16 OFFCURVE",
"24 1 CURVE SMOOTH",
"31 18 OFFCURVE",
"35 27 OFFCURVE",
"35 27 CURVE",
"35 30 OFFCURVE",
"34 32 OFFCURVE",
"32 32 CURVE SMOOTH",
"31 32 OFFCURVE",
"29 31 OFFCURVE",
"27 28 CURVE SMOOTH",
"5 -1 OFFCURVE",
"-6 -31 OFFCURVE",
"-6 -61 CURVE SMOOTH",
"-6 -112 OFFCURVE",
"29 -144 OFFCURVE",
"81 -144 CURVE SMOOTH",
"160 -144 OFFCURVE",
"237 -113 OFFCURVE",
"314 -51 CURVE SMOOTH",
"399 18 OFFCURVE",
"471 108 OFFCURVE",
"531 219 CURVE SMOOTH",
"594 336 OFFCURVE",
"626 447 OFFCURVE",
"626 550 CURVE SMOOTH"
);
}
);
width = 1211;
}
);
note = M;
unicode = 004D;
},
{
glyphname = N;
layers = (
{
hints = (
{
horizontal = 1;
place = "{-144, 16}";
type = Stem;
},
{
horizontal = 1;
place = "{-53, 21}";
type = Stem;
},
{
horizontal = 1;
place = "{668, 51}";
type = Stem;
},
{
place = "{2, 20}";
type = Stem;
},
{
place = "{107, 17}";
type = Stem;
},
{
place = "{416, 96}";
type = Stem;
},
{
place = "{558, 12}";
type = Stem;
}
);
layerId = "47CF47DF-B93A-4126-8606-39E7B9FB561A";
paths = (
{
closed = 1;
nodes = (
"722 150 OFFCURVE",
"691 263 OFFCURVE",
"662 416 CURVE SMOOTH",
"643 519 LINE SMOOTH",
"635 559 OFFCURVE",
"633 574 OFFCURVE",
"632 593 CURVE SMOOTH",
"631 607 OFFCURVE",
"626 614 OFFCURVE",
"619 614 CURVE SMOOTH",
"613 614 OFFCURVE",
"608 611 OFFCURVE",
"605 606 CURVE",
"595 603 OFFCURVE",
"581 599 OFFCURVE",
"562 596 CURVE",
"567 631 OFFCURVE",
"570 664 OFFCURVE",
"570 695 CURVE SMOOTH",
"570 715 OFFCURVE",
"569 732 OFFCURVE",
"568 746 CURVE",
"567 749 OFFCURVE",
"566 751 OFFCURVE",
"564 751 CURVE SMOOTH",
"560 751 OFFCURVE",
"558 748 OFFCURVE",
"558 743 CURVE SMOOTH",
"558 685 OFFCURVE",
"555 635 OFFCURVE",
"549 594 CURVE",
"496 586 OFFCURVE",
"443 578 OFFCURVE",
"390 571 CURVE SMOOTH",
"309 557 OFFCURVE",
"245 539 OFFCURVE",
"200 518 CURVE SMOOTH",
"138 489 OFFCURVE",
"107 454 OFFCURVE",
"107 412 CURVE SMOOTH",
"107 373 OFFCURVE",
"123 338 OFFCURVE",
"155 305 CURVE SMOOTH",
"187 273 OFFCURVE",
"222 257 OFFCURVE",
"261 257 CURVE SMOOTH",
"266 257 OFFCURVE",
"269 258 OFFCURVE",
"269 261 CURVE SMOOTH",
"269 262 OFFCURVE",
"267 263 OFFCURVE",
"263 264 CURVE SMOOTH",
"230 273 OFFCURVE",
"199 291 OFFCURVE",
"171 318 CURVE SMOOTH",
"140 349 OFFCURVE",
"124 380 OFFCURVE",
"124 412 CURVE SMOOTH",
"124 453 OFFCURVE",
"164 483 OFFCURVE",
"243 504 CURVE SMOOTH",
"276 513 OFFCURVE",
"332 522 OFFCURVE",
"411 530 CURVE SMOOTH",
"540 545 LINE",
"525 476 OFFCURVE",
"504 405 OFFCURVE",
"476 334 CURVE",
"463 324 LINE",
"456 347 OFFCURVE",
"447 358 OFFCURVE",
"436 358 CURVE SMOOTH",
"423 358 OFFCURVE",
"416 345 OFFCURVE",
"416 320 CURVE SMOOTH",
"416 296 OFFCURVE",
"424 274 OFFCURVE",
"440 253 CURVE",
"408 185 OFFCURVE",
"372 124 OFFCURVE",
"333 69 CURVE SMOOTH",
"279 -5 OFFCURVE",
"228 -52 OFFCURVE",
"180 -71 CURVE",
"147 -80 OFFCURVE",
"134 -79 OFFCURVE",
"134 -87 CURVE SMOOTH",
"134 -92 OFFCURVE",
"137 -94 OFFCURVE",
"144 -94 CURVE SMOOTH",
"161 -94 OFFCURVE",
"181 -88 OFFCURVE",
"202 -76 CURVE SMOOTH",
"287 -29 OFFCURVE",
"371 80 OFFCURVE",
"452 253 CURVE",
"479 270 OFFCURVE",
"512 308 OFFCURVE",
"512 335 CURVE SMOOTH",
"512 342 OFFCURVE",
"509 346 OFFCURVE",
"502 346 CURVE SMOOTH",
"499 346 OFFCURVE",
"495 345 OFFCURVE",
"491 343 CURVE",
"519 414 OFFCURVE",
"540 482 OFFCURVE",
"554 547 CURVE",
"576 551 OFFCURVE",
"593 556 OFFCURVE",
"604 561 CURVE",
"605 555 OFFCURVE",
"605 549 OFFCURVE",
"605 543 CURVE SMOOTH",
"605 465 OFFCURVE",
"581 373 OFFCURVE",
"532 268 CURVE SMOOTH",
"481 159 OFFCURVE",
"419 68 OFFCURVE",
"345 -5 CURVE SMOOTH",
"261 -87 OFFCURVE",
"177 -128 OFFCURVE",
"94 -128 CURVE SMOOTH",
"51 -128 OFFCURVE",
"22 -90 OFFCURVE",
"22 -46 CURVE SMOOTH",
"22 -32 OFFCURVE",
"25 -16 OFFCURVE",
"32 1 CURVE SMOOTH",
"39 18 OFFCURVE",
"43 27 OFFCURVE",
"43 27 CURVE",
"43 30 OFFCURVE",
"42 32 OFFCURVE",
"40 32 CURVE SMOOTH",
"39 32 OFFCURVE",
"37 31 OFFCURVE",
"35 28 CURVE SMOOTH",
"13 -1 OFFCURVE",
"2 -31 OFFCURVE",
"2 -61 CURVE SMOOTH",
"2 -112 OFFCURVE",
"37 -144 OFFCURVE",
"89 -144 CURVE SMOOTH",
"168 -144 OFFCURVE",
"245 -113 OFFCURVE",
"322 -51 CURVE SMOOTH",
"397 9 OFFCURVE",
"462 87 OFFCURVE",
"518 182 CURVE SMOOTH",
"575 277 OFFCURVE",
"611 372 OFFCURVE",
"627 466 CURVE",
"639 337 OFFCURVE",
"647 262 OFFCURVE",
"650 241 CURVE SMOOTH",
"664 148 OFFCURVE",
"686 78 OFFCURVE",
"717 29 CURVE",
"712 26 OFFCURVE",
"705 24 OFFCURVE",
"695 22 CURVE SMOOTH",
"688 21 OFFCURVE",
"684 19 OFFCURVE",
"684 17 CURVE SMOOTH",
"684 8 OFFCURVE",
"691 4 OFFCURVE",
"705 4 CURVE SMOOTH",
"714 4 OFFCURVE",
"722 6 OFFCURVE",
"729 11 CURVE",
"760 -32 OFFCURVE",
"794 -53 OFFCURVE",
"832 -53 CURVE SMOOTH",
"871 -53 OFFCURVE",
"911 -33 OFFCURVE",
"951 8 CURVE SMOOTH",
"955 12 OFFCURVE",
"957 16 OFFCURVE",
"957 19 CURVE SMOOTH",
"957 21 OFFCURVE",
"956 22 OFFCURVE",
"955 22 CURVE",
"956 22 OFFCURVE",
"946 13 OFFCURVE",
"923 -5 CURVE SMOOTH",
"900 -23 OFFCURVE",
"880 -32 OFFCURVE",
"861 -32 CURVE SMOOTH",
"826 -32 OFFCURVE",
"794 -2 OFFCURVE",
"765 57 CURVE",
"776 80 OFFCURVE",
"785 107 OFFCURVE",
"794 139 CURVE SMOOTH",
"797 148 OFFCURVE",
"804 177 OFFCURVE",
"815 225 CURVE SMOOTH",
"843 343 OFFCURVE",
"866 424 OFFCURVE",
"884 469 CURVE SMOOTH",
"923 565 OFFCURVE",
"974 628 OFFCURVE",
"1037 657 CURVE SMOOTH",
"1052 664 OFFCURVE",
"1067 668 OFFCURVE",
"1082 668 CURVE SMOOTH",
"1109 668 OFFCURVE",
"1133 658 OFFCURVE",
"1154 637 CURVE SMOOTH",
"1171 618 OFFCURVE",
"1184 595 OFFCURVE",
"1193 567 CURVE SMOOTH",
"1195 562 OFFCURVE",
"1197 559 OFFCURVE",
"1199 559 CURVE SMOOTH",
"1201 559 OFFCURVE",
"1202 560 OFFCURVE",
"1202 563 CURVE SMOOTH",
"1202 595 OFFCURVE",
"1187 628 OFFCURVE",
"1158 663 CURVE SMOOTH",
"1128 700 OFFCURVE",
"1097 719 OFFCURVE",
"1065 719 CURVE SMOOTH",
"1046 719 OFFCURVE",
"1027 714 OFFCURVE",
"1008 703 CURVE SMOOTH",
"944 667 OFFCURVE",
"895 600 OFFCURVE",
"860 502 CURVE SMOOTH",
"844 457 OFFCURVE",
"824 373 OFFCURVE",
"800 249 CURVE SMOOTH",
"784 165 OFFCURVE",
"769 108 OFFCURVE",
"755 77 CURVE"
);
}
);
width = 956;
}
);
note = N;
unicode = 004E;
},
{
glyphname = O;
layers = (
{
hints = (
{
horizontal = 1;
place = "{-22, 34}";
type = Stem;
},
{
horizontal = 1;
place = "{484, 14}";
type = Stem;
},
{
horizontal = 1;
place = "{550, 14}";
type = Stem;
},
{
horizontal = 1;
place = "{731, -20}";
target = down;
type = TopGhost;
},
{
place = "{60, 14}";
type = Stem;
},
{
place = "{455, 12}";
type = Stem;
},
{
place = "{595, 37}";
type = Stem;
},
{
place = "{51, 30}";
type = Stem;
}
);
layerId = "47CF47DF-B93A-4126-8606-39E7B9FB561A";
paths = (
{
closed = 1;
nodes = (
"117 17 OFFCURVE",
"74 62 OFFCURVE",
"74 148 CURVE SMOOTH",
"74 166 OFFCURVE",
"78 186 OFFCURVE",
"87 209 CURVE",
"103 188 OFFCURVE",
"119 178 OFFCURVE",
"134 178 CURVE SMOOTH",
"140 178 OFFCURVE",
"143 180 OFFCURVE",
"143 185 CURVE SMOOTH",
"143 187 OFFCURVE",
"137 191 OFFCURVE",
"124 197 CURVE SMOOTH",
"109 204 OFFCURVE",
"99 213 OFFCURVE",
"93 224 CURVE",
"116 278 OFFCURVE",
"156 333 OFFCURVE",
"212 388 CURVE SMOOTH",
"276 452 OFFCURVE",
"333 484 OFFCURVE",
"382 484 CURVE SMOOTH",
"391 484 OFFCURVE",
"396 486 OFFCURVE",
"396 491 CURVE SMOOTH",
"396 496 OFFCURVE",
"392 498 OFFCURVE",
"383 498 CURVE SMOOTH",
"323 498 OFFCURVE",
"263 473 OFFCURVE",
"202 422 CURVE SMOOTH",
"145 375 OFFCURVE",
"105 321 OFFCURVE",
"82 262 CURVE",
"81 267 OFFCURVE",
"81 272 OFFCURVE",
"81 278 CURVE SMOOTH",
"81 313 OFFCURVE",
"89 347 OFFCURVE",
"105 379 CURVE SMOOTH",
"133 434 OFFCURVE",
"174 477 OFFCURVE",
"229 507 CURVE SMOOTH",
"280 536 OFFCURVE",
"338 550 OFFCURVE",
"403 550 CURVE SMOOTH",
"416 550 OFFCURVE",
"428 549 OFFCURVE",
"441 547 CURVE",
"428 478 OFFCURVE",
"408 407 OFFCURVE",
"380 334 CURVE",
"375 329 LINE",
"368 352 OFFCURVE",
"359 363 OFFCURVE",
"348 363 CURVE SMOOTH",
"335 363 OFFCURVE",
"328 350 OFFCURVE",
"328 325 CURVE SMOOTH",
"328 302 OFFCURVE",
"335 281 OFFCURVE",
"350 261 CURVE",
"306 162 OFFCURVE",
"257 79 OFFCURVE",
"202 13 CURVE"
);
},
{
closed = 1;
nodes = (
"541 525 OFFCURVE",
"595 458 OFFCURVE",
"595 370 CURVE SMOOTH",
"595 281 OFFCURVE",
"554 198 OFFCURVE",
"472 123 CURVE SMOOTH",
"392 50 OFFCURVE",
"307 13 OFFCURVE",
"216 12 CURVE",
"269 79 OFFCURVE",
"317 160 OFFCURVE",
"360 256 CURVE",
"373 263 OFFCURVE",
"387 276 OFFCURVE",
"402 293 CURVE SMOOTH",
"417 311 OFFCURVE",
"424 327 OFFCURVE",
"424 340 CURVE SMOOTH",
"424 347 OFFCURVE",
"421 351 OFFCURVE",
"414 351 CURVE SMOOTH",
"409 351 OFFCURVE",
"404 349 OFFCURVE",
"397 345 CURVE",
"423 415 OFFCURVE",
"442 481 OFFCURVE",
"454 544 CURVE"
);
},
{
closed = 1;
nodes = (
"467 694 OFFCURVE",
"466 711 OFFCURVE",
"464 726 CURVE SMOOTH",
"464 729 OFFCURVE",
"463 731 OFFCURVE",
"461 731 CURVE SMOOTH",
"457 731 OFFCURVE",
"455 728 OFFCURVE",
"455 723 CURVE SMOOTH",
"455 661 OFFCURVE",
"451 607 OFFCURVE",
"444 561 CURVE",
"431 563 OFFCURVE",
"417 564 OFFCURVE",
"403 564 CURVE SMOOTH",
"282 564 OFFCURVE",
"185 526 OFFCURVE",
"112 449 CURVE SMOOTH",
"71 407 OFFCURVE",
"51 362 OFFCURVE",
"51 313 CURVE SMOOTH",
"51 285 OFFCURVE",
"58 258 OFFCURVE",
"72 233 CURVE",
"64 205 OFFCURVE",
"60 177 OFFCURVE",
"60 148 CURVE SMOOTH",
"60 59 OFFCURVE",
"99 4 OFFCURVE",
"177 -16 CURVE",
"137 -59 OFFCURVE",
"100 -85 OFFCURVE",
"66 -96 CURVE",
"42 -100 OFFCURVE",
"31 -100 OFFCURVE",
"31 -107 CURVE SMOOTH",
"31 -112 OFFCURVE",
"34 -115 OFFCURVE",
"41 -115 CURVE SMOOTH",
"84 -115 OFFCURVE",
"134 -83 OFFCURVE",
"191 -19 CURVE",
"204 -21 OFFCURVE",
"218 -22 OFFCURVE",
"233 -22 CURVE SMOOTH",
"333 -22 OFFCURVE",
"424 16 OFFCURVE",
"506 91 CURVE SMOOTH",
"590 169 OFFCURVE",
"632 257 OFFCURVE",
"632 356 CURVE SMOOTH",
"632 407 OFFCURVE",
"616 451 OFFCURVE",
"583 488 CURVE SMOOTH",
"550 525 OFFCURVE",
"508 549 OFFCURVE",
"457 559 CURVE",
"464 601 OFFCURVE",
"467 639 OFFCURVE",
"467 674 CURVE SMOOTH"
);
}
);
width = 633;
}
);
note = O;
unicode = 004F;
},
{
glyphname = P;
layers = (
{
hints = (
{
horizontal = 1;
place = "{-151, 12}";
type = Stem;
},
{
horizontal = 1;
place = "{205, 16}";
type = Stem;
},
{
horizontal = 1;
place = "{233, 19}";
type = Stem;
},
{
horizontal = 1;
place = "{646, 17}";
type = Stem;
},
{
horizontal = 1;
place = "{738, -20}";
target = down;
type = TopGhost;
},
{
place = "{1, 37}";
type = Stem;
},
{
place = "{133, 48}";
type = Stem;
},
{
place = "{572, 12}";
type = Stem;
},
{
place = "{969, 53}";
type = Stem;
}
);
layerId = "47CF47DF-B93A-4126-8606-39E7B9FB561A";
paths = (
{
closed = 1;
nodes = (
"684 560 OFFCURVE",
"678 565 OFFCURVE",
"665 565 CURVE SMOOTH",
"644 565 OFFCURVE",
"630 555 OFFCURVE",
"624 534 CURVE SMOOTH",
"612 478 LINE SMOOTH",
"604 441 OFFCURVE",
"595 408 OFFCURVE",
"585 377 CURVE SMOOTH",
"550 264 OFFCURVE",
"491 147 OFFCURVE",
"409 28 CURVE SMOOTH",
"332 -83 OFFCURVE",
"251 -139 OFFCURVE",
"168 -139 CURVE SMOOTH",
"125 -139 OFFCURVE",
"92 -123 OFFCURVE",
"69 -92 CURVE SMOOTH",
"48 -64 OFFCURVE",
"38 -28 OFFCURVE",
"38 16 CURVE SMOOTH",
"38 67 OFFCURVE",
"52 115 OFFCURVE",
"79 158 CURVE SMOOTH",
"110 208 OFFCURVE",
"150 233 OFFCURVE",
"199 233 CURVE SMOOTH",
"220 233 OFFCURVE",
"235 227 OFFCURVE",
"242 215 CURVE SMOOTH",
"252 195 LINE",
"254 196 OFFCURVE",
"255 198 OFFCURVE",
"255 202 CURVE SMOOTH",
"255 231 OFFCURVE",
"220 252 OFFCURVE",
"188 252 CURVE SMOOTH",
"132 252 OFFCURVE",
"86 229 OFFCURVE",
"51 182 CURVE SMOOTH",
"18 139 OFFCURVE",
"1 89 OFFCURVE",
"1 32 CURVE SMOOTH",
"1 -76 OFFCURVE",
"67 -151 OFFCURVE",
"172 -151 CURVE SMOOTH",
"323 -151 OFFCURVE",
"456 -32 OFFCURVE",
"571 205 CURVE",
"650 203 OFFCURVE",
"725 213 OFFCURVE",
"796 234 CURVE SMOOTH",
"855 252 OFFCURVE",
"905 277 OFFCURVE",
"945 309 CURVE SMOOTH",
"996 350 OFFCURVE",
"1022 397 OFFCURVE",
"1022 449 CURVE SMOOTH",
"1022 502 OFFCURVE",
"995 548 OFFCURVE",
"942 585 CURVE SMOOTH",
"901 614 OFFCURVE",
"850 634 OFFCURVE",
"789 647 CURVE SMOOTH",
"740 658 OFFCURVE",
"688 663 OFFCURVE",
"632 663 CURVE SMOOTH",
"584 663 LINE",
"585 690 OFFCURVE",
"584 714 OFFCURVE",
"581 733 CURVE SMOOTH",
"581 736 OFFCURVE",
"580 738 OFFCURVE",
"578 738 CURVE SMOOTH",
"574 738 OFFCURVE",
"572 735 OFFCURVE",
"572 730 CURVE SMOOTH",
"572 662 LINE",
"497 659 OFFCURVE",
"425 648 OFFCURVE",
"358 629 CURVE SMOOTH",
"272 605 OFFCURVE",
"209 572 OFFCURVE",
"169 531 CURVE SMOOTH",
"145 506 OFFCURVE",
"133 479 OFFCURVE",
"133 450 CURVE SMOOTH",
"133 409 OFFCURVE",
"152 372 OFFCURVE",
"191 339 CURVE SMOOTH",
"227 308 OFFCURVE",
"266 291 OFFCURVE",
"308 288 CURVE SMOOTH",
"310 288 LINE SMOOTH",
"315 287 OFFCURVE",
"318 289 OFFCURVE",
"318 292 CURVE SMOOTH",
"318 294 OFFCURVE",
"316 296 OFFCURVE",
"312 297 CURVE SMOOTH",
"292 301 OFFCURVE",
"277 305 OFFCURVE",
"267 310 CURVE SMOOTH",
"210 334 OFFCURVE",
"181 373 OFFCURVE",
"181 427 CURVE SMOOTH",
"181 459 OFFCURVE",
"194 489 OFFCURVE",
"221 517 CURVE SMOOTH",
"260 557 OFFCURVE",
"315 589 OFFCURVE",
"384 612 CURVE SMOOTH",
"443 631 OFFCURVE",
"505 642 OFFCURVE",
"570 645 CURVE",
"565 589 OFFCURVE",
"555 530 OFFCURVE",
"538 467 CURVE",
"531 486 OFFCURVE",
"522 496 OFFCURVE",
"513 496 CURVE SMOOTH",
"500 496 OFFCURVE",
"493 483 OFFCURVE",
"493 457 CURVE SMOOTH",
"493 434 OFFCURVE",
"501 413 OFFCURVE",
"516 392 CURVE",
"485 299 OFFCURVE",
"443 209 OFFCURVE",
"391 122 CURVE SMOOTH",
"323 9 OFFCURVE",
"257 -60 OFFCURVE",
"192 -85 CURVE",
"160 -94 OFFCURVE",
"148 -93 OFFCURVE",
"148 -100 CURVE SMOOTH",
"148 -105 OFFCURVE",
"151 -107 OFFCURVE",
"158 -107 CURVE SMOOTH",
"183 -107 OFFCURVE",
"212 -95 OFFCURVE",
"245 -70 CURVE SMOOTH",
"302 -28 OFFCURVE",
"358 42 OFFCURVE",
"414 140 CURVE SMOOTH",
"460 220 OFFCURVE",
"498 303 OFFCURVE",
"527 389 CURVE",
"540 397 OFFCURVE",
"554 409 OFFCURVE",
"568 426 CURVE SMOOTH",
"582 443 OFFCURVE",
"589 459 OFFCURVE",
"589 472 CURVE SMOOTH",
"589 479 OFFCURVE",
"586 483 OFFCURVE",
"579 483 CURVE SMOOTH",
"572 483 OFFCURVE",
"563 479 OFFCURVE",
"552 472 CURVE",
"569 535 OFFCURVE",
"580 593 OFFCURVE",
"583 646 CURVE",
"603 646 LINE SMOOTH",
"658 647 OFFCURVE",
"711 640 OFFCURVE",
"762 626 CURVE SMOOTH",
"816 611 OFFCURVE",
"862 588 OFFCURVE",
"900 557 CURVE SMOOTH",
"946 518 OFFCURVE",
"969 474 OFFCURVE",
"969 425 CURVE SMOOTH",
"969 381 OFFCURVE",
"949 343 OFFCURVE",
"910 311 CURVE SMOOTH",
"879 286 OFFCURVE",
"839 266 OFFCURVE",
"790 252 CURVE SMOOTH",
"715 231 OFFCURVE",
"650 221 OFFCURVE",
"595 221 CURVE SMOOTH",
"578 221 LINE",
"623 317 OFFCURVE",
"656 412 OFFCURVE",
"677 507 CURVE SMOOTH",
"682 530 OFFCURVE",
"684 544 OFFCURVE",
"684 550 CURVE SMOOTH"
);
}
);
width = 952;
}
);
note = P;
unicode = 0050;
},
{
glyphname = Q;
layers = (
{
hints = (
{
horizontal = 1;
place = "{-199, 10}";
type = Stem;
},
{
horizontal = 1;
place = "{-22, 34}";
type = Stem;
},
{
horizontal = 1;
place = "{484, 14}";
type = Stem;
},
{
horizontal = 1;
place = "{550, 14}";
type = Stem;
},
{
horizontal = 1;
place = "{731, -20}";
target = down;
type = TopGhost;
},
{
place = "{-37, 16}";
type = Stem;
},
{
place = "{60, 14}";
type = Stem;
},
{
place = "{455, 12}";
type = Stem;
},
{
place = "{595, 37}";
type = Stem;
},
{
place = "{745, 8}";
type = Stem;
},
{
place = "{51, 30}";
type = Stem;
},
{
horizontal = 1;
place = "{-51, 10}";
type = Stem;
},
{
horizontal = 1;
place = "{-242, 39}";
type = Stem;
}
);
layerId = "47CF47DF-B93A-4126-8606-39E7B9FB561A";
paths = (
{
closed = 1;
nodes = (
"117 17 OFFCURVE",
"74 62 OFFCURVE",
"74 148 CURVE SMOOTH",
"74 166 OFFCURVE",
"78 186 OFFCURVE",
"87 209 CURVE",
"103 188 OFFCURVE",
"119 178 OFFCURVE",
"134 178 CURVE SMOOTH",
"140 178 OFFCURVE",
"143 180 OFFCURVE",
"143 185 CURVE SMOOTH",
"143 187 OFFCURVE",
"137 191 OFFCURVE",
"124 197 CURVE SMOOTH",
"109 204 OFFCURVE",
"99 213 OFFCURVE",
"93 224 CURVE",
"116 278 OFFCURVE",
"156 333 OFFCURVE",
"212 388 CURVE SMOOTH",
"276 452 OFFCURVE",
"333 484 OFFCURVE",
"382 484 CURVE SMOOTH",
"391 484 OFFCURVE",
"396 486 OFFCURVE",
"396 491 CURVE SMOOTH",
"396 496 OFFCURVE",
"392 498 OFFCURVE",
"383 498 CURVE SMOOTH",
"323 498 OFFCURVE",
"263 473 OFFCURVE",
"202 422 CURVE SMOOTH",
"145 375 OFFCURVE",
"105 321 OFFCURVE",
"82 262 CURVE",
"81 267 OFFCURVE",
"81 272 OFFCURVE",
"81 278 CURVE SMOOTH",
"81 313 OFFCURVE",
"89 347 OFFCURVE",
"105 379 CURVE SMOOTH",
"133 434 OFFCURVE",
"174 477 OFFCURVE",
"229 507 CURVE SMOOTH",
"280 536 OFFCURVE",
"338 550 OFFCURVE",
"403 550 CURVE SMOOTH",
"416 550 OFFCURVE",
"428 549 OFFCURVE",
"441 547 CURVE",
"428 478 OFFCURVE",
"408 407 OFFCURVE",
"380 334 CURVE",
"375 329 LINE",
"368 352 OFFCURVE",
"359 363 OFFCURVE",
"348 363 CURVE SMOOTH",
"335 363 OFFCURVE",
"328 350 OFFCURVE",
"328 325 CURVE SMOOTH",
"328 302 OFFCURVE",
"335 281 OFFCURVE",
"350 261 CURVE",
"306 162 OFFCURVE",
"257 79 OFFCURVE",
"202 13 CURVE"
);
},
{
closed = 1;
nodes = (
"541 525 OFFCURVE",
"595 458 OFFCURVE",
"595 370 CURVE SMOOTH",
"595 281 OFFCURVE",
"554 198 OFFCURVE",
"472 123 CURVE SMOOTH",
"392 50 OFFCURVE",
"307 13 OFFCURVE",
"216 12 CURVE",
"269 79 OFFCURVE",
"317 160 OFFCURVE",
"360 256 CURVE",
"373 263 OFFCURVE",
"387 276 OFFCURVE",
"402 293 CURVE SMOOTH",
"417 311 OFFCURVE",
"424 327 OFFCURVE",
"424 340 CURVE SMOOTH",
"424 347 OFFCURVE",
"421 351 OFFCURVE",
"414 351 CURVE SMOOTH",
"409 351 OFFCURVE",
"404 349 OFFCURVE",
"397 345 CURVE",
"423 415 OFFCURVE",
"442 481 OFFCURVE",
"454 544 CURVE"
);
},
{
closed = 1;
nodes = (
"467 694 OFFCURVE",
"466 711 OFFCURVE",
"464 726 CURVE SMOOTH",
"464 729 OFFCURVE",
"463 731 OFFCURVE",
"461 731 CURVE SMOOTH",
"457 731 OFFCURVE",
"455 728 OFFCURVE",
"455 723 CURVE SMOOTH",
"455 661 OFFCURVE",
"451 607 OFFCURVE",
"444 561 CURVE",
"431 563 OFFCURVE",
"417 564 OFFCURVE",
"403 564 CURVE SMOOTH",
"282 564 OFFCURVE",
"185 526 OFFCURVE",
"112 449 CURVE SMOOTH",
"71 407 OFFCURVE",
"51 362 OFFCURVE",
"51 313 CURVE SMOOTH",
"51 285 OFFCURVE",
"58 258 OFFCURVE",
"72 233 CURVE",
"64 205 OFFCURVE",
"60 177 OFFCURVE",
"60 148 CURVE SMOOTH",
"60 59 OFFCURVE",
"99 4 OFFCURVE",
"177 -16 CURVE",
"167 -27 OFFCURVE",
"157 -36 OFFCURVE",
"147 -45 CURVE",
"126 -42 OFFCURVE",
"107 -41 OFFCURVE",
"88 -41 CURVE SMOOTH",
"57 -41 OFFCURVE",
"30 -47 OFFCURVE",
"7 -59 CURVE SMOOTH",
"-22 -74 OFFCURVE",
"-37 -95 OFFCURVE",
"-37 -123 CURVE SMOOTH",
"-37 -144 OFFCURVE",
"-26 -163 OFFCURVE",
"-3 -178 CURVE SMOOTH",
"17 -192 OFFCURVE",
"38 -199 OFFCURVE",
"60 -199 CURVE SMOOTH",
"67 -199 OFFCURVE",
"70 -198 OFFCURVE",
"70 -196 CURVE SMOOTH",
"70 -191 OFFCURVE",
"67 -189 OFFCURVE",
"61 -189 CURVE SMOOTH",
"41 -189 OFFCURVE",
"22 -181 OFFCURVE",
"5 -165 CURVE SMOOTH",
"-12 -150 OFFCURVE",
"-21 -132 OFFCURVE",
"-21 -113 CURVE SMOOTH",
"-21 -90 OFFCURVE",
"-8 -73 OFFCURVE",
"19 -61 CURVE SMOOTH",
"40 -51 OFFCURVE",
"63 -46 OFFCURVE",
"89 -46 CURVE SMOOTH",
"106 -46 OFFCURVE",
"123 -48 OFFCURVE",
"140 -51 CURVE",
"108 -78 OFFCURVE",
"75 -95 OFFCURVE",
"40 -100 CURVE SMOOTH",
"34 -101 OFFCURVE",
"31 -104 OFFCURVE",
"31 -107 CURVE SMOOTH",
"31 -112 OFFCURVE",
"34 -115 OFFCURVE",
"41 -115 CURVE SMOOTH",
"74 -115 OFFCURVE",
"113 -95 OFFCURVE",
"156 -54 CURVE",
"197 -64 OFFCURVE",
"248 -86 OFFCURVE",
"310 -119 CURVE SMOOTH",
"405 -170 OFFCURVE",
"457 -198 OFFCURVE",
"464 -201 CURVE SMOOTH",
"522 -228 OFFCURVE",
"573 -242 OFFCURVE",
"616 -242 CURVE SMOOTH",
"646 -242 OFFCURVE",
"675 -235 OFFCURVE",
"703 -220 CURVE SMOOTH",
"736 -203 OFFCURVE",
"753 -180 OFFCURVE",
"753 -153 CURVE SMOOTH",
"753 -133 OFFCURVE",
"734 -99 OFFCURVE",
"718 -90 CURVE",
"736 -117 OFFCURVE",
"745 -140 OFFCURVE",
"745 -159 CURVE SMOOTH",
"745 -188 OFFCURVE",
"720 -203 OFFCURVE",
"669 -203 CURVE SMOOTH",
"602 -203 OFFCURVE",
"517 -181 OFFCURVE",
"413 -138 CURVE SMOOTH",
"290 -87 OFFCURVE",
"206 -57 OFFCURVE",
"162 -48 CURVE",
"171 -39 OFFCURVE",
"181 -30 OFFCURVE",
"191 -19 CURVE",
"204 -21 OFFCURVE",
"218 -22 OFFCURVE",
"233 -22 CURVE SMOOTH",
"333 -22 OFFCURVE",
"424 16 OFFCURVE",
"506 91 CURVE SMOOTH",
"590 169 OFFCURVE",
"632 257 OFFCURVE",
"632 356 CURVE SMOOTH",
"632 407 OFFCURVE",
"616 451 OFFCURVE",
"583 488 CURVE SMOOTH",
"550 525 OFFCURVE",
"508 549 OFFCURVE",
"457 559 CURVE",
"464 601 OFFCURVE",
"467 639 OFFCURVE",
"467 674 CURVE SMOOTH"
);
}
);
width = 650;
}
);
note = Q;
unicode = 0051;
},
{
glyphname = R;
layers = (
{
hints = (
{
horizontal = 1;
place = "{-208, 33}";
type = Stem;
},
{
horizontal = 1;
place = "{-151, 12}";
type = Stem;
},
{
horizontal = 1;
place = "{205, 24}";
type = Stem;
},
{
horizontal = 1;
place = "{233, 19}";
type = Stem;
},
{
horizontal = 1;
place = "{343, 13}";
type = Stem;
},
{
horizontal = 1;
place = "{646, 17}";
type = Stem;
},
{
horizontal = 1;
place = "{738, -20}";
target = down;
type = TopGhost;
},
{
place = "{1, 37}";
type = Stem;
},
{
place = "{133, 48}";
type = Stem;
},
{
place = "{379, 32}";
type = Stem;
},
{
place = "{572, 12}";
type = Stem;
},
{
place = "{969, 53}";
type = Stem;
},
{
place = "{1043, 17}";
type = Stem;
}
);
layerId = "47CF47DF-B93A-4126-8606-39E7B9FB561A";
paths = (
{
closed = 1;
nodes = (
"588 205 LINE",
"613 157 OFFCURVE",
"631 120 OFFCURVE",
"643 95 CURVE SMOOTH",
"693 -11 OFFCURVE",
"748 -90 OFFCURVE",
"808 -142 CURVE SMOOTH",
"859 -186 OFFCURVE",
"908 -208 OFFCURVE",
"954 -208 CURVE SMOOTH",
"1018 -208 OFFCURVE",
"1060 -159 OFFCURVE",
"1060 -95 CURVE SMOOTH",
"1060 -50 OFFCURVE",
"1044 -9 OFFCURVE",
"1011 30 CURVE SMOOTH",
"1007 35 OFFCURVE",
"1003 37 OFFCURVE",
"1000 37 CURVE SMOOTH",
"998 37 OFFCURVE",
"997 36 OFFCURVE",
"997 34 CURVE SMOOTH",
"997 33 OFFCURVE",
"998 31 OFFCURVE",
"1000 28 CURVE SMOOTH",
"1029 -12 OFFCURVE",
"1043 -54 OFFCURVE",
"1043 -99 CURVE SMOOTH",
"1043 -150 OFFCURVE",
"1024 -175 OFFCURVE",
"986 -175 CURVE SMOOTH",
"962 -175 OFFCURVE",
"932 -163 OFFCURVE",
"897 -139 CURVE SMOOTH",
"862 -115 OFFCURVE",
"812 -61 OFFCURVE",
"748 22 CURVE SMOOTH",
"613 205 LINE",
"680 208 OFFCURVE",
"741 217 OFFCURVE",
"796 234 CURVE SMOOTH",
"855 252 OFFCURVE",
"905 277 OFFCURVE",
"945 309 CURVE SMOOTH",
"996 350 OFFCURVE",
"1022 397 OFFCURVE",
"1022 449 CURVE SMOOTH",
"1022 502 OFFCURVE",
"995 548 OFFCURVE",
"942 585 CURVE SMOOTH",
"901 614 OFFCURVE",
"850 634 OFFCURVE",
"789 647 CURVE SMOOTH",
"740 658 OFFCURVE",
"688 663 OFFCURVE",
"632 663 CURVE SMOOTH",
"584 663 LINE",
"585 690 OFFCURVE",
"584 714 OFFCURVE",
"581 733 CURVE SMOOTH",
"581 736 OFFCURVE",
"580 738 OFFCURVE",
"578 738 CURVE SMOOTH",
"574 738 OFFCURVE",
"572 735 OFFCURVE",
"572 730 CURVE SMOOTH",
"572 662 LINE",
"496 659 OFFCURVE",
"425 648 OFFCURVE",
"358 629 CURVE SMOOTH",
"273 605 OFFCURVE",
"210 572 OFFCURVE",
"169 531 CURVE SMOOTH",
"145 506 OFFCURVE",
"133 479 OFFCURVE",
"133 450 CURVE SMOOTH",
"133 409 OFFCURVE",
"152 372 OFFCURVE",
"191 339 CURVE SMOOTH",
"228 308 OFFCURVE",
"267 291 OFFCURVE",
"308 288 CURVE SMOOTH",
"310 288 LINE SMOOTH",
"315 287 OFFCURVE",
"318 289 OFFCURVE",
"318 292 CURVE SMOOTH",
"318 294 OFFCURVE",
"316 296 OFFCURVE",
"312 297 CURVE SMOOTH",
"293 301 OFFCURVE",
"280 305 OFFCURVE",
"271 308 CURVE SMOOTH",
"211 332 OFFCURVE",
"181 372 OFFCURVE",
"181 427 CURVE SMOOTH",
"181 460 OFFCURVE",
"194 490 OFFCURVE",
"221 517 CURVE SMOOTH",
"260 558 OFFCURVE",
"315 589 OFFCURVE",
"384 612 CURVE SMOOTH",
"443 631 OFFCURVE",
"505 642 OFFCURVE",
"570 645 CURVE",
"565 589 OFFCURVE",
"555 530 OFFCURVE",
"538 467 CURVE",
"531 486 OFFCURVE",
"522 496 OFFCURVE",
"513 496 CURVE SMOOTH",
"500 496 OFFCURVE",
"493 483 OFFCURVE",
"493 457 CURVE SMOOTH",
"493 434 OFFCURVE",
"501 413 OFFCURVE",
"516 392 CURVE",
"495 335 LINE",
"475 349 OFFCURVE",
"457 356 OFFCURVE",
"440 356 CURVE SMOOTH",
"413 356 OFFCURVE",
"379 331 OFFCURVE",
"379 304 CURVE SMOOTH",
"379 278 OFFCURVE",
"403 254 OFFCURVE",
"450 232 CURVE",
"418 165 OFFCURVE",
"383 105 OFFCURVE",
"344 52 CURVE SMOOTH",
"291 -20 OFFCURVE",
"241 -66 OFFCURVE",
"193 -85 CURVE",
"161 -93 OFFCURVE",
"148 -93 OFFCURVE",
"148 -100 CURVE SMOOTH",
"148 -105 OFFCURVE",
"151 -107 OFFCURVE",
"158 -107 CURVE SMOOTH",
"210 -107 OFFCURVE",
"270 -63 OFFCURVE",
"337 25 CURVE SMOOTH",
"383 85 OFFCURVE",
"424 152 OFFCURVE",
"460 227 CURVE",
"479 220 OFFCURVE",
"498 214 OFFCURVE",
"518 210 CURVE",
"488 150 OFFCURVE",
"452 89 OFFCURVE",
"409 28 CURVE SMOOTH",
"331 -83 OFFCURVE",
"251 -139 OFFCURVE",
"168 -139 CURVE SMOOTH",
"125 -139 OFFCURVE",
"92 -123 OFFCURVE",
"69 -92 CURVE SMOOTH",
"48 -64 OFFCURVE",
"38 -28 OFFCURVE",
"38 16 CURVE SMOOTH",
"38 67 OFFCURVE",
"52 115 OFFCURVE",
"79 158 CURVE SMOOTH",
"110 208 OFFCURVE",
"150 233 OFFCURVE",
"199 233 CURVE SMOOTH",
"220 233 OFFCURVE",
"235 227 OFFCURVE",
"242 215 CURVE SMOOTH",
"252 195 LINE",
"254 196 OFFCURVE",
"255 198 OFFCURVE",
"255 202 CURVE SMOOTH",
"255 231 OFFCURVE",
"220 252 OFFCURVE",
"188 252 CURVE SMOOTH",
"132 252 OFFCURVE",
"86 229 OFFCURVE",
"51 182 CURVE SMOOTH",
"18 139 OFFCURVE",
"1 89 OFFCURVE",
"1 32 CURVE SMOOTH",
"1 -76 OFFCURVE",
"67 -151 OFFCURVE",
"172 -151 CURVE SMOOTH",
"323 -151 OFFCURVE",
"456 -32 OFFCURVE",
"571 205 CURVE"
);
},
{
closed = 1;
nodes = (
"684 560 OFFCURVE",
"678 565 OFFCURVE",
"665 565 CURVE SMOOTH",
"644 565 OFFCURVE",
"630 555 OFFCURVE",
"624 534 CURVE SMOOTH",
"615 497 OFFCURVE",
"609 468 OFFCURVE",
"605 449 CURVE SMOOTH",
"590 390 OFFCURVE",
"572 335 OFFCURVE",
"551 283 CURVE",
"535 301 OFFCURVE",
"519 316 OFFCURVE",
"504 328 CURVE",
"513 349 OFFCURVE",
"520 369 OFFCURVE",
"527 389 CURVE",
"540 397 OFFCURVE",
"554 409 OFFCURVE",
"568 426 CURVE SMOOTH",
"582 443 OFFCURVE",
"589 459 OFFCURVE",
"589 472 CURVE SMOOTH",
"589 479 OFFCURVE",
"586 483 OFFCURVE",
"579 483 CURVE SMOOTH",
"572 483 OFFCURVE",
"563 479 OFFCURVE",
"552 472 CURVE",
"569 535 OFFCURVE",
"580 593 OFFCURVE",
"583 646 CURVE",
"603 646 LINE SMOOTH",
"658 647 OFFCURVE",
"711 640 OFFCURVE",
"762 626 CURVE SMOOTH",
"816 611 OFFCURVE",
"862 588 OFFCURVE",
"900 557 CURVE SMOOTH",
"946 518 OFFCURVE",
"969 474 OFFCURVE",
"969 425 CURVE SMOOTH",
"969 381 OFFCURVE",
"949 343 OFFCURVE",
"910 311 CURVE SMOOTH",
"879 286 OFFCURVE",
"839 266 OFFCURVE",
"790 252 CURVE SMOOTH",
"733 237 OFFCURVE",
"668 229 OFFCURVE",
"595 229 CURVE",
"587 239 LINE",
"626 328 OFFCURVE",
"656 415 OFFCURVE",
"676 502 CURVE SMOOTH",
"681 527 OFFCURVE",
"684 543 OFFCURVE",
"684 550 CURVE SMOOTH"
);
},
{
closed = 1;
nodes = (
"481 299 OFFCURVE",
"471 275 OFFCURVE",
"460 252 CURVE",
"427 269 OFFCURVE",
"411 290 OFFCURVE",
"411 314 CURVE SMOOTH",
"411 333 OFFCURVE",
"421 343 OFFCURVE",
"440 343 CURVE SMOOTH",
"455 343 OFFCURVE",
"471 336 OFFCURVE",
"490 323 CURVE"
);
},
{
closed = 1;
nodes = (
"540 256 OFFCURVE",
"534 244 OFFCURVE",
"528 232 CURVE",
"506 235 OFFCURVE",
"487 240 OFFCURVE",
"470 247 CURVE",
"480 270 OFFCURVE",
"490 292 OFFCURVE",
"499 315 CURVE",
"514 303 OFFCURVE",
"530 287 OFFCURVE",
"545 268 CURVE"
);
}
);
width = 972;
}
);
note = R;
unicode = 0052;
},
{
glyphname = S;
layers = (
{
hints = (
{
horizontal = 1;
place = "{-98, 10}";
type = Stem;
},
{
horizontal = 1;
place = "{310, 11}";
type = Stem;
},
{
horizontal = 1;
place = "{495, 11}";
type = Stem;
},
{
horizontal = 1;
place = "{565, 7}";
type = Stem;
},
{
horizontal = 1;
place = "{630, 13}";
type = Stem;
},
{
place = "{29, 41}";
type = Stem;
},
{
place = "{257, 14}";
type = Stem;
},
{
place = "{311, 45}";
type = Stem;
},
{
place = "{512, 21}";
type = Stem;
},
{
place = "{587, 43}";
type = Stem;
},
{
place = "{691, 25}";
type = Stem;
},
{
horizontal = 1;
place = "{-70, 9}";
type = Stem;
}
);
layerId = "47CF47DF-B93A-4126-8606-39E7B9FB561A";
paths = (
{
closed = 1;
nodes = (
"528 193 OFFCURVE",
"503 233 OFFCURVE",
"458 268 CURVE",
"335 352 LINE",
"292 387 OFFCURVE",
"271 427 OFFCURVE",
"271 474 CURVE SMOOTH",
"271 518 OFFCURVE",
"302 561 OFFCURVE",
"345 565 CURVE",
"322 540 OFFCURVE",
"311 512 OFFCURVE",
"311 481 CURVE SMOOTH",
"311 437 OFFCURVE",
"335 398 OFFCURVE",
"382 363 CURVE",
"515 277 LINE",
"563 240 OFFCURVE",
"587 195 OFFCURVE",
"587 144 CURVE SMOOTH",
"587 55 OFFCURVE",
"535 -10 OFFCURVE",
"430 -53 CURVE SMOOTH",
"371 -76 OFFCURVE",
"317 -88 OFFCURVE",
"268 -88 CURVE SMOOTH",
"211 -88 OFFCURVE",
"163 -71 OFFCURVE",
"126 -38 CURVE SMOOTH",
"89 -5 OFFCURVE",
"70 40 OFFCURVE",
"70 96 CURVE SMOOTH",
"70 159 OFFCURVE",
"93 211 OFFCURVE",
"138 252 CURVE SMOOTH",
"181 291 OFFCURVE",
"235 310 OFFCURVE",
"299 310 CURVE SMOOTH",
"319 309 OFFCURVE",
"329 310 OFFCURVE",
"329 313 CURVE SMOOTH",
"329 318 OFFCURVE",
"315 321 OFFCURVE",
"288 321 CURVE SMOOTH",
"225 321 OFFCURVE",
"166 298 OFFCURVE",
"113 251 CURVE SMOOTH",
"57 202 OFFCURVE",
"29 147 OFFCURVE",
"29 84 CURVE SMOOTH",
"29 22 OFFCURVE",
"57 -25 OFFCURVE",
"114 -58 CURVE SMOOTH",
"160 -85 OFFCURVE",
"216 -98 OFFCURVE",
"283 -98 CURVE SMOOTH",
"367 -98 OFFCURVE",
"443 -78 OFFCURVE",
"510 -39 CURVE SMOOTH",
"590 8 OFFCURVE",
"630 70 OFFCURVE",
"630 148 CURVE SMOOTH",
"630 205 OFFCURVE",
"606 254 OFFCURVE",
"559 293 CURVE",
"427 377 LINE",
"380 410 OFFCURVE",
"356 447 OFFCURVE",
"356 489 CURVE SMOOTH",
"356 509 OFFCURVE",
"361 528 OFFCURVE",
"372 546 CURVE SMOOTH",
"404 602 OFFCURVE",
"464 630 OFFCURVE",
"551 630 CURVE SMOOTH",
"581 630 OFFCURVE",
"609 625 OFFCURVE",
"636 616 CURVE SMOOTH",
"673 603 OFFCURVE",
"691 584 OFFCURVE",
"691 559 CURVE SMOOTH",
"691 540 OFFCURVE",
"679 526 OFFCURVE",
"656 517 CURVE SMOOTH",
"639 510 OFFCURVE",
"619 506 OFFCURVE",
"596 506 CURVE SMOOTH",
"526 506 OFFCURVE",
"472 519 OFFCURVE",
"433 544 CURVE SMOOTH",
"432 545 OFFCURVE",
"430 545 OFFCURVE",
"429 545 CURVE SMOOTH",
"427 545 OFFCURVE",
"426 544 OFFCURVE",
"426 542 CURVE SMOOTH",
"426 541 OFFCURVE",
"427 540 OFFCURVE",
"428 539 CURVE SMOOTH",
"445 526 OFFCURVE",
"473 515 OFFCURVE",
"510 506 CURVE SMOOTH",
"543 499 OFFCURVE",
"572 495 OFFCURVE",
"599 495 CURVE SMOOTH",
"627 495 OFFCURVE",
"651 499 OFFCURVE",
"672 507 CURVE SMOOTH",
"701 518 OFFCURVE",
"716 535 OFFCURVE",
"716 558 CURVE SMOOTH",
"716 571 OFFCURVE",
"711 583 OFFCURVE",
"701 594 CURVE SMOOTH",
"673 627 OFFCURVE",
"623 643 OFFCURVE",
"551 643 CURVE SMOOTH",
"467 643 OFFCURVE",
"401 619 OFFCURVE",
"352 572 CURVE",
"350 572 LINE SMOOTH",
"297 569 OFFCURVE",
"257 526 OFFCURVE",
"257 473 CURVE SMOOTH",
"257 425 OFFCURVE",
"278 383 OFFCURVE",
"319 348 CURVE",
"437 267 LINE SMOOTH",
"481 234 OFFCURVE",
"506 196 OFFCURVE",
"512 154 CURVE",
"507 159 OFFCURVE",
"502 161 OFFCURVE",
"497 161 CURVE SMOOTH",
"486 161 OFFCURVE",
"480 150 OFFCURVE",
"480 127 CURVE SMOOTH",
"480 106 OFFCURVE",
"487 88 OFFCURVE",
"500 73 CURVE",
"473 14 OFFCURVE",
"412 -38 OFFCURVE",
"349 -55 CURVE",
"311 -61 LINE",
"306 -61 OFFCURVE",
"303 -63 OFFCURVE",
"303 -67 CURVE SMOOTH",
"303 -69 OFFCURVE",
"305 -70 OFFCURVE",
"308 -70 CURVE SMOOTH",
"350 -70 OFFCURVE",
"392 -55 OFFCURVE",
"435 -24 CURVE SMOOTH",
"478 7 OFFCURVE",
"508 42 OFFCURVE",
"523 81 CURVE",
"556 108 OFFCURVE",
"572 133 OFFCURVE",
"572 156 CURVE SMOOTH",
"572 164 OFFCURVE",
"569 168 OFFCURVE",
"564 168 CURVE SMOOTH",
"556 168 OFFCURVE",
"546 161 OFFCURVE",
"533 148 CURVE"
);
}
);
width = 667;
}
);
note = S;
unicode = 0053;
},
{
glyphname = T;
layers = (
{
hints = (
{
horizontal = 1;
place = "{-108, 19}";
type = Stem;
},
{
horizontal = 1;
place = "{-31, 13}";
type = Stem;
},
{
horizontal = 1;
place = "{49, 7}";
type = Stem;
},
{
horizontal = 1;
place = "{456, 30}";
type = Stem;
},
{
horizontal = 1;
place = "{546, 20}";
type = Stem;
},
{
horizontal = 1;
place = "{655, 18}";
type = Stem;
},
{
place = "{41, 34}";
type = Stem;
},
{
place = "{487, 11}";
type = Stem;
},
{
place = "{842, 8}";
type = Stem;
},
{
place = "{892, 13}";
type = Stem;
},
{
place = "{22, 24}";
type = Stem;
},
{
place = "{384, 78}";
type = Stem;
}
);
layerId = "47CF47DF-B93A-4126-8606-39E7B9FB561A";
paths = (
{
closed = 1;
nodes = (
"507 612 OFFCURVE",
"506 619 OFFCURVE",
"504 620 CURVE",
"497 589 OFFCURVE",
"491 560 OFFCURVE",
"487 533 CURVE",
"373 555 OFFCURVE",
"287 566 OFFCURVE",
"228 566 CURVE SMOOTH",
"178 566 OFFCURVE",
"137 558 OFFCURVE",
"105 543 CURVE SMOOTH",
"62 522 OFFCURVE",
"41 490 OFFCURVE",
"41 445 CURVE SMOOTH",
"41 383 OFFCURVE",
"80 329 OFFCURVE",
"159 284 CURVE SMOOTH",
"161 283 OFFCURVE",
"163 282 OFFCURVE",
"164 282 CURVE SMOOTH",
"167 282 OFFCURVE",
"168 283 OFFCURVE",
"168 285 CURVE SMOOTH",
"168 286 OFFCURVE",
"167 288 OFFCURVE",
"164 290 CURVE SMOOTH",
"105 331 OFFCURVE",
"75 378 OFFCURVE",
"75 429 CURVE SMOOTH",
"75 507 OFFCURVE",
"131 546 OFFCURVE",
"244 546 CURVE SMOOTH",
"299 546 OFFCURVE",
"379 535 OFFCURVE",
"483 513 CURVE",
"461 414 OFFCURVE",
"440 346 OFFCURVE",
"421 308 CURVE",
"414 327 OFFCURVE",
"405 337 OFFCURVE",
"396 337 CURVE SMOOTH",
"388 337 OFFCURVE",
"384 326 OFFCURVE",
"384 304 CURVE SMOOTH",
"384 289 OFFCURVE",
"388 268 OFFCURVE",
"396 241 CURVE",
"374 187 OFFCURVE",
"347 136 OFFCURVE",
"315 88 CURVE SMOOTH",
"268 17 OFFCURVE",
"228 -18 OFFCURVE",
"193 -18 CURVE SMOOTH",
"190 -18 OFFCURVE",
"182 -16 OFFCURVE",
"178 -16 CURVE SMOOTH",
"175 -16 OFFCURVE",
"173 -18 OFFCURVE",
"173 -21 CURVE SMOOTH",
"173 -28 OFFCURVE",
"179 -31 OFFCURVE",
"192 -31 CURVE SMOOTH",
"227 -31 OFFCURVE",
"269 5 OFFCURVE",
"318 78 CURVE SMOOTH",
"352 129 OFFCURVE",
"381 181 OFFCURVE",
"404 235 CURVE",
"443 270 OFFCURVE",
"462 296 OFFCURVE",
"462 313 CURVE SMOOTH",
"462 319 OFFCURVE",
"460 322 OFFCURVE",
"455 322 CURVE SMOOTH",
"450 322 OFFCURVE",
"444 320 OFFCURVE",
"436 315 CURVE",
"462 390 OFFCURVE",
"481 455 OFFCURVE",
"494 510 CURVE",
"564 495 LINE",
"541 454 OFFCURVE",
"513 398 OFFCURVE",
"481 325 CURVE SMOOTH",
"443 240 OFFCURVE",
"416 183 OFFCURVE",
"401 153 CURVE SMOOTH",
"365 82 OFFCURVE",
"330 29 OFFCURVE",
"297 -7 CURVE SMOOTH",
"247 -62 OFFCURVE",
"192 -89 OFFCURVE",
"133 -89 CURVE SMOOTH",
"111 -89 OFFCURVE",
"92 -84 OFFCURVE",
"75 -74 CURVE SMOOTH",
"56 -62 OFFCURVE",
"46 -45 OFFCURVE",
"46 -24 CURVE SMOOTH",
"46 1 OFFCURVE",
"59 20 OFFCURVE",
"84 33 CURVE SMOOTH",
"104 44 OFFCURVE",
"127 49 OFFCURVE",
"154 49 CURVE SMOOTH",
"160 49 OFFCURVE",
"163 50 OFFCURVE",
"163 53 CURVE SMOOTH",
"163 55 OFFCURVE",
"160 56 OFFCURVE",
"154 56 CURVE SMOOTH",
"122 56 OFFCURVE",
"94 50 OFFCURVE",
"69 37 CURVE SMOOTH",
"38 21 OFFCURVE",
"22 -1 OFFCURVE",
"22 -30 CURVE SMOOTH",
"22 -57 OFFCURVE",
"36 -77 OFFCURVE",
"65 -92 CURVE SMOOTH",
"87 -103 OFFCURVE",
"113 -108 OFFCURVE",
"142 -108 CURVE SMOOTH",
"224 -108 OFFCURVE",
"302 -60 OFFCURVE",
"375 37 CURVE SMOOTH",
"414 88 OFFCURVE",
"462 173 OFFCURVE",
"519 290 CURVE SMOOTH",
"571 398 OFFCURVE",
"603 463 OFFCURVE",
"614 484 CURVE",
"700 465 OFFCURVE",
"763 456 OFFCURVE",
"802 456 CURVE SMOOTH",
"871 456 OFFCURVE",
"905 477 OFFCURVE",
"905 520 CURVE SMOOTH",
"905 526 OFFCURVE",
"904 534 OFFCURVE",
"901 543 CURVE SMOOTH",
"897 555 OFFCURVE",
"893 561 OFFCURVE",
"888 561 CURVE SMOOTH",
"887 561 OFFCURVE",
"886 560 OFFCURVE",
"886 558 CURVE SMOOTH",
"886 555 OFFCURVE",
"892 548 OFFCURVE",
"892 537 CURVE SMOOTH",
"892 503 OFFCURVE",
"858 486 OFFCURVE",
"790 486 CURVE SMOOTH",
"754 486 OFFCURVE",
"700 493 OFFCURVE",
"627 506 CURVE",
"683 605 OFFCURVE",
"736 655 OFFCURVE",
"787 655 CURVE SMOOTH",
"824 655 OFFCURVE",
"842 641 OFFCURVE",
"842 614 CURVE SMOOTH",
"842 608 OFFCURVE",
"843 605 OFFCURVE",
"846 605 CURVE SMOOTH",
"849 605 OFFCURVE",
"850 609 OFFCURVE",
"850 616 CURVE SMOOTH",
"850 654 OFFCURVE",
"827 673 OFFCURVE",
"782 673 CURVE SMOOTH",
"707 673 OFFCURVE",
"639 621 OFFCURVE",
"576 516 CURVE",
"498 531 LINE",
"504 559 OFFCURVE",
"507 582 OFFCURVE",
"507 599 CURVE SMOOTH"
);
}
);
width = 572;
}
);
note = T;
unicode = 0054;
},
{
glyphname = U;
layers = (
{
hints = (
{
horizontal = 1;
place = "{-34, 13}";
type = Stem;
},
{
horizontal = 1;
place = "{603, 25}";
type = Stem;
},
{
place = "{-15, 23}";
type = Stem;
},
{
place = "{114, 9}";
type = Stem;
},
{
place = "{195, 54}";
type = Stem;
},
{
place = "{603, 56}";
type = Stem;
},
{
place = "{154, 96}";
type = Stem;
},
{
horizontal = 1;
place = "{-47, 20}";
type = Stem;
},
{
place = "{685, 49}";
type = Stem;
}
);
layerId = "47CF47DF-B93A-4126-8606-39E7B9FB561A";
paths = (
{
closed = 1;
nodes = (
"197 262 OFFCURVE",
"212 274 OFFCURVE",
"227 292 CURVE SMOOTH",
"242 311 OFFCURVE",
"250 327 OFFCURVE",
"250 340 CURVE SMOOTH",
"250 347 OFFCURVE",
"247 351 OFFCURVE",
"240 351 CURVE SMOOTH",
"233 351 OFFCURVE",
"225 348 OFFCURVE",
"216 341 CURVE",
"255 436 OFFCURVE",
"297 515 OFFCURVE",
"344 579 CURVE",
"357 574 OFFCURVE",
"371 569 OFFCURVE",
"386 562 CURVE",
"342 486 OFFCURVE",
"301 402 OFFCURVE",
"264 309 CURVE SMOOTH",
"218 194 OFFCURVE",
"195 107 OFFCURVE",
"195 46 CURVE SMOOTH",
"195 -16 OFFCURVE",
"217 -47 OFFCURVE",
"261 -47 CURVE SMOOTH",
"312 -47 OFFCURVE",
"383 9 OFFCURVE",
"473 122 CURVE SMOOTH",
"529 191 OFFCURVE",
"585 271 OFFCURVE",
"641 362 CURVE",
"616 261 OFFCURVE",
"603 181 OFFCURVE",
"603 121 CURVE SMOOTH",
"603 18 OFFCURVE",
"638 -34 OFFCURVE",
"709 -34 CURVE SMOOTH",
"757 -34 OFFCURVE",
"811 21 OFFCURVE",
"871 131 CURVE SMOOTH",
"872 133 OFFCURVE",
"873 135 OFFCURVE",
"873 137 CURVE SMOOTH",
"873 139 OFFCURVE",
"872 140 OFFCURVE",
"871 140 CURVE SMOOTH",
"868 140 OFFCURVE",
"865 138 OFFCURVE",
"862 133 CURVE SMOOTH",
"839 96 LINE SMOOTH",
"789 18 OFFCURVE",
"748 -21 OFFCURVE",
"717 -21 CURVE SMOOTH",
"678 -21 OFFCURVE",
"659 29 OFFCURVE",
"659 129 CURVE SMOOTH",
"659 182 OFFCURVE",
"671 260 OFFCURVE",
"696 364 CURVE SMOOTH",
"721 469 OFFCURVE",
"734 529 OFFCURVE",
"734 545 CURVE SMOOTH",
"734 554 OFFCURVE",
"727 558 OFFCURVE",
"712 558 CURVE SMOOTH",
"700 558 OFFCURVE",
"692 552 OFFCURVE",
"687 541 CURVE",
"683 521 LINE SMOOTH",
"672 477 OFFCURVE",
"665 451 OFFCURVE",
"662 443 CURVE SMOOTH",
"638 384 OFFCURVE",
"582 295 OFFCURVE",
"494 176 CURVE SMOOTH",
"393 41 OFFCURVE",
"323 -27 OFFCURVE",
"282 -27 CURVE SMOOTH",
"260 -27 OFFCURVE",
"249 -5 OFFCURVE",
"249 38 CURVE SMOOTH",
"249 143 OFFCURVE",
"300 290 OFFCURVE",
"401 479 CURVE SMOOTH",
"413 502 OFFCURVE",
"424 522 OFFCURVE",
"435 541 CURVE SMOOTH",
"449 564 LINE",
"450 567 LINE",
"450 580 OFFCURVE",
"422 594 OFFCURVE",
"367 609 CURVE",
"378 623 OFFCURVE",
"395 641 OFFCURVE",
"418 662 CURVE",
"422 667 LINE",
"422 669 OFFCURVE",
"421 670 OFFCURVE",
"418 670 CURVE SMOOTH",
"410 670 OFFCURVE",
"390 651 OFFCURVE",
"358 612 CURVE",
"315 623 OFFCURVE",
"272 628 OFFCURVE",
"229 628 CURVE SMOOTH",
"134 628 OFFCURVE",
"61 603 OFFCURVE",
"10 552 CURVE SMOOTH",
"-7 535 OFFCURVE",
"-15 519 OFFCURVE",
"-15 503 CURVE SMOOTH",
"-15 468 OFFCURVE",
"14 439 OFFCURVE",
"72 415 CURVE SMOOTH",
"85 410 OFFCURVE",
"93 407 OFFCURVE",
"98 407 CURVE SMOOTH",
"99 407 OFFCURVE",
"100 407 OFFCURVE",
"100 408 CURVE SMOOTH",
"100 410 OFFCURVE",
"92 415 OFFCURVE",
"76 422 CURVE SMOOTH",
"56 431 OFFCURVE",
"41 440 OFFCURVE",
"32 448 CURVE SMOOTH",
"16 461 OFFCURVE",
"8 476 OFFCURVE",
"8 493 CURVE SMOOTH",
"8 506 OFFCURVE",
"15 519 OFFCURVE",
"28 532 CURVE SMOOTH",
"78 579 OFFCURVE",
"140 603 OFFCURVE",
"215 603 CURVE SMOOTH",
"254 603 OFFCURVE",
"294 596 OFFCURVE",
"335 582 CURVE",
"285 514 OFFCURVE",
"240 431 OFFCURVE",
"200 334 CURVE",
"193 354 OFFCURVE",
"184 364 OFFCURVE",
"174 364 CURVE SMOOTH",
"161 364 OFFCURVE",
"154 351 OFFCURVE",
"154 325 CURVE SMOOTH",
"154 304 OFFCURVE",
"160 284 OFFCURVE",
"173 264 CURVE",
"134 151 OFFCURVE",
"114 54 OFFCURVE",
"114 -27 CURVE SMOOTH",
"114 -48 OFFCURVE",
"115 -58 OFFCURVE",
"118 -58 CURVE SMOOTH",
"121 -58 OFFCURVE",
"123 -55 OFFCURVE",
"123 -48 CURVE SMOOTH",
"123 35 OFFCURVE",
"143 136 OFFCURVE",
"184 255 CURVE"
);
}
);
width = 854;
}
);
note = U;
unicode = 0055;
},
{
glyphname = V;
layers = (
{
hints = (
{
horizontal = 1;
place = "{191, 23}";
type = Stem;
},
{
horizontal = 1;
place = "{591, 14}";
type = Stem;
},
{
horizontal = 1;
place = "{709, -20}";
target = down;
type = TopGhost;
},
{
place = "{-22, 29}";
type = Stem;
},
{
place = "{350, 12}";
type = Stem;
},
{
place = "{419, 62}";
type = Stem;
},
{
place = "{1070, 9}";
type = Stem;
},
{
horizontal = 1;
place = "{606, 42}";
type = Stem;
}
);
layerId = "47CF47DF-B93A-4126-8606-39E7B9FB561A";
paths = (
{
closed = 1;
nodes = (
"1066 481 OFFCURVE",
"1070 493 OFFCURVE",
"1074 514 CURVE SMOOTH",
"1077 532 OFFCURVE",
"1079 546 OFFCURVE",
"1079 555 CURVE SMOOTH",
"1079 608 OFFCURVE",
"1051 648 OFFCURVE",
"999 648 CURVE SMOOTH",
"982 648 OFFCURVE",
"966 644 OFFCURVE",
"950 636 CURVE SMOOTH",
"861 595 OFFCURVE",
"770 513 OFFCURVE",
"678 388 CURVE SMOOTH",
"641 338 OFFCURVE",
"573 232 OFFCURVE",
"476 70 CURVE SMOOTH",
"412 -36 OFFCURVE",
"366 -100 OFFCURVE",
"337 -123 CURVE",
"310 -140 OFFCURVE",
"306 -137 OFFCURVE",
"306 -148 CURVE SMOOTH",
"306 -150 OFFCURVE",
"307 -151 OFFCURVE",
"309 -151 CURVE SMOOTH",
"336 -151 OFFCURVE",
"390 -88 OFFCURVE",
"471 37 CURVE SMOOTH",
"514 104 OFFCURVE",
"556 172 OFFCURVE",
"598 239 CURVE SMOOTH",
"655 326 OFFCURVE",
"706 395 OFFCURVE",
"753 447 CURVE SMOOTH",
"815 517 OFFCURVE",
"875 565 OFFCURVE",
"934 591 CURVE SMOOTH",
"955 601 OFFCURVE",
"976 606 OFFCURVE",
"997 606 CURVE SMOOTH",
"1046 606 OFFCURVE",
"1070 583 OFFCURVE",
"1070 536 CURVE SMOOTH",
"1070 523 OFFCURVE",
"1060 492 OFFCURVE",
"1060 483 CURVE SMOOTH",
"1060 482 OFFCURVE",
"1060 481 OFFCURVE",
"1061 480 CURVE"
);
},
{
closed = 1;
nodes = (
"308 -134 OFFCURVE",
"310 -133 OFFCURVE",
"312 -130 CURVE SMOOTH",
"370 -19 OFFCURVE",
"408 58 OFFCURVE",
"426 103 CURVE SMOOTH",
"463 193 OFFCURVE",
"481 277 OFFCURVE",
"481 354 CURVE SMOOTH",
"481 491 OFFCURVE",
"434 572 OFFCURVE",
"339 598 CURVE",
"318 672 OFFCURVE",
"287 709 OFFCURVE",
"246 709 CURVE SMOOTH",
"237 709 OFFCURVE",
"232 706 OFFCURVE",
"232 699 CURVE SMOOTH",
"232 696 OFFCURVE",
"234 695 OFFCURVE",
"237 694 CURVE SMOOTH",
"276 687 OFFCURVE",
"304 656 OFFCURVE",
"323 602 CURVE",
"310 604 OFFCURVE",
"297 605 OFFCURVE",
"283 605 CURVE SMOOTH",
"227 605 OFFCURVE",
"172 588 OFFCURVE",
"118 554 CURVE SMOOTH",
"65 520 OFFCURVE",
"26 478 OFFCURVE",
"3 427 CURVE SMOOTH",
"-14 390 OFFCURVE",
"-22 351 OFFCURVE",
"-22 312 CURVE",
"-27 245 OFFCURVE",
"15 191 OFFCURVE",
"81 191 CURVE SMOOTH",
"112 191 OFFCURVE",
"146 204 OFFCURVE",
"185 230 CURVE SMOOTH",
"220 254 OFFCURVE",
"247 280 OFFCURVE",
"265 309 CURVE",
"266 312 OFFCURVE",
"267 314 OFFCURVE",
"267 316 CURVE SMOOTH",
"267 319 OFFCURVE",
"266 320 OFFCURVE",
"265 320 CURVE SMOOTH",
"264 320 OFFCURVE",
"262 319 OFFCURVE",
"260 316 CURVE SMOOTH",
"241 289 OFFCURVE",
"218 265 OFFCURVE",
"190 246 CURVE SMOOTH",
"159 225 OFFCURVE",
"128 214 OFFCURVE",
"99 214 CURVE SMOOTH",
"73 214 OFFCURVE",
"50 223 OFFCURVE",
"31 242 CURVE SMOOTH",
"15 257 OFFCURVE",
"7 284 OFFCURVE",
"7 321 CURVE SMOOTH",
"7 388 OFFCURVE",
"31 449 OFFCURVE",
"80 504 CURVE SMOOTH",
"130 562 OFFCURVE",
"188 591 OFFCURVE",
"253 591 CURVE SMOOTH",
"283 591 OFFCURVE",
"310 583 OFFCURVE",
"333 568 CURVE",
"344 521 OFFCURVE",
"350 464 OFFCURVE",
"350 398 CURVE SMOOTH",
"350 360 OFFCURVE",
"348 321 OFFCURVE",
"344 280 CURVE",
"338 292 OFFCURVE",
"331 298 OFFCURVE",
"324 298 CURVE SMOOTH",
"311 298 OFFCURVE",
"304 285 OFFCURVE",
"304 260 CURVE SMOOTH",
"304 235 OFFCURVE",
"313 211 OFFCURVE",
"331 189 CURVE",
"332 190 LINE",
"326 151 OFFCURVE",
"302 86 OFFCURVE",
"261 -6 CURVE SMOOTH",
"225 -87 OFFCURVE",
"207 -153 OFFCURVE",
"207 -203 CURVE SMOOTH",
"207 -206 OFFCURVE",
"208 -208 OFFCURVE",
"209 -208 CURVE SMOOTH",
"211 -208 OFFCURVE",
"213 -206 OFFCURVE",
"215 -203 CURVE SMOOTH",
"277 -101 OFFCURVE",
"320 32 OFFCURVE",
"345 197 CURVE",
"381 223 OFFCURVE",
"399 249 OFFCURVE",
"399 275 CURVE SMOOTH",
"399 282 OFFCURVE",
"396 286 OFFCURVE",
"389 286 CURVE SMOOTH",
"380 286 OFFCURVE",
"369 280 OFFCURVE",
"354 267 CURVE",
"359 314 OFFCURVE",
"362 360 OFFCURVE",
"362 403 CURVE SMOOTH",
"362 460 OFFCURVE",
"358 511 OFFCURVE",
"349 556 CURVE",
"396 515 OFFCURVE",
"419 446 OFFCURVE",
"419 349 CURVE SMOOTH",
"419 298 OFFCURVE",
"409 234 OFFCURVE",
"388 155 CURVE SMOOTH",
"375 106 OFFCURVE",
"355 44 OFFCURVE",
"329 -29 CURVE SMOOTH",
"308 -89 OFFCURVE",
"297 -122 OFFCURVE",
"297 -127 CURVE SMOOTH",
"297 -132 OFFCURVE",
"300 -134 OFFCURVE",
"305 -134 CURVE SMOOTH"
);
}
);
width = 633;
}
);
note = V;
unicode = 0056;
},
{
glyphname = W;
layers = (
{
hints = (
{
horizontal = 1;
place = "{191, 23}";
type = Stem;
},
{
horizontal = 1;
place = "{591, 14}";
type = Stem;
},
{
horizontal = 1;
place = "{709, -20}";
target = down;
type = TopGhost;
},
{
place = "{-22, 29}";
type = Stem;
},
{
place = "{350, 12}";
type = Stem;
},
{
place = "{419, 62}";
type = Stem;
},
{
place = "{619, 53}";
type = Stem;
},
{
place = "{756, 26}";
type = Stem;
},
{
place = "{1372, 9}";
type = Stem;
},
{
horizontal = 1;
place = "{619, 7}";
type = Stem;
},
{
horizontal = 1;
place = "{726, 43}";
type = Stem;
},
{
place = "{655, 48}";
type = Stem;
}
);
layerId = "47CF47DF-B93A-4126-8606-39E7B9FB561A";
paths = (
{
closed = 1;
nodes = (
"782 607 OFFCURVE",
"767 626 OFFCURVE",
"736 626 CURVE SMOOTH",
"727 626 OFFCURVE",
"718 623 OFFCURVE",
"709 617 CURVE SMOOTH",
"675 598 OFFCURVE",
"650 554 OFFCURVE",
"635 486 CURVE SMOOTH",
"624 439 OFFCURVE",
"619 387 OFFCURVE",
"619 330 CURVE SMOOTH",
"619 301 OFFCURVE",
"620 271 OFFCURVE",
"623 242 CURVE",
"584 174 OFFCURVE",
"542 109 OFFCURVE",
"497 47 CURVE SMOOTH",
"437 -36 OFFCURVE",
"386 -92 OFFCURVE",
"343 -121 CURVE SMOOTH",
"329 -129 OFFCURVE",
"319 -135 OFFCURVE",
"312 -138 CURVE SMOOTH",
"308 -139 OFFCURVE",
"306 -143 OFFCURVE",
"306 -148 CURVE SMOOTH",
"306 -150 OFFCURVE",
"307 -151 OFFCURVE",
"309 -151 CURVE SMOOTH",
"334 -151 OFFCURVE",
"390 -97 OFFCURVE",
"475 12 CURVE SMOOTH",
"538 91 OFFCURVE",
"588 160 OFFCURVE",
"625 219 CURVE",
"626 206 OFFCURVE",
"632 168 OFFCURVE",
"643 105 CURVE SMOOTH",
"651 59 OFFCURVE",
"655 21 OFFCURVE",
"655 -9 CURVE SMOOTH",
"655 -40 OFFCURVE",
"651 -61 OFFCURVE",
"643 -73 CURVE",
"638 -74 OFFCURVE",
"635 -77 OFFCURVE",
"635 -84 CURVE SMOOTH",
"635 -87 OFFCURVE",
"636 -88 OFFCURVE",
"637 -88 CURVE SMOOTH",
"666 -88 OFFCURVE",
"718 -21 OFFCURVE",
"793 114 CURVE SMOOTH",
"847 212 OFFCURVE",
"901 310 OFFCURVE",
"956 408 CURVE SMOOTH",
"1029 529 OFFCURVE",
"1097 614 OFFCURVE",
"1160 665 CURVE SMOOTH",
"1183 684 OFFCURVE",
"1208 699 OFFCURVE",
"1236 712 CURVE SMOOTH",
"1256 721 OFFCURVE",
"1277 726 OFFCURVE",
"1299 726 CURVE SMOOTH",
"1348 726 OFFCURVE",
"1372 703 OFFCURVE",
"1372 656 CURVE SMOOTH",
"1372 643 OFFCURVE",
"1362 614 OFFCURVE",
"1362 603 CURVE SMOOTH",
"1362 602 OFFCURVE",
"1362 602 OFFCURVE",
"1363 601 CURVE",
"1368 602 OFFCURVE",
"1372 613 OFFCURVE",
"1376 635 CURVE SMOOTH",
"1379 652 OFFCURVE",
"1381 666 OFFCURVE",
"1381 675 CURVE SMOOTH",
"1381 728 OFFCURVE",
"1353 769 OFFCURVE",
"1301 769 CURVE SMOOTH",
"1284 769 OFFCURVE",
"1268 765 OFFCURVE",
"1252 757 CURVE SMOOTH",
"1184 726 OFFCURVE",
"1117 668 OFFCURVE",
"1051 584 CURVE SMOOTH",
"1001 521 OFFCURVE",
"948 436 OFFCURVE",
"891 331 CURVE SMOOTH",
"849 250 OFFCURVE",
"807 169 OFFCURVE",
"764 88 CURVE SMOOTH",
"719 5 OFFCURVE",
"683 -47 OFFCURVE",
"657 -66 CURVE",
"688 -16 OFFCURVE",
"703 45 OFFCURVE",
"703 116 CURVE SMOOTH",
"703 129 OFFCURVE",
"702 143 OFFCURVE",
"700 156 CURVE SMOOTH",
"689 229 OFFCURVE",
"683 279 OFFCURVE",
"680 308 CURVE",
"748 426 OFFCURVE",
"782 513 OFFCURVE",
"782 568 CURVE SMOOTH"
);
},
{
closed = 1;
nodes = (
"749 619 OFFCURVE",
"756 604 OFFCURVE",
"756 575 CURVE SMOOTH",
"756 526 OFFCURVE",
"730 448 OFFCURVE",
"677 343 CURVE",
"674 380 OFFCURVE",
"672 413 OFFCURVE",
"672 444 CURVE SMOOTH",
"672 561 OFFCURVE",
"693 619 OFFCURVE",
"734 619 CURVE SMOOTH"
);
},
{
closed = 1;
nodes = (
"308 -134 OFFCURVE",
"310 -133 OFFCURVE",
"312 -130 CURVE SMOOTH",
"370 -19 OFFCURVE",
"408 58 OFFCURVE",
"426 103 CURVE SMOOTH",
"463 193 OFFCURVE",
"481 277 OFFCURVE",
"481 354 CURVE SMOOTH",
"481 491 OFFCURVE",
"434 572 OFFCURVE",
"339 598 CURVE",
"318 672 OFFCURVE",
"287 709 OFFCURVE",
"246 709 CURVE SMOOTH",
"237 709 OFFCURVE",
"232 706 OFFCURVE",
"232 699 CURVE SMOOTH",
"232 696 OFFCURVE",
"234 695 OFFCURVE",
"237 694 CURVE SMOOTH",
"276 687 OFFCURVE",
"304 656 OFFCURVE",
"323 602 CURVE",
"310 604 OFFCURVE",
"297 605 OFFCURVE",
"283 605 CURVE SMOOTH",
"227 605 OFFCURVE",
"172 588 OFFCURVE",
"118 554 CURVE SMOOTH",
"65 520 OFFCURVE",
"26 478 OFFCURVE",
"3 427 CURVE SMOOTH",
"-14 390 OFFCURVE",
"-22 351 OFFCURVE",
"-22 312 CURVE",
"-27 245 OFFCURVE",
"15 191 OFFCURVE",
"81 191 CURVE SMOOTH",
"112 191 OFFCURVE",
"146 204 OFFCURVE",
"185 230 CURVE SMOOTH",
"220 254 OFFCURVE",
"247 280 OFFCURVE",
"265 309 CURVE",
"266 312 OFFCURVE",
"267 314 OFFCURVE",
"267 316 CURVE SMOOTH",
"267 319 OFFCURVE",
"266 320 OFFCURVE",
"265 320 CURVE SMOOTH",
"264 320 OFFCURVE",
"262 319 OFFCURVE",
"260 316 CURVE SMOOTH",
"241 289 OFFCURVE",
"218 265 OFFCURVE",
"190 246 CURVE SMOOTH",
"159 225 OFFCURVE",
"128 214 OFFCURVE",
"99 214 CURVE SMOOTH",
"73 214 OFFCURVE",
"50 223 OFFCURVE",
"31 242 CURVE SMOOTH",
"15 257 OFFCURVE",
"7 284 OFFCURVE",
"7 321 CURVE SMOOTH",
"7 388 OFFCURVE",
"31 449 OFFCURVE",
"80 504 CURVE SMOOTH",
"130 562 OFFCURVE",
"188 591 OFFCURVE",
"253 591 CURVE SMOOTH",
"282 591 OFFCURVE",
"309 583 OFFCURVE",
"333 568 CURVE",
"344 521 OFFCURVE",
"350 464 OFFCURVE",
"350 398 CURVE SMOOTH",
"350 360 OFFCURVE",
"348 321 OFFCURVE",
"344 280 CURVE",
"338 292 OFFCURVE",
"331 298 OFFCURVE",
"324 298 CURVE SMOOTH",
"311 298 OFFCURVE",
"304 285 OFFCURVE",
"304 260 CURVE SMOOTH",
"304 235 OFFCURVE",
"313 211 OFFCURVE",
"331 189 CURVE",
"332 190 LINE",
"326 151 OFFCURVE",
"302 86 OFFCURVE",
"261 -6 CURVE SMOOTH",
"225 -87 OFFCURVE",
"207 -153 OFFCURVE",
"207 -203 CURVE SMOOTH",
"207 -206 OFFCURVE",
"208 -208 OFFCURVE",
"209 -208 CURVE SMOOTH",
"211 -208 OFFCURVE",
"213 -206 OFFCURVE",
"215 -203 CURVE SMOOTH",
"277 -101 OFFCURVE",
"320 32 OFFCURVE",
"345 197 CURVE",
"381 223 OFFCURVE",
"399 249 OFFCURVE",
"399 275 CURVE SMOOTH",
"399 282 OFFCURVE",
"396 286 OFFCURVE",
"389 286 CURVE SMOOTH",
"380 286 OFFCURVE",
"369 280 OFFCURVE",
"354 268 CURVE",
"359 315 OFFCURVE",
"362 360 OFFCURVE",
"362 403 CURVE SMOOTH",
"362 460 OFFCURVE",
"358 511 OFFCURVE",
"349 556 CURVE",
"396 515 OFFCURVE",
"419 446 OFFCURVE",
"419 349 CURVE SMOOTH",
"419 298 OFFCURVE",
"409 234 OFFCURVE",
"388 155 CURVE SMOOTH",
"375 106 OFFCURVE",
"355 44 OFFCURVE",
"329 -29 CURVE SMOOTH",
"308 -89 OFFCURVE",
"297 -122 OFFCURVE",
"297 -127 CURVE SMOOTH",
"297 -132 OFFCURVE",
"300 -134 OFFCURVE",
"305 -134 CURVE SMOOTH"
);
}
);
width = 938;
}
);
note = W;
unicode = 0057;
},
{
glyphname = X;
layers = (
{
hints = (
{
horizontal = 1;
place = "{-14, 30}";
type = Stem;
},
{
horizontal = 1;
place = "{311, 12}";
type = Stem;
},
{
horizontal = 1;
place = "{615, 8}";
type = Stem;
},
{
horizontal = 1;
place = "{699, 14}";
type = Stem;
},
{
place = "{11, 55}";
type = Stem;
},
{
place = "{270, 14}";
type = Stem;
},
{
place = "{333, 51}";
type = Stem;
},
{
horizontal = 1;
place = "{-56, 19}";
type = Stem;
},
{
place = "{277, 16}";
type = Stem;
}
);
layerId = "47CF47DF-B93A-4126-8606-39E7B9FB561A";
paths = (
{
closed = 1;
nodes = (
"270 358 OFFCURVE",
"270 337 OFFCURVE",
"270 317 CURVE SMOOTH",
"270 265 OFFCURVE",
"273 216 OFFCURVE",
"279 170 CURVE",
"179 73 LINE SMOOTH",
"89 -12 OFFCURVE",
"23 -67 OFFCURVE",
"-20 -91 CURVE",
"-66 -111 LINE SMOOTH",
"-69 -112 OFFCURVE",
"-71 -114 OFFCURVE",
"-71 -117 CURVE SMOOTH",
"-71 -120 OFFCURVE",
"-70 -121 OFFCURVE",
"-67 -121 CURVE SMOOTH",
"-10 -121 OFFCURVE",
"106 -31 OFFCURVE",
"283 148 CURVE",
"305 12 OFFCURVE",
"345 -56 OFFCURVE",
"403 -56 CURVE SMOOTH",
"422 -56 OFFCURVE",
"454 -44 OFFCURVE",
"454 -28 CURVE SMOOTH",
"454 -26 OFFCURVE",
"453 -25 OFFCURVE",
"452 -25 CURVE",
"452 -25 OFFCURVE",
"426 -37 OFFCURVE",
"411 -37 CURVE SMOOTH",
"354 -37 OFFCURVE",
"316 29 OFFCURVE",
"295 161 CURVE",
"342 208 LINE",
"362 60 OFFCURVE",
"413 -14 OFFCURVE",
"494 -14 CURVE SMOOTH",
"533 -14 OFFCURVE",
"568 5 OFFCURVE",
"599 42 CURVE SMOOTH",
"624 72 OFFCURVE",
"642 109 OFFCURVE",
"654 152 CURVE SMOOTH",
"661 179 OFFCURVE",
"665 197 OFFCURVE",
"665 205 CURVE SMOOTH",
"665 208 OFFCURVE",
"664 209 OFFCURVE",
"662 209 CURVE SMOOTH",
"658 209 OFFCURVE",
"655 207 OFFCURVE",
"654 203 CURVE SMOOTH",
"642 147 LINE",
"631 112 OFFCURVE",
"616 82 OFFCURVE",
"597 59 CURVE SMOOTH",
"572 30 OFFCURVE",
"544 16 OFFCURVE",
"513 16 CURVE SMOOTH",
"444 16 OFFCURVE",
"403 96 OFFCURVE",
"389 255 CURVE",
"684 551 OFFCURVE",
"875 699 OFFCURVE",
"962 699 CURVE SMOOTH",
"977 699 OFFCURVE",
"984 700 OFFCURVE",
"984 703 CURVE SMOOTH",
"984 710 OFFCURVE",
"976 713 OFFCURVE",
"961 713 CURVE SMOOTH",
"881 713 OFFCURVE",
"690 567 OFFCURVE",
"387 275 CURVE",
"385 306 OFFCURVE",
"384 336 OFFCURVE",
"384 365 CURVE SMOOTH",
"384 460 OFFCURVE",
"395 545 OFFCURVE",
"417 620 CURVE",
"480 628 OFFCURVE",
"528 634 OFFCURVE",
"560 637 CURVE SMOOTH",
"579 640 OFFCURVE",
"588 643 OFFCURVE",
"588 647 CURVE SMOOTH",
"588 648 OFFCURVE",
"586 649 OFFCURVE",
"581 649 CURVE SMOOTH",
"572 649 OFFCURVE",
"519 643 OFFCURVE",
"420 632 CURVE",
"424 645 OFFCURVE",
"426 651 OFFCURVE",
"426 651 CURVE",
"426 652 OFFCURVE",
"425 652 OFFCURVE",
"424 652 CURVE SMOOTH",
"417 652 OFFCURVE",
"404 644 OFFCURVE",
"384 628 CURVE",
"317 619 LINE",
"318 625 OFFCURVE",
"325 650 OFFCURVE",
"337 694 CURVE SMOOTH",
"348 734 OFFCURVE",
"353 755 OFFCURVE",
"353 758 CURVE SMOOTH",
"353 761 OFFCURVE",
"352 762 OFFCURVE",
"351 762 CURVE SMOOTH",
"350 762 OFFCURVE",
"348 759 OFFCURVE",
"345 754 CURVE",
"331 719 OFFCURVE",
"317 673 OFFCURVE",
"304 617 CURVE",
"109 587 OFFCURVE",
"11 521 OFFCURVE",
"11 419 CURVE SMOOTH",
"11 347 OFFCURVE",
"73 311 OFFCURVE",
"198 311 CURVE SMOOTH",
"223 311 OFFCURVE",
"235 314 OFFCURVE",
"235 320 CURVE SMOOTH",
"235 323 OFFCURVE",
"234 324 OFFCURVE",
"231 324 CURVE SMOOTH",
"217 324 LINE",
"210 323 OFFCURVE",
"205 323 OFFCURVE",
"202 323 CURVE SMOOTH",
"111 323 OFFCURVE",
"66 354 OFFCURVE",
"66 417 CURVE SMOOTH",
"66 514 OFFCURVE",
"144 577 OFFCURVE",
"301 605 CURVE",
"290 557 OFFCURVE",
"282 508 OFFCURVE",
"277 457 CURVE",
"268 468 OFFCURVE",
"258 473 OFFCURVE",
"249 473 CURVE SMOOTH",
"234 473 OFFCURVE",
"227 463 OFFCURVE",
"227 444 CURVE SMOOTH",
"227 417 OFFCURVE",
"242 395 OFFCURVE",
"271 379 CURVE"
);
},
{
closed = 1;
nodes = (
"298 515 OFFCURVE",
"305 561 OFFCURVE",
"315 607 CURVE",
"330 610 OFFCURVE",
"348 612 OFFCURVE",
"370 615 CURVE",
"359 603 OFFCURVE",
"349 559 OFFCURVE",
"342 483 CURVE SMOOTH",
"336 425 OFFCURVE",
"333 377 OFFCURVE",
"333 340 CURVE SMOOTH",
"333 300 OFFCURVE",
"335 263 OFFCURVE",
"339 228 CURVE",
"292 182 LINE",
"287 223 OFFCURVE",
"284 268 OFFCURVE",
"284 316 CURVE SMOOTH",
"284 339 OFFCURVE",
"285 362 OFFCURVE",
"286 385 CURVE",
"316 414 OFFCURVE",
"331 441 OFFCURVE",
"331 468 CURVE SMOOTH",
"331 480 OFFCURVE",
"327 486 OFFCURVE",
"319 486 CURVE SMOOTH",
"312 486 OFFCURVE",
"303 480 OFFCURVE",
"293 468 CURVE"
);
}
);
width = 672;
}
);
note = X;
unicode = 0058;
},
{
glyphname = Y;
layers = (
{
hints = (
{
horizontal = 1;
place = "{-455, 42}";
type = Stem;
},
{
horizontal = 1;
place = "{-47, 20}";
type = Stem;
},
{
horizontal = 1;
place = "{603, 25}";
type = Stem;
},
{
place = "{-15, 23}";
type = Stem;
},
{
place = "{114, 9}";
type = Stem;
},
{
place = "{195, 54}";
type = Stem;
},
{
place = "{154, 96}";
type = Stem;
}
);
layerId = "47CF47DF-B93A-4126-8606-39E7B9FB561A";
paths = (
{
closed = 1;
nodes = (
"242 -455 OFFCURVE",
"277 -446 OFFCURVE",
"308 -428 CURVE SMOOTH",
"378 -389 OFFCURVE",
"437 -326 OFFCURVE",
"486 -239 CURVE SMOOTH",
"524 -171 OFFCURVE",
"557 -84 OFFCURVE",
"586 23 CURVE SMOOTH",
"590 36 OFFCURVE",
"611 122 OFFCURVE",
"648 283 CURVE SMOOTH",
"674 393 OFFCURVE",
"705 461 OFFCURVE",
"742 486 CURVE SMOOTH",
"749 491 OFFCURVE",
"757 494 OFFCURVE",
"768 496 CURVE SMOOTH",
"773 497 OFFCURVE",
"775 499 OFFCURVE",
"775 502 CURVE SMOOTH",
"775 507 OFFCURVE",
"768 509 OFFCURVE",
"753 509 CURVE SMOOTH",
"732 509 OFFCURVE",
"713 505 OFFCURVE",
"696 497 CURVE SMOOTH",
"667 484 OFFCURVE",
"645 451 OFFCURVE",
"629 399 CURVE SMOOTH",
"620 365 LINE",
"603 336 OFFCURVE",
"590 314 OFFCURVE",
"579 299 CURVE SMOOTH",
"536 233 OFFCURVE",
"492 171 OFFCURVE",
"445 113 CURVE SMOOTH",
"370 20 OFFCURVE",
"315 -27 OFFCURVE",
"282 -27 CURVE SMOOTH",
"260 -27 OFFCURVE",
"249 -5 OFFCURVE",
"249 38 CURVE SMOOTH",
"249 143 OFFCURVE",
"300 290 OFFCURVE",
"401 479 CURVE SMOOTH",
"413 502 OFFCURVE",
"424 522 OFFCURVE",
"435 541 CURVE SMOOTH",
"449 564 LINE",
"450 567 LINE",
"450 580 OFFCURVE",
"422 594 OFFCURVE",
"367 609 CURVE",
"379 624 OFFCURVE",
"396 641 OFFCURVE",
"418 662 CURVE",
"420 663 OFFCURVE",
"421 665 OFFCURVE",
"422 667 CURVE",
"422 669 OFFCURVE",
"421 670 OFFCURVE",
"418 670 CURVE SMOOTH",
"410 670 OFFCURVE",
"390 651 OFFCURVE",
"358 612 CURVE",
"315 623 OFFCURVE",
"272 628 OFFCURVE",
"229 628 CURVE SMOOTH",
"134 628 OFFCURVE",
"61 603 OFFCURVE",
"10 552 CURVE SMOOTH",
"-7 535 OFFCURVE",
"-15 519 OFFCURVE",
"-15 503 CURVE SMOOTH",
"-15 470 OFFCURVE",
"13 441 OFFCURVE",
"68 417 CURVE SMOOTH",
"83 410 OFFCURVE",
"93 407 OFFCURVE",
"98 407 CURVE SMOOTH",
"99 407 OFFCURVE",
"100 407 OFFCURVE",
"100 408 CURVE SMOOTH",
"100 410 OFFCURVE",
"92 415 OFFCURVE",
"76 422 CURVE SMOOTH",
"56 431 OFFCURVE",
"41 440 OFFCURVE",
"32 448 CURVE SMOOTH",
"16 461 OFFCURVE",
"8 476 OFFCURVE",
"8 493 CURVE SMOOTH",
"8 506 OFFCURVE",
"15 519 OFFCURVE",
"28 532 CURVE SMOOTH",
"77 579 OFFCURVE",
"140 603 OFFCURVE",
"215 603 CURVE SMOOTH",
"254 603 OFFCURVE",
"294 596 OFFCURVE",
"335 582 CURVE",
"285 514 OFFCURVE",
"240 431 OFFCURVE",
"200 334 CURVE",
"193 354 OFFCURVE",
"184 364 OFFCURVE",
"174 364 CURVE SMOOTH",
"161 364 OFFCURVE",
"154 351 OFFCURVE",
"154 325 CURVE SMOOTH",
"154 304 OFFCURVE",
"160 284 OFFCURVE",
"173 264 CURVE",
"134 151 OFFCURVE",
"114 54 OFFCURVE",
"114 -27 CURVE SMOOTH",
"114 -48 OFFCURVE",
"115 -58 OFFCURVE",
"118 -58 CURVE SMOOTH",
"121 -58 OFFCURVE",
"123 -55 OFFCURVE",
"123 -48 CURVE SMOOTH",
"123 35 OFFCURVE",
"143 136 OFFCURVE",
"184 255 CURVE",
"197 262 OFFCURVE",
"212 274 OFFCURVE",
"227 292 CURVE SMOOTH",
"242 311 OFFCURVE",
"250 327 OFFCURVE",
"250 340 CURVE SMOOTH",
"250 347 OFFCURVE",
"247 351 OFFCURVE",
"240 351 CURVE SMOOTH",
"233 351 OFFCURVE",
"225 348 OFFCURVE",
"216 341 CURVE",
"255 436 OFFCURVE",
"297 515 OFFCURVE",
"344 579 CURVE",
"358 574 OFFCURVE",
"372 568 OFFCURVE",
"386 562 CURVE",
"342 486 OFFCURVE",
"301 402 OFFCURVE",
"264 309 CURVE SMOOTH",
"218 194 OFFCURVE",
"195 107 OFFCURVE",
"195 46 CURVE SMOOTH",
"195 -16 OFFCURVE",
"217 -47 OFFCURVE",
"262 -47 CURVE SMOOTH",
"312 -47 OFFCURVE",
"378 4 OFFCURVE",
"459 106 CURVE SMOOTH",
"510 169 OFFCURVE",
"560 243 OFFCURVE",
"610 327 CURVE",
"601 294 LINE SMOOTH",
"578 193 OFFCURVE",
"562 118 OFFCURVE",
"552 67 CURVE SMOOTH",
"529 -47 OFFCURVE",
"504 -132 OFFCURVE",
"479 -187 CURVE SMOOTH",
"439 -274 OFFCURVE",
"382 -339 OFFCURVE",
"307 -381 CURVE SMOOTH",
"269 -402 OFFCURVE",
"228 -413 OFFCURVE",
"183 -413 CURVE SMOOTH",
"109 -413 OFFCURVE",
"55 -384 OFFCURVE",
"20 -326 CURVE",
"12 -310 OFFCURVE",
"6 -298 OFFCURVE",
"3 -289 CURVE",
"0 -284 OFFCURVE",
"-2 -281 OFFCURVE",
"-4 -281 CURVE SMOOTH",
"-6 -281 OFFCURVE",
"-7 -283 OFFCURVE",
"-7 -286 CURVE SMOOTH",
"-7 -288 OFFCURVE",
"-7 -290 OFFCURVE",
"-6 -292 CURVE SMOOTH",
"11 -341 OFFCURVE",
"37 -379 OFFCURVE",
"73 -408 CURVE SMOOTH",
"112 -439 OFFCURVE",
"156 -455 OFFCURVE",
"205 -455 CURVE SMOOTH"
);
}
);
width = 707;
}
);
note = Y;
unicode = 0059;
},
